SplineFontDB: 3.2
FontName: EtheirysTomestoneMaru
FullName: Etheirys Tomestone Maru
FamilyName: Etheirys Tomestone Maru
Weight: Book
Copyright: Original (c) Square Enix. 
Version: 1.00
ItalicAngle: 0
UnderlinePosition: -442
UnderlineWidth: 128
Ascent: 1536
Descent: 512
InvalidEm: 0
sfntRevision: 0x00010000
LayerCount: 2
Layer: 0 1 "Back" 1
Layer: 1 1 "Fore" 0
HasVMetrics: 1
XUID: [1021 893 -1223954049 15745]
StyleMap: 0x0040
FSType: 8
OS2Version: 3
OS2_WeightWidthSlopeOnly: 0
OS2_UseTypoMetrics: 1
CreationTime: 1272898488
ModificationTime: 1668826049
PfmFamily: 33
TTFWeight: 400
TTFWidth: 5
LineGap: 0
VLineGap: 0
OS2TypoAscent: 0
OS2TypoAOffset: 1
OS2TypoDescent: 0
OS2TypoDOffset: 1
OS2TypoLinegap: 256
OS2WinAscent: 0
OS2WinAOffset: 1
OS2WinDescent: 0
OS2WinDOffset: 1
HheadAscent: 0
HheadAOffset: 1
HheadDescent: 0
HheadDOffset: 1
OS2CapHeight: 1344
OS2XHeight: 1344
OS2Vendor: 'MPDX'
OS2CodePages: 20000111.41000000
OS2UnicodeRanges: 800000a7.5000004a.00000000.00000000
Lookup: 4 0 1 "'liga' Standard Ligatures lookup 0" { "'liga' Standard Ligatures lookup 0 subtable"  } ['liga' ('DFLT' <'dflt' > 'hani' <'dflt' > 'kana' <'dflt' > 'latn' <'dflt' > ) ]
MarkAttachClasses: 1
DEI: 91125
ShortTable: maxp 16
  1
  0
  432
  188
  5
  260
  6
  0
  0
  0
  0
  0
  0
  0
  2
  1
EndShort
LangName: 1055 "" "" "Maru"
LangName: 1053 "" "" "Maru"
LangName: 2058 "" "" "Maru"
LangName: 1034 "" "" "Maru"
LangName: 3082 "" "" "Maru"
LangName: 1060 "" "" "Maru"
LangName: 1051 "" "" "Maru"
LangName: 1049 "" "" "+BDwEMARABEMA"
LangName: 1046 "" "" "Maru"
LangName: 2070 "" "" "Maru"
LangName: 1045 "" "" "Maru"
LangName: 1044 "" "" "Maru"
LangName: 1041 "" "" "+MH4wiwAA"
LangName: 1040 "" "" "Maru"
LangName: 1038 "" "" "Maru"
LangName: 1032 "" "" "Maru"
LangName: 1031 "" "" "Maru"
LangName: 1036 "" "" "Maru"
LangName: 3084 "" "" "Maru"
LangName: 1035 "" "" "Maru"
LangName: 1043 "" "" "Maru"
LangName: 1030 "" "" "Maru"
LangName: 1029 "" "" "Maru"
LangName: 1027 "" "" "Maru"

StartChar: .notdef
Encoding: 1114112 -1 0
Width: 1024
Flags: W
LayerCount: 2
Fore
SplineSet
100 0 m 1,0,-1
 100 1434 l 1,1,-1
 924 1434 l 1,2,-1
 924 0 l 1,3,-1
 100 0 l 1,0,-1
150 50 m 1,4,-1
 874 50 l 1,5,-1
 874 1384 l 1,6,-1
 150 1384 l 1,7,-1
 150 50 l 1,4,-1
325 1148 m 1,8,9
 356 1176 356 1176 383 1191 c 0,10,11
 436 1221 436 1221 495 1221 c 0,12,13
 587 1221 587 1221 643 1173.5 c 128,-1,14
 699 1126 699 1126 699 1046 c 0,15,16
 699 997 699 997 676 947.5 c 128,-1,17
 653 898 653 898 589 818 c 0,18,19
 526 738 526 738 490 686 c 128,-1,20
 454 634 454 634 454 587 c 0,21,22
 454 549 454 549 478 454 c 1,23,-1
 446 454 l 1,24,25
 411 551 411 551 411 602 c 0,26,27
 411 678 411 678 492.5 820 c 128,-1,28
 574 962 574 962 574 1037 c 0,29,30
 574 1094 574 1094 541 1127 c 128,-1,31
 508 1160 508 1160 450 1160 c 0,32,33
 412 1160 412 1160 381 1143 c 0,34,35
 355 1128 355 1128 325 1103 c 1,36,-1
 325 1148 l 1,8,9
389 334 m 2,37,-1
 446 392 l 2,38,39
 457 402 457 402 466 402 c 0,40,41
 476 402 476 402 488 391 c 2,42,-1
 544 331 l 2,43,44
 553 320 553 320 553 311 c 0,45,46
 553 300 553 300 543 289 c 2,47,-1
 487 227 l 2,48,49
 473 213 473 213 466 213 c 0,50,51
 455 213 455 213 446 223 c 2,52,-1
 385 294 l 2,53,54
 378 303 378 303 378 312 c 0,55,56
 378 322 378 322 389 334 c 2,37,-1
EndSplineSet
EndChar

StartChar: exclam
Encoding: 33 33 4
Width: 320
GlyphClass: 2
Flags: W
LayerCount: 2
Fore
SplineSet
96 384 m 258
 96 1280 l 258
 96 1344 96 1344 160 1344 c 259
 224 1344 224 1344 224 1280 c 258
 224 384 l 258
 224 320 224 320 160 320 c 259
 96 320 96 320 96 384 c 258
EndSplineSet
Refer: 17 46 N 1 0 0 1 0 0 2
EndChar

StartChar: numbersign
Encoding: 35 35 6
Width: 1336
GlyphClass: 2
Flags: W
LayerCount: 2
Fore
SplineSet
596 859 m 1,0,-1
 511 569 l 1,1,-1
 753 569 l 1,2,-1
 839 859 l 1,3,-1
 596 859 l 1,0,-1
673 1434 m 1,4,-1
 766 1434 l 1,5,-1
 625 957 l 1,6,-1
 867 957 l 1,7,-1
 1009 1434 l 1,8,-1
 1101 1434 l 1,9,-1
 960 957 l 1,10,-1
 1219 957 l 1,11,-1
 1190 860 l 1,12,-1
 931 860 l 1,13,-1
 848 570 l 1,14,-1
 1127 570 l 1,15,-1
 1097 472 l 1,16,-1
 817 472 l 1,17,-1
 677 0 l 1,18,-1
 585 0 l 1,19,-1
 724 472 l 1,20,-1
 484 472 l 1,21,-1
 342 0 l 1,22,-1
 250 0 l 1,23,-1
 390 472 l 1,24,-1
 117 472 l 1,25,-1
 147 570 l 1,26,-1
 418 570 l 1,27,-1
 504 860 l 1,28,-1
 209 860 l 1,29,-1
 238 957 l 1,30,-1
 533 957 l 1,31,-1
 673 1434 l 1,4,-1
EndSplineSet
EndChar

StartChar: dollar
Encoding: 36 36 7
Width: 1014
GlyphClass: 2
Flags: W
LayerCount: 2
Fore
SplineSet
577 1552 m 1,0,-1
 577 1450 l 1,1,2
 645 1442 645 1442 718 1415 c 0,3,4
 728 1409 728 1409 737 1409 c 0,5,6
 762 1409 762 1409 778 1454 c 1,7,-1
 828 1454 l 1,8,-1
 931 1172 l 1,9,-1
 882 1172 l 1,10,11
 822 1306 822 1306 714 1351 c 0,12,13
 640 1381 640 1381 577 1390 c 1,14,-1
 577 850 l 1,15,16
 818 757 818 757 899.5 667 c 128,-1,17
 981 577 981 577 981 403 c 0,18,19
 981 206 981 206 861.5 103 c 128,-1,20
 742 0 742 0 577 -17 c 1,21,-1
 577 -256 l 1,22,-1
 504 -256 l 1,23,-1
 504 -19 l 1,24,25
 316 -16 316 -16 238 19 c 0,26,27
 228 25 228 25 219 25 c 0,28,29
 194 25 194 25 178 -20 c 1,30,-1
 128 -20 l 1,31,-1
 128 311 l 1,32,-1
 177 311 l 1,33,34
 227 128 227 128 329.5 85 c 128,-1,35
 432 42 432 42 504 42 c 1,36,-1
 504 677 l 1,37,38
 290 744 290 744 205 830 c 0,39,40
 113 921 113 921 113 1079 c 0,41,42
 113 1245 113 1245 238 1350 c 0,43,44
 343 1438 343 1438 504 1452 c 1,45,-1
 504 1552 l 1,46,-1
 577 1552 l 1,0,-1
577 655 m 1,47,-1
 577 45 l 1,48,49
 702 62 702 62 788.5 141 c 128,-1,50
 875 220 875 220 875 360 c 0,51,52
 875 476 875 476 806 543 c 0,53,54
 744 602 744 602 577 655 c 1,47,-1
504 873 m 1,55,-1
 504 1393 l 1,56,57
 385 1388 385 1388 305 1321 c 0,58,59
 219 1248 219 1248 219 1139 c 0,60,61
 219 1041 219 1041 274 986 c 0,62,63
 326 932 326 932 504 873 c 1,55,-1
EndSplineSet
EndChar

StartChar: percent
Encoding: 37 37 8
Width: 1610
GlyphClass: 2
Flags: W
LayerCount: 2
Fore
SplineSet
449 1459 m 256,0,1
 547 1459 547 1459 639.5 1410 c 128,-1,2
 732 1361 732 1361 784 1270.5 c 128,-1,3
 836 1180 836 1180 836 1080 c 0,4,5
 836 981 836 981 785.5 891.5 c 128,-1,6
 735 802 735 802 642.5 751.5 c 128,-1,7
 550 701 550 701 449 701 c 0,8,9
 349 701 349 701 256.5 751.5 c 128,-1,10
 164 802 164 802 113 891.5 c 128,-1,11
 62 981 62 981 62 1080 c 0,12,13
 62 1180 62 1180 114 1270.5 c 128,-1,14
 166 1361 166 1361 258.5 1410 c 128,-1,15
 351 1459 351 1459 449 1459 c 256,0,1
206 1066 m 0,16,17
 219 974 219 974 261.5 892.5 c 128,-1,18
 304 811 304 811 368 768 c 0,19,20
 425 728 425 728 482 728 c 0,21,22
 489 728 489 728 495 729 c 0,23,24
 558 732 558 732 610 782 c 128,-1,25
 662 832 662 832 683 918 c 0,26,27
 696 972 696 972 696 1029 c 0,28,29
 696 1061 696 1061 692 1094 c 0,30,31
 680 1187 680 1187 636 1269.5 c 128,-1,32
 592 1352 592 1352 529 1394 c 0,33,34
 471 1432 471 1432 414 1432 c 2,35,-1
 403 1432 l 2,36,37
 342 1429 342 1429 290 1380 c 128,-1,38
 238 1331 238 1331 217 1245 c 0,39,40
 202 1187 202 1187 202 1128 c 0,41,42
 202 1097 202 1097 206 1066 c 0,16,17
297 -29 m 1,43,-1
 1237 1432 l 1,44,-1
 1321 1432 l 1,45,-1
 383 -29 l 1,46,-1
 297 -29 l 1,43,-1
1161 738 m 0,47,48
 1258 738 1258 738 1351 688.5 c 128,-1,49
 1444 639 1444 639 1496 548.5 c 128,-1,50
 1548 458 1548 458 1548 359 c 0,51,52
 1548 259 1548 259 1497.5 169.5 c 128,-1,53
 1447 80 1447 80 1354.5 30 c 128,-1,54
 1262 -20 1262 -20 1161 -20 c 256,55,56
 1060 -20 1060 -20 968 30 c 128,-1,57
 876 80 876 80 825 169.5 c 128,-1,58
 774 259 774 259 774 359 c 0,59,60
 774 458 774 458 826 548.5 c 128,-1,61
 878 639 878 639 970.5 688.5 c 128,-1,62
 1063 738 1063 738 1161 738 c 0,47,48
918 344 m 0,63,64
 931 252 931 252 973.5 170.5 c 128,-1,65
 1016 89 1016 89 1080 46 c 0,66,67
 1139 7 1139 7 1196 7 c 2,68,-1
 1207 7 l 2,69,70
 1270 10 1270 10 1322 60 c 128,-1,71
 1374 110 1374 110 1395 196 c 0,72,73
 1408 250 1408 250 1408 307 c 0,74,75
 1408 339 1408 339 1404 372 c 0,76,77
 1392 465 1392 465 1348 547.5 c 128,-1,78
 1304 630 1304 630 1241 672 c 0,79,80
 1183 710 1183 710 1126 710 c 2,81,-1
 1115 710 l 2,82,83
 1054 707 1054 707 1002 658 c 128,-1,84
 950 609 950 609 929 523 c 0,85,86
 914 465 914 465 914 406 c 0,87,88
 914 375 914 375 918 344 c 0,63,64
EndSplineSet
EndChar

StartChar: ampersand
Encoding: 38 38 9
Width: 1683
GlyphClass: 2
Flags: W
LayerCount: 2
Fore
SplineSet
1051 196 m 1,0,-1
 497 879 l 1,1,2
 379 879 379 879 317.5 793 c 128,-1,3
 256 707 256 707 256 589 c 0,4,5
 256 498 256 498 291.5 407.5 c 128,-1,6
 327 317 327 317 393 243 c 0,7,8
 465 160 465 160 558 116 c 128,-1,9
 651 72 651 72 752 72 c 0,10,11
 840 72 840 72 921 105.5 c 128,-1,12
 1002 139 1002 139 1051 196 c 1,0,-1
1394 0 m 2,13,14
 1338 0 1338 0 1255 25 c 128,-1,15
 1172 50 1172 50 1088 157 c 1,16,17
 1021 83 1021 83 913 33.5 c 128,-1,18
 805 -16 805 -16 672 -16 c 0,19,20
 443 -16 443 -16 297.5 134.5 c 128,-1,21
 152 285 152 285 152 520 c 0,22,23
 152 681 152 681 228 786.5 c 128,-1,24
 304 892 304 892 453 938 c 1,25,26
 411 999 411 999 390.5 1054 c 128,-1,27
 370 1109 370 1109 370 1165 c 0,28,29
 370 1270 370 1270 447 1362 c 128,-1,30
 524 1454 524 1454 629 1454 c 0,31,32
 697 1454 697 1454 771 1415 c 0,33,34
 780 1409 780 1409 789 1409 c 0,35,36
 812 1409 812 1409 827 1454 c 1,37,-1
 873 1454 l 1,38,-1
 969 1173 l 1,39,-1
 923 1173 l 1,40,41
 868 1306 868 1306 768 1351 c 0,42,43
 683 1388 683 1388 627 1388 c 0,44,45
 562 1388 562 1388 521 1342.5 c 128,-1,46
 480 1297 480 1297 480 1225 c 0,47,48
 480 1094 480 1094 582 958 c 1,49,-1
 1113 288 l 1,50,51
 1211 434 1211 434 1234 532 c 0,52,53
 1251 610 1251 610 1251 662 c 0,54,55
 1251 759 1251 759 1189 759 c 2,56,-1
 1099 759 l 1,57,-1
 1099 809 l 1,58,-1
 1542 809 l 1,59,-1
 1542 759 l 1,60,-1
 1452 759 l 2,61,62
 1357 759 1357 759 1307 532 c 0,63,64
 1276 400 1276 400 1152 240 c 1,65,66
 1261 104 1261 104 1400 104 c 2,67,-1
 1416 104 l 1,68,69
 1559 121 1559 121 1608 232 c 1,70,-1
 1657 231 l 1,71,-1
 1554 0 l 1,72,-1
 1394 0 l 2,13,14
EndSplineSet
EndChar

StartChar: parenleft
Encoding: 40 40 11
Width: 512
GlyphClass: 2
Flags: W
LayerCount: 2
Back
SplineSet
8 601 m 4,0,1
 10 878 10 878 107.5 1131 c 132,-1,2
 205 1384 205 1384 376 1573 c 5,3,-1
 456 1573 l 5,4,5
 284 1331 284 1331 226 1135 c 4,6,7
 169 942 169 942 169 612 c 6,8,-1
 169 590 l 6,9,10
 169 260 169 260 226 68 c 4,11,12
 284 -128 284 -128 456 -370 c 5,13,-1
 376 -370 l 5,14,15
 205 -181 205 -181 107.5 71.5 c 132,-1,16
 10 324 10 324 8 601 c 4,0,1
EndSplineSet
Fore
SplineSet
64 576 m 259,0,1
 64 1184 64 1184 384 1504 c 256,2,3
 416 1536 416 1536 434 1536 c 259,4,5
 448 1536 448 1536 448 1520 c 259,6,7
 448 1504 448 1504 416 1456 c 256,8,9
 192 1120 192 1120 192 576 c 263,10,11
 192 32 192 32 416 -304 c 256,12,13
 448 -352 448 -352 448 -368 c 259,14,15
 448 -384 448 -384 432 -384 c 259,16,17
 416 -384 416 -384 384 -352 c 256,18,19
 64 -32 64 -32 64 576 c 259,0,1
EndSplineSet
EndChar

StartChar: parenright
Encoding: 41 41 12
Width: 512
GlyphClass: 2
Flags: W
LayerCount: 2
Fore
SplineSet
448 576 m 259,0,1
 448 -32 448 -32 128 -352 c 256,2,3
 96 -384 96 -384 80 -384 c 259,4,5
 64 -384 64 -384 64 -368 c 259,6,7
 64 -352 64 -352 96 -304 c 256,8,9
 320 32 320 32 320 576 c 259,10,11
 320 1120 320 1120 96 1456 c 256,12,13
 64 1504 64 1504 64 1520 c 259,14,15
 64 1536 64 1536 78 1536 c 259,16,17
 96 1536 96 1536 128 1504 c 256,18,19
 448 1184 448 1184 448 576 c 259,0,1
EndSplineSet
EndChar

StartChar: asterisk
Encoding: 42 42 13
Width: 768
GlyphClass: 2
Flags: W
LayerCount: 2
Back
SplineSet
498 1294 m 1,0,1
 494 1365 494 1365 461 1424 c 0,2,3
 424 1490 424 1490 424 1508 c 0,4,5
 424 1540 424 1540 447.5 1559.5 c 128,-1,6
 471 1579 471 1579 510 1579 c 4,7,8
 547 1579 547 1579 571.5 1561 c 128,-1,9
 596 1543 596 1543 596 1514 c 0,10,11
 596 1493 596 1493 560 1425 c 0,12,13
 527 1364 527 1364 523 1295 c 1,14,15
 589 1320 589 1320 636 1370 c 0,16,17
 687 1425 687 1425 705 1431 c 0,18,19
 716 1434 716 1434 726 1434 c 0,20,21
 744 1434 744 1434 761 1424 c 0,22,23
 787 1407 787 1407 799 1371 c 0,24,25
 805 1352 805 1352 805 1335 c 0,26,27
 805 1320 805 1320 801 1307 c 0,28,29
 791 1277 791 1277 763 1269 c 0,30,31
 757 1267 757 1267 744 1267 c 0,32,33
 719 1267 719 1267 668 1276 c 0,34,35
 640 1281 640 1281 613 1281 c 0,36,37
 572 1281 572 1281 532 1270 c 1,38,39
 576 1215 576 1215 637 1187 c 0,40,41
 705 1155 705 1155 716 1140 c 0,42,43
 729 1122 729 1122 729 1102 c 0,44,45
 729 1093 729 1093 727 1085 c 0,46,47
 719 1055 719 1055 688 1032 c 0,48,49
 659 1010 659 1010 629 1010 c 0,50,51
 628 1010 628 1010 628 1011 c 1,52,53
 597 1011 597 1011 580 1034 c 0,54,55
 568 1051 568 1051 558 1128 c 0,56,57
 548 1195 548 1195 511 1253 c 1,58,59
 473 1195 473 1195 465 1129 c 0,60,61
 456 1054 456 1054 445 1039 c 0,62,63
 426 1014 426 1014 396 1012 c 2,64,-1
 391 1012 l 2,65,66
 363 1012 363 1012 334 1033 c 0,67,68
 304 1054 304 1054 295 1084 c 0,69,70
 291 1094 291 1094 291 1104 c 0,71,72
 291 1121 291 1121 302 1136 c 0,73,74
 315 1153 315 1153 385 1187 c 0,75,76
 446 1216 446 1216 490 1269 c 1,77,78
 449 1280 449 1280 410 1280 c 0,79,80
 383 1280 383 1280 357 1275 c 0,81,82
 303 1264 303 1264 279 1264 c 0,83,84
 270 1264 270 1264 265 1266 c 0,85,86
 235 1275 235 1275 224 1304 c 0,87,88
 218 1317 218 1317 218 1333 c 0,89,90
 218 1350 218 1350 224 1369 c 0,91,92
 235 1404 235 1404 260 1422 c 0,93,94
 277 1434 277 1434 294 1434 c 0,95,96
 303 1434 303 1434 312 1431 c 0,97,98
 332 1425 332 1425 386 1369 c 0,99,100
 433 1320 433 1320 498 1294 c 1,0,1
EndSplineSet
Fore
SplineSet
368 1312 m 257,0,1
 320 1408 320 1408 320 1472 c 256,2,3
 320 1536 320 1536 384 1536 c 256,4,5
 448 1536 448 1536 448 1472 c 256,6,7
 448 1408 448 1408 400 1312 c 257,8,9
 477 1388 477 1388 537 1407 c 256,10,11
 598 1427 598 1427 618 1366 c 256,12,13
 638 1305 638 1305 577 1285 c 256,14,15
 516 1266 516 1266 410 1282 c 257,16,17
 505 1232 505 1232 543 1180 c 256,18,19
 580 1129 580 1129 529 1091 c 256,20,21
 477 1053 477 1053 439 1105 c 256,22,23
 402 1157 402 1157 384 1263 c 257,24,25
 366 1157 366 1157 329 1105 c 256,26,27
 291 1053 291 1053 239 1091 c 256,28,29
 188 1129 188 1129 225 1180 c 256,30,31
 263 1232 263 1232 358 1282 c 257,32,33
 252 1266 252 1266 191 1285 c 256,34,35
 130 1305 130 1305 150 1366 c 256,36,37
 170 1427 170 1427 231 1407 c 256,38,39
 291 1388 291 1388 368 1312 c 257,0,1
EndSplineSet
EndChar

StartChar: plus
Encoding: 43 43 14
Width: 1024
GlyphClass: 2
Flags: W
LayerCount: 2
Fore
SplineSet
64 480 m 259,0,1
 64 544 64 544 128 544 c 258,2,-1
 448 544 l 1,3,-1
 448 864 l 258,4,5
 448 928 448 928 512 928 c 275,6,7
 576 928 576 928 576 864 c 258,8,-1
 576 544 l 1,9,-1
 896 544 l 258,10,11
 960 544 960 544 960 480 c 275,12,13
 960 416 960 416 896 416 c 258,14,-1
 576 416 l 1,15,-1
 576 96 l 258,16,17
 576 32 576 32 512 32 c 259,18,19
 448 32 448 32 448 96 c 258,20,-1
 448 416 l 1,21,-1
 128 416 l 258,22,23
 64 416 64 416 64 480 c 259,0,1
EndSplineSet
EndChar

StartChar: comma
Encoding: 44 44 15
Width: 320
GlyphClass: 2
Flags: W
LayerCount: 2
Fore
SplineSet
128 -160 m 0,0,1
 64 32 64 32 64 96 c 259,2,3
 64 192 64 192 160 192 c 259,4,5
 256 192 256 192 256 96 c 259,6,7
 256 29 256 29 192 -160 c 0,8,9
 181 -192 181 -192 160 -192 c 259,10,11
 139 -192 139 -192 128 -160 c 0,0,1
EndSplineSet
EndChar

StartChar: hyphen
Encoding: 45 45 16
AltUni2: 0000ad.ffffffff.0
Width: 768
GlyphClass: 2
Flags: W
LayerCount: 2
Fore
SplineSet
64 480 m 263,0,1
 64 544 64 544 128 544 c 262,2,-1
 640 544 l 262,3,4
 704 544 704 544 704 480 c 279,5,6
 704 416 704 416 640 416 c 270,7,-1
 128 416 l 262,8,9
 64 416 64 416 64 480 c 263,0,1
EndSplineSet
EndChar

StartChar: period
Encoding: 46 46 17
Width: 320
GlyphClass: 2
Flags: W
LayerCount: 2
Fore
SplineSet
64 96 m 263,0,1
 64 192 64 192 160 192 c 263,2,3
 256 192 256 192 256 96 c 263,4,5
 256 0 256 0 160 0 c 263,6,7
 64 0 64 0 64 96 c 263,0,1
EndSplineSet
EndChar

StartChar: slash
Encoding: 47 47 18
Width: 768
GlyphClass: 2
Flags: W
LayerCount: 2
Fore
SplineSet
160 -224 m 257,0,1
 144 -272 144 -272 96 -256 c 256,2,3
 48 -240 48 -240 64 -192 c 257,4,-1
 608 1440 l 273,5,6
 624 1488 624 1488 672 1472 c 256,7,8
 720 1456 720 1456 704 1408 c 265,9,-1
 160 -224 l 257,0,1
EndSplineSet
EndChar

StartChar: zero
Encoding: 48 48 19
Width: 1024
GlyphClass: 2
Flags: W
LayerCount: 2
Fore
SplineSet
416 672 m 259,0,1
 416 768 416 768 512 768 c 259,2,3
 608 768 608 768 608 672 c 259,4,5
 608 576 608 576 512 576 c 259,6,7
 416 576 416 576 416 672 c 259,0,1
64 448 m 266,8,9
 64 896 l 258,10,11
 64 1344 64 1344 511.334960938 1344 c 259,12,13
 960 1344 960 1344 960 896 c 258,14,-1
 960 448 l 258,15,16
 960 0 960 0 512 0 c 259,17,18
 64 0 64 0 64 448 c 266,8,9
192 448 m 258,19,20
 192 128 192 128 512 128 c 259,21,22
 832 128 832 128 832 448 c 258,23,-1
 832 896 l 258,24,25
 832 1216 832 1216 512 1216 c 259,26,27
 192 1216 192 1216 192 896 c 266,28,29
 192 448 l 258,19,20
EndSplineSet
EndChar

StartChar: one
Encoding: 49 49 20
Width: 1024
GlyphClass: 2
Flags: W
LayerCount: 2
Fore
SplineSet
58 43 m 256,0,1
 41 104 41 104 102 122 c 256,2,3
 288 176 288 176 288 368 c 258,4,-1
 288 992 l 258,5,6
 288 1344 288 1344 640 1344 c 259,7,8
 861 1344 861 1344 955 1149 c 256,9,10
 982 1093 982 1093 926 1064 c 256,11,12
 870 1035 870 1035 840 1091 c 256,13,14
 775 1216 775 1216 640 1216 c 259,15,16
 416 1216 416 1216 416 992 c 258,17,-1
 416 368 l 258,18,19
 416 81 416 81 137 -1 c 256,20,21
 75 -19 75 -19 58 43 c 256,0,1
EndSplineSet
EndChar

StartChar: two
Encoding: 50 50 21
Width: 1024
GlyphClass: 2
Flags: W
LayerCount: 2
Fore
SplineSet
58 43 m 260,0,1
 41 104 41 104 102 122 c 256,2,3
 288 176 288 176 288 368 c 258,4,-1
 288 992 l 258,5,6
 288 1344 288 1344 640 1344 c 259,7,8
 861 1344 861 1344 955 1149 c 256,9,10
 982 1093 982 1093 926 1064 c 256,11,12
 870 1035 870 1035 840 1091 c 256,13,14
 773 1216 773 1216 640 1216 c 259,15,16
 416 1216 416 1216 416 992 c 266,17,-1
 416 832 l 257,18,19
 576 832 576 832 656 912 c 256,20,21
 704 960 704 960 752 912 c 256,22,23
 800 864 800 864 752 816 c 256,24,25
 640 704 640 704 416 704 c 257,26,-1
 416 368 l 258,27,28
 416 80 416 80 137 -1 c 256,29,30
 75 -19 75 -19 58 43 c 260,0,1
EndSplineSet
EndChar

StartChar: three
Encoding: 51 51 22
Width: 1024
GlyphClass: 2
Flags: W
LayerCount: 2
Fore
SplineSet
58 43 m 260,0,1
 41 104 41 104 102 122 c 256,2,3
 288 176 288 176 288 368 c 258,4,-1
 288 992 l 258,5,6
 288 1344 288 1344 640 1344 c 259,7,8
 861 1344 861 1344 955 1149 c 256,9,10
 982 1093 982 1093 926 1064 c 256,11,12
 870 1035 870 1035 840 1091 c 256,13,14
 773 1216 773 1216 640 1216 c 259,15,16
 416 1216 416 1216 416 992 c 258,17,-1
 416 832 l 257,18,19
 576 832 576 832 656 912 c 256,20,21
 704 960 704 960 752 912 c 256,22,23
 800 864 800 864 752 816 c 256,24,25
 640 704 640 704 416 704 c 257,26,-1
 416 512 l 257,27,28
 576 512 576 512 656 592 c 256,29,30
 704 640 704 640 752 592 c 256,31,32
 800 544 800 544 752 496 c 256,33,34
 640 384 640 384 416 384 c 257,35,-1
 416 368 l 258,36,37
 416 81 416 81 137 -1 c 256,38,39
 75 -19 75 -19 58 43 c 260,0,1
EndSplineSet
EndChar

StartChar: four
Encoding: 52 52 23
Width: 1024
GlyphClass: 2
Flags: W
LayerCount: 2
Fore
SplineSet
160 64 m 263,0,1
 160 128 160 128 224 128 c 266,2,-1
 768 128 l 274,3,4
 862 128 862 128 832 192 c 258,5,-1
 380 1152 l 258,6,7
 350 1215 350 1215 288 1216 c 259,8,9
 192 1216 192 1216 192 1120 c 259,10,11
 192 1056 192 1056 128 1056 c 259,12,13
 64 1056 64 1056 64 1120 c 259,14,15
 64 1344 64 1344 288 1344 c 259,16,17
 437 1344 437 1344 511 1184 c 258,18,-1
 944 256 l 258,19,20
 1063 0 1063 0 832 0 c 266,21,-1
 224 0 l 274,22,23
 160 0 160 0 160 64 c 263,0,1
EndSplineSet
EndChar

StartChar: five
Encoding: 53 53 24
Width: 1024
GlyphClass: 2
Flags: W
LayerCount: 2
Fore
SplineSet
64 64 m 263,0,1
 64 721 64 721 736 736 c 257,2,-1
 736 896 l 258,3,4
 736 1216 736 1216 416 1216 c 259,5,6
 256 1216 256 1216 176 1136 c 256,7,8
 128 1088 128 1088 80 1136 c 256,9,10
 32 1184 32 1184 80 1232 c 256,11,12
 192 1344 192 1344 416 1344 c 259,13,14
 864 1344 864 1344 864 896 c 258,15,-1
 864 352 l 258,16,17
 864 192 864 192 944 112 c 256,18,19
 992 64 992 64 944 16 c 256,20,21
 896 -32 896 -32 848.004882812 16 c 256,22,23
 736 128 736 128 736 352 c 258,24,-1
 736 607.568359375 l 257,25,26
 192 593 192 593 192 64 c 259,27,28
 192 0 192 0 128 0 c 259,29,30
 64 0 64 0 64 64 c 263,0,1
EndSplineSet
EndChar

StartChar: six
Encoding: 54 54 25
Width: 1024
GlyphClass: 2
Flags: W
LayerCount: 2
Fore
SplineSet
80 256 m 262,0,-1
 513 1184 l 258,1,2
 587 1344 587 1344 736 1344 c 259,3,4
 960 1344 960 1344 960 1120 c 259,5,6
 960 1056 960 1056 896 1056 c 259,7,8
 832 1056 832 1056 832 1120 c 259,9,10
 832 1216 832 1216 736 1216 c 259,11,12
 674 1215 674 1215 644 1152 c 266,13,-1
 192 192 l 258,14,15
 162 128 162 128 256 128 c 258,16,-1
 800 128 l 258,17,18
 864 128 864 128 864 64 c 259,19,20
 864 0 864 0 800 0 c 258,21,-1
 192 0 l 258,22,23
 -39 0 -39 0 80 256 c 262,0,-1
EndSplineSet
EndChar

StartChar: seven
Encoding: 55 55 26
Width: 1024
GlyphClass: 2
Flags: W
LayerCount: 2
Fore
SplineSet
640 512 m 259,0,1
 448 512 448 512 448 320 c 259,2,3
 448 128 448 128 640 128 c 259,4,5
 832 128 832 128 832 320 c 259,6,7
 832 512 832 512 640 512 c 259,0,1
320 64 m 258,8,-1
 320 1136 l 258,9,10
 320 1216 320 1216 240 1216 c 259,11,12
 192 1216 192 1216 176 1200 c 256,13,14
 128 1152 128 1152 80 1200 c 256,15,16
 32 1248 32 1248 80 1296 c 256,17,18
 128 1344 128 1344 240 1344 c 259,19,20
 448 1344 448 1344 448 1136 c 258,21,-1
 448 592 l 257,22,23
 496 640 496 640 640 640 c 259,24,25
 960 640 960 640 960 320 c 259,26,27
 960 0 960 0 640 0 c 259,28,29
 522 0 522 0 446 44 c 257,30,31
 438 0 438 0 384 0 c 259,32,33
 320 0 320 0 320 64 c 258,8,-1
EndSplineSet
EndChar

StartChar: eight
Encoding: 56 56 27
Width: 1024
GlyphClass: 2
Flags: W
LayerCount: 2
Fore
SplineSet
640 512 m 259,0,1
 448 512 448 512 448 320 c 259,2,3
 448 128 448 128 640 128 c 259,4,5
 832 128 832 128 832 320 c 259,6,7
 832 512 832 512 640 512 c 259,0,1
320 64 m 258,8,-1
 320 864 l 258,9,10
 320 944 320 944 240 944 c 259,11,12
 192 944 192 944 176 928 c 256,13,14
 128 880 128 880 80 928 c 256,15,16
 32 976 32 976 80 1024 c 256,17,18
 128 1072 128 1072 240 1072 c 259,19,20
 280 1072 280 1072 320 1062 c 273,21,-1
 320 1136 l 258,22,23
 320 1216 320 1216 240 1216 c 259,24,25
 192 1216 192 1216 176 1200 c 256,26,27
 128 1152 128 1152 80 1200 c 256,28,29
 32 1248 32 1248 80 1296 c 256,30,31
 128 1344 128 1344 240 1344 c 259,32,33
 448 1344 448 1344 448 1136 c 258,34,-1
 448 592 l 257,35,36
 496 640 496 640 640 640 c 259,37,38
 960 640 960 640 960 320 c 259,39,40
 960 0 960 0 640 0 c 259,41,42
 522 0 522 0 446 44 c 257,43,44
 438 0 438 0 384 0 c 259,45,46
 320 0 320 0 320 64 c 258,8,-1
EndSplineSet
EndChar

StartChar: nine
Encoding: 57 57 28
Width: 1024
GlyphClass: 2
Flags: W
LayerCount: 2
Fore
SplineSet
320 64 m 258,0,-1
 320 576 l 258,1,2
 320 656 320 656 240 656 c 259,3,4
 192 656 192 656 176 640 c 256,5,6
 128 592 128 592 80 640 c 256,7,8
 32 688 32 688 80 736 c 256,9,10
 128 784 128 784 240 784 c 259,11,12
 280 784 280 784 320 774 c 273,13,-1
 320 864 l 258,14,15
 320 944 320 944 240 944 c 259,16,17
 192 944 192 944 176 928 c 256,18,19
 128 880 128 880 80 928 c 256,20,21
 32 976 32 976 80 1024 c 256,22,23
 128 1072 128 1072 240 1072 c 259,24,25
 280 1072 280 1072 320 1062 c 280,26,-1
 320 1136 l 258,27,28
 320 1216 320 1216 240 1216 c 259,29,30
 192 1216 192 1216 176 1200 c 256,31,32
 128 1152 128 1152 80 1200 c 256,33,34
 32 1248 32 1248 80 1296 c 256,35,36
 128 1344 128 1344 240 1344 c 259,37,38
 448 1344 448 1344 448 1136 c 258,39,-1
 448 592 l 257,40,41
 496 640 496 640 640 640 c 259,42,43
 960 640 960 640 960 320 c 259,44,45
 960 0 960 0 640 0 c 259,46,47
 522 0 522 0 446 44 c 257,48,49
 438 0 438 0 384 0 c 259,50,51
 320 0 320 0 320 64 c 258,0,-1
640 512 m 259,52,53
 448 512 448 512 448 320 c 259,54,55
 448 128 448 128 640 128 c 259,56,57
 832 128 832 128 832 320 c 259,58,59
 832 512 832 512 640 512 c 259,52,53
EndSplineSet
EndChar

StartChar: less
Encoding: 60 60 31
Width: 1024
GlyphClass: 2
Flags: W
LayerCount: 2
Fore
SplineSet
64 672 m 259,0,1
 64 716.666666667 64 716.666666667 96 736 c 258,2,-1
 864 1200 l 258,3,4
 890 1216 890 1216 912 1216 c 259,5,6
 960 1216 960 1216 960 1152 c 259,7,8
 960 1107 960 1107 928 1088 c 258,9,-1
 240 672 l 257,10,-1
 928 256 l 258,11,12
 960 236.651162791 960 236.651162791 960 192 c 259,13,14
 960 128 960 128 912 128 c 259,15,16
 890 128 890 128 864 144 c 258,17,-1
 96 608 l 258,18,19
 64 627 64 627 64 672 c 259,0,1
EndSplineSet
EndChar

StartChar: question
Encoding: 63 63 34
Width: 768
GlyphClass: 2
Flags: W
LayerCount: 2
Fore
SplineSet
64 640 m 259
 64 784 64 784 152 872 c 258
 264 984 l 258
 320 1040 320 1040 320 1120 c 258
 320 1280 l 258
 320 1344 320 1344 384 1344 c 259
 448 1344 448 1344 448 1280 c 258
 448 1120 l 258
 448 976 448 976 360 888 c 258
 248 776 l 258
 192 720 192 720 192 640 c 259
 192 560 192 560 248 504 c 256
 304 448 304 448 384 448 c 259
 464 448 464 448 520 504 c 258
 592 576 l 258
 640 624 640 624 688 576 c 256
 736 528 736 528 688 480 c 258
 616 408 l 258
 528 320 528 320 384 320 c 259
 240 320 240 320 152 408 c 256
 64 496 64 496 64 640 c 259
EndSplineSet
Refer: 17 46 N 1 0 0 1 224 0 2
EndChar

StartChar: at
Encoding: 64 64 35
Width: 2048
GlyphClass: 2
Flags: W
LayerCount: 2
Back
SplineSet
972 622 m 5,0,1
 889 612 889 612 821 542 c 132,-1,2
 753 472 753 472 753 343 c 4,3,4
 753 236 753 236 817 149 c 132,-1,5
 881 62 881 62 1000 62 c 5,6,7
 1097 67 1097 67 1126 229 c 5,8,-1
 1126 705 l 5,9,10
 1072 642 1072 642 972 622 c 5,0,1
1360 29 m 4,11,12
 1297 30 1297 30 1259.5 47 c 132,-1,13
 1222 64 1222 64 1198 101 c 5,14,15
 1169 64 1169 64 1116 36.5 c 132,-1,16
 1063 9 1063 9 983 9 c 4,17,18
 839 9 839 9 726.5 109.5 c 132,-1,19
 614 210 614 210 614 343 c 4,20,21
 615 430 615 430 667 509.5 c 132,-1,22
 719 589 719 589 799.5 624.5 c 132,-1,23
 880 660 880 660 973 674 c 5,24,25
 1040 690 1040 690 1083 716.5 c 132,-1,26
 1126 743 1126 743 1126 791 c 4,27,28
 1124 860 1124 860 1085 916 c 132,-1,29
 1046 972 1046 972 956 972 c 4,30,31
 884 972 884 972 834.5 913 c 132,-1,32
 785 854 785 854 784 788 c 5,33,-1
 739 788 l 5,34,-1
 739 947 l 6,35,36
 739 967 739 967 811 987 c 4,37,38
 884 1007 884 1007 989 1007 c 4,39,40
 1098 1005 1098 1005 1182.5 942.5 c 132,-1,41
 1267 880 1267 880 1267 785 c 6,42,-1
 1267 196 l 6,43,44
 1267 79 1267 79 1361 79 c 5,45,46
 1546 114 1546 114 1628 270.5 c 132,-1,47
 1710 427 1710 427 1710 653 c 5,48,49
 1690 988 1690 988 1478 1193 c 4,50,51
 1281 1381 1281 1381 998 1381 c 4,52,53
 793 1381 793 1381 605.5 1243.5 c 132,-1,54
 418 1106 418 1106 336 888 c 4,55,56
 269 710 269 710 269 527 c 4,57,58
 269 214 269 214 398.5 15.5 c 132,-1,59
 528 -183 528 -183 703.5 -275 c 132,-1,60
 879 -367 879 -367 1022 -367 c 4,61,62
 1296 -367 1296 -367 1597 -159 c 5,63,-1
 1597 -234 l 5,64,65
 1334 -418 1334 -418 1026 -418 c 4,66,67
 786 -418 786 -418 565 -295.5 c 132,-1,68
 344 -173 344 -173 222 46.5 c 132,-1,69
 100 266 100 266 100 508 c 260,70,71
 100 750 100 750 224 972.5 c 132,-1,72
 348 1195 348 1195 569.5 1314.5 c 132,-1,73
 791 1434 791 1434 1026 1434 c 4,74,75
 1388 1434 1388 1434 1635 1204 c 132,-1,76
 1882 974 1882 974 1882 638 c 4,77,78
 1882 368 1882 368 1706 199 c 4,79,80
 1531 31 1531 31 1360 29 c 4,11,12
EndSplineSet
Fore
SplineSet
64 512 m 263,0,1
 64 928 64 928 336 1199 c 260,2,3
 608 1472 608 1472 1024 1472 c 263,4,5
 1440 1472 1440 1472 1712 1200 c 260,6,7
 1984 928 1984 928 1984 512 c 263,8,9
 1984 96 1984 96 1712 -176 c 260,10,11
 1440 -448 1440 -448 1024 -448 c 263,12,13
 703 -448 703 -448 589 -391 c 260,14,15
 531 -362 531 -362 560 -304 c 260,16,17
 589 -246 589 -246 647 -275 c 260,18,19
 738 -320 738 -320 1024 -320 c 263,20,21
 1376 -320 1376 -320 1616 -80 c 260,22,23
 1856 160 1856 160 1856 512 c 263,24,25
 1856 864 1856 864 1616 1104 c 260,26,27
 1376 1344 1376 1344 1024 1344 c 263,28,29
 672 1344 672 1344 432 1104 c 260,30,31
 192 864 192 864 192 512 c 263,32,33
 192 0 192 0 576 0 c 263,34,35
 704 0 704 0 704 128 c 261,36,37
 704 496 704 496 704 864 c 262,38,39
 704 928 704 928 768 928 c 263,40,41
 832 928 832 928 832 864 c 261,42,-1
 832 864 l 261,43,44
 899 960 899 960 1088 960 c 263,45,46
 1176 960 1176 960 1264 911 c 260,47,48
 1325 877 1325 877 1300.72949219 828.278320312 c 260,49,50
 1266 761 1266 761 1218.00878906 791.546875 c 260,51,52
 1154 832 1154 832 1088 832 c 263,53,54
 832 832 832 832 832 600 c 261,55,56
 896 640 896 640 1024 640 c 263,57,58
 1344 640 1344 640 1344 352 c 263,59,60
 1344 64 1344 64 1024 64 c 263,61,62
 912 64 912 64 832 104 c 261,63,64
 800 -128 800 -128 576 -128 c 263,65,66
 64 -128 64 -128 64 512 c 263,0,1
832 352 m 263,67,68
 832 192 832 192 1024 192 c 263,69,70
 1216 192 1216 192 1216 352 c 263,71,72
 1216 512 1216 512 1024 512 c 263,73,74
 832 512 832 512 832 352 c 263,67,68
EndSplineSet
EndChar

StartChar: A
Encoding: 65 65 36
Width: 1024
GlyphClass: 2
Flags: W
LayerCount: 2
Back
SplineSet
626 263 m 4,0,1
 517 332 517 332 477 397 c 4,2,3
 433 468 433 468 422 493 c 4,4,5
 407 530 407 530 419 552 c 4,6,7
 435 582 435 582 612 660 c 4,8,9
 739 716 739 716 793 711 c 4,10,11
 873 705 873 705 949 598 c 4,12,13
 1049 459 1049 459 1033 382 c 4,14,15
 1018 311 1018 311 887 232 c 4,16,17
 779 167 779 167 626 263 c 4,0,1
1145 846 m 4,18,19
 1014 919 1014 919 900 914 c 4,20,21
 833 912 833 912 636 796 c 4,22,23
 403 660 403 660 415 665 c 5,24,25
 375 648 375 648 350 657 c 260,26,27
 325 666 325 666 325 696 c 6,28,-1
 325 972 l 6,29,30
 325 1017 325 1017 488 1126 c 4,31,32
 657 1240 657 1240 753 1240 c 4,33,34
 829 1240 829 1240 1003 1172 c 4,35,36
 1165 1109 1165 1109 1186 1115 c 4,37,38
 1223 1125 1223 1125 1283 1210 c 4,39,40
 1343 1296 1343 1296 1333 1329 c 4,41,42
 1321 1369 1321 1369 1124 1412 c 4,43,44
 915 1457 915 1457 802 1418 c 4,45,46
 705 1384 705 1384 536 1254 c 4,47,48
 366 1123 366 1123 357 1119 c 4,49,50
 326 1108 326 1108 327 1240 c 4,51,52
 327 1280 327 1280 331 1339 c 4,53,54
 334 1396 334 1396 334 1400 c 4,55,56
 334 1425 334 1425 286 1420 c 4,57,58
 244 1415 244 1415 201 1396 c 4,59,60
 162 1378 162 1378 81 1309 c 4,61,62
 -2 1239 -2 1239 4 1226 c 4,63,64
 9 1217 9 1217 50 1248 c 4,65,66
 89 1277 89 1277 89 1266 c 6,67,-1
 89 58 l 6,68,69
 89 17 89 17 134 4 c 4,70,71
 176 -8 176 -8 218 14 c 4,72,73
 357 83 357 83 357 139 c 4,74,75
 357 178 357 178 363 185 c 4,76,77
 373 196 373 196 410 174 c 4,78,79
 781 -42 781 -42 1012 63 c 4,80,81
 1199 147 1199 147 1288 278 c 4,82,83
 1385 420 1385 420 1346 593 c 4,84,85
 1311 753 1311 753 1145 846 c 4,18,19
EndSplineSet
Fore
SplineSet
960 416 m 259,0,1
 960 0 960 0 512 0 c 259,2,3
 288 0 288 0 192 96 c 257,4,5
 192 32 192 32 128 32 c 259,6,7
 64 32 64 32 64 96 c 258,8,-1
 64 1248 l 258,9,10
 64 1312 64 1312 128 1312 c 259,11,12
 192 1312 192 1312 192 1248 c 257,13,14
 288 1344 288 1344 512 1344 c 259,15,16
 719 1344 719 1344 812 1261 c 256,17,18
 860 1218 860 1218 816 1170 c 256,19,20
 773 1123 773 1123 725 1166 c 256,21,22
 669 1216 669 1216 512 1216 c 259,23,24
 192 1216 192 1216 192 928 c 2,25,-1
 192 744 l 257,26,27
 307 832 307 832 512 832 c 259,28,29
 960 832 960 832 960 416 c 259,0,1
832 416 m 259,30,31
 832 704 832 704 512 704 c 259,32,33
 192 704 192 704 192 416 c 263,34,35
 192 128 192 128 512 128 c 259,36,37
 832 128 832 128 832 416 c 259,30,31
EndSplineSet
EndChar

StartChar: B
Encoding: 66 66 37
Width: 1152
GlyphClass: 2
Flags: W
LayerCount: 2
Fore
SplineSet
704 1216 m 257,0,1
 704 672 l 258,2,3
 704 640 704 640 736 640 c 259,4,5
 960 640 960 640 960 928 c 259,6,7
 960 1216 960 1216 704 1216 c 257,0,1
64 672 m 259,8,9
 64 1344 64 1344 704 1344 c 259,10,11
 1088 1344 1088 1344 1088 928 c 259,12,13
 1088 512 1088 512 704 512 c 258,14,-1
 640 512 l 258,15,16
 576 512 576 512 576 576 c 258,17,-1
 576 1206 l 257,18,19
 192 1146 192 1146 192 672 c 259,20,21
 192 448 192 448 338 288 c 256,22,23
 484 128 484 128 704 128 c 259,24,25
 894 128 894 128 992 224 c 256,26,27
 1038 269 1038 269 1082.50976562 224 c 256,28,29
 1128 178 1128 178 1082.50976562 133.490234375 c 256,30,31
 949 0 949 0 704 0 c 259,32,33
 432 0 432 0 248 192 c 256,34,35
 64 384 64 384 64 672 c 259,8,9
EndSplineSet
EndChar

StartChar: C
Encoding: 67 67 38
Width: 1024
GlyphClass: 2
Flags: W
LayerCount: 2
Fore
SplineSet
192 672 m 259,0,1
 192 128 192 128 736 128 c 258,2,-1
 800 128 l 258,3,4
 832 128 832 128 832 160 c 258,5,-1
 832 1184 l 258,6,7
 832 1216 832 1216 800 1216 c 258,8,-1
 736 1216 l 258,9,10
 192 1216 192 1216 192 672 c 259,0,1
64 672 m 259,11,12
 64 1344 64 1344 736 1344 c 258,13,-1
 896 1344 l 258,14,15
 960 1344 960 1344 960 1280 c 266,16,-1
 960 64 l 274,17,18
 960 0 960 0 896 0 c 258,19,-1
 736 0 l 258,20,21
 64 0 64 0 64 672 c 259,11,12
EndSplineSet
EndChar

StartChar: D
Encoding: 68 68 39
Width: 1280
GlyphClass: 2
Flags: W
LayerCount: 2
Back
SplineSet
800 1216 m 263,0,1
 192 1216 192 1216 192 672 c 263,2,3
 192 128 192 128 800 128 c 263,4,5
 832 128 832 128 832 160 c 261,6,7
 832 672 832 672 832 1184 c 261,8,9
 832 1216 832 1216 800 1216 c 263,0,1
960 1280 m 270,10,-1
 960 64 l 278,11,12
 960 0 960 0 896 0 c 263,13,14
 64 0 64 0 64 672 c 263,15,16
 64 1344 64 1344 896 1344 c 263,17,18
 960 1344 960 1344 960 1280 c 270,10,-1
EndSplineSet
Fore
SplineSet
768 1216 m 257,0,1
 667 1216 667 1216 432 864 c 256,2,3
 192 505 192 505 192 448 c 259,4,5
 192 128 192 128 512 128 c 258,6,7
 736 128 l 258,8,9
 768 128 768 128 768 160 c 258,10,11
 768 1216 l 257,0,1
896 1216 m 257,12,13
 896 64 l 258,14,15
 896 0 896 0 832 0 c 258,16,17
 512 0 l 258,18,19
 64 0 64 0 64 448 c 259,20,21
 64 557 64 557 333 947 c 256,22,23
 608 1344 608 1344 768 1344 c 258,24,-1
 896 1344 l 258,25,26
 1216 1344 1216 1344 1216 1024 c 259,27,28
 1216 960 1216 960 1152 960 c 259,29,30
 1088 960 1088 960 1088 1024 c 259,31,32
 1088 1216 1088 1216 896 1216 c 257,12,13
EndSplineSet
EndChar

StartChar: E
Encoding: 69 69 40
Width: 1152
GlyphClass: 2
Flags: W
LayerCount: 2
Fore
SplineSet
928 608 m 258,0,-1
 352 608 l 258,1,2
 288 608 288 608 288 672 c 267,3,4
 288 736 288 736 352 736 c 258,5,6
 928 736 l 258,7,8
 960 736 960 736 960 768 c 259,9,10
 960 1216 960 1216 608 1216 c 259,11,12
 451 1216 451 1216 384 1153 c 256,13,14
 332 1104 332 1104 240 1104 c 259,15,16
 141 1104 141 1104 73 1166 c 256,17,18
 29 1207 29 1207 70 1256 c 256,19,20
 112 1306 112 1306 160 1261 c 256,21,22
 192 1232 192 1232 240 1232 c 259,23,24
 269 1232 269 1232 352 1280 c 256,25,26
 465 1344 465 1344 608 1344 c 259,27,28
 1088 1344 1088 1344 1088 672 c 259,29,30
 1088 0 1088 0 576 0 c 259,31,32
 404 0 404 0 221 115 c 256,33,34
 167 149 167 149 200 203 c 280,35,36
 233 257 233 257 288 224 c 256,37,38
 447 128 447 128 576 128 c 259,39,40
 960 128 960 128 960 576 c 259,41,42
 960 608 960 608 928 608 c 258,0,-1
EndSplineSet
EndChar

StartChar: F
Encoding: 70 70 41
Width: 1024
GlyphClass: 2
Flags: W
LayerCount: 2
Fore
SplineSet
64 64 m 262,0,-1
 64 1152 l 262,1,2
 64 1344 64 1344 416 1344 c 263,3,4
 736 1344 736 1344 960 1120 c 260,5,6
 1008 1072 1008 1072 960 1024 c 260,7,8
 912 976 912 976 864 1024 c 260,9,10
 672 1216 672 1216 416 1216 c 263,11,12
 192 1216 192 1216 192 1152 c 262,13,-1
 192 64 l 262,14,15
 192 0 192 0 128 0 c 279,16,17
 64 0 64 0 64 64 c 262,0,-1
EndSplineSet
EndChar

StartChar: G
Encoding: 71 71 42
Width: 1280
GlyphClass: 2
Flags: W
LayerCount: 2
Fore
SplineSet
864 1216 m 261,0,1
 800 1216 800 1216 800 1216 c 261,2,3
 192 1216 192 1216 192 672 c 260,4,5
 192 128 192 128 800 128 c 261,6,7
 800 128 800 128 864 128 c 261,8,9
 896 128 896 128 896 160 c 262,10,-1
 896 608 l 261,11,-1
 512 608 l 262,12,13
 448 608 448 608 448 672 c 263,14,15
 448 736 448 736 512 736 c 262,16,-1
 896 736 l 261,17,-1
 896 1184 l 262,18,19
 896 1216 896 1216 864 1216 c 261,0,1
960 1344 m 261,20,21
 1024 1344 1024 1344 1024 1280 c 262,22,-1
 1024 736 l 261,23,-1
 1152 736 l 262,24,25
 1216 736 1216 736 1216 672 c 263,26,27
 1216 608 1216 608 1152 608 c 262,28,29
 1152 608 1152 608 1024 608 c 261,30,-1
 1024 64 l 262,31,32
 1024 0 1024 0 960 0 c 261,33,34
 880 0 880 0 800 0 c 261,35,36
 64 0 64 0 64 672 c 260,37,38
 64 1344 64 1344 800 1344 c 261,39,40
 880 1344 880 1344 960 1344 c 261,20,21
EndSplineSet
EndChar

StartChar: H
Encoding: 72 72 43
Width: 1024
GlyphClass: 2
Flags: W
LayerCount: 2
Back
SplineSet
84 1218 m 1,1,2
 101 1208 101 1208 101 1173 c 0,3,4
 101 1155 101 1155 103 677 c 0,5,6
 105 200 105 200 105 135 c 0,7,8
 105 44 105 44 121 23 c 0,9,10
 141 -1 141 -1 210 30 c 0,11,12
 370 103 370 103 372 104 c 0,13,14
 393 122 393 122 397 150 c 0,15,16
 398 161 398 161 398 232 c 0,17,18
 398 270 398 270 396 434 c 0,19,20
 394 597 394 597 394 626 c 0,21,22
 394 684 394 684 397 693 c 0,23,24
 405 717 405 717 447 744 c 0,25,26
 515 794 515 794 582 832 c 24,27,28
 682 889 682 889 784 871 c 0,29,30
 902 850 902 850 978 724 c 0,31,32
 1059 591 1059 591 1020 447 c 0,33,34
 969 263 969 263 768 9 c 0,35,36
 754 -8 754 -8 793 7 c 0,37,38
 831 21 831 21 893 55 c 0,39,40
 1051 142 1051 142 1122 216 c 0,41,42
 1285 386 1285 386 1336 490 c 0,43,44
 1375 570 1375 570 1375 687 c 0,45,46
 1375 784 1375 784 1312 868 c 0,47,48
 1259 938 1259 938 1183 976 c 0,49,50
 1135 1000 1135 1000 1047 1025 c 0,51,52
 977 1045 977 1045 977 1051 c 0,53,54
 977 1053 977 1053 1064 1112 c 0,55,56
 1160 1177 1160 1177 1191 1226 c 0,57,58
 1228 1284 1228 1284 1218 1331 c 0,59,60
 1208 1371 1208 1371 1165 1397 c 0,61,62
 1125 1420 1125 1420 1023 1414 c 0,63,64
 920 1408 920 1408 885 1379 c 0,65,66
 857 1357 857 1357 870 1328 c 0,67,68
 888 1289 888 1289 885 1274 c 0,69,70
 863 1167 863 1167 731 1064 c 0,71,72
 524 902 524 902 442 902 c 0,73,74
 391 902 391 902 377 932 c 0,75,76
 368 953 368 953 368 1029 c 2,77,-1
 368 1313 l 2,78,79
 368 1434 368 1434 280 1432 c 0,80,81
 220 1430 220 1430 48 1300 c 0,82,83
 5 1268 5 1268 2 1257 c 0,84,85
 -2 1245 -2 1245 33 1234 c 0,86,0
 85 1217 85 1217 84 1218 c 1,1,2
EndSplineSet
Fore
SplineSet
1008 -224 m 1281,0,-1
681 824.036132812 m 257,1,2
 960 723 960 723 960 368 c 259,3,4
 960 130 960 130 843 16 c 256,5,6
 797 -29 797 -29 752 16 c 256,7,8
 706 62 706 62 752 107 c 256,9,10
 832 185 832 185 832 368 c 259,11,12
 832 657 832 657 576 719 c 257,13,14
 436.366544485 617.636454515 436.366544485 617.636454515 224 611 c 256,15,16
 192 610 192 610 192 579 c 258,17,-1
 192 64 l 258,18,19
 192 0 192 0 128 0 c 259,20,21
 64 0 64 0 64 64 c 258,22,-1
 64 1280 l 258,23,24
 64 1344 64 1344 128 1344 c 259,25,26
 192 1344 192 1344 192 1280 c 258,27,-1
 192 771 l 258,28,29
 192 738 192 738 224 739 c 256,30,31
 672 753 672 753 672 1281 c 259,32,33
 672 1344 672 1344 736 1344 c 259,34,35
 800 1344 800 1344 800 1281 c 259,36,37
 800 989 800 989 681 824.036132812 c 257,1,2
EndSplineSet
EndChar

StartChar: I
Encoding: 73 73 44
Width: 256
GlyphClass: 2
Flags: W
LayerCount: 2
Fore
SplineSet
64 64 m 258,0,1
 64 0 64 0 128 0 c 259,2,3
 192 0 192 0 192 64 c 258,4,-1
 192 1280 l 258,5,6
 192 1344 192 1344 128 1344 c 259,7,8
 64 1344 64 1344 64 1280 c 258,9,-1
 64 64 l 258,0,1
EndSplineSet
EndChar

StartChar: J
Encoding: 74 74 45
Width: 1024
GlyphClass: 2
Flags: W
LayerCount: 2
Back
SplineSet
111 767 m 260,1,2
 109 489 109 489 109 434 c 4,3,4
 109 336 109 336 174 228 c 4,5,6
 251 98 251 98 377 49 c 4,7,8
 525 -8 525 -8 679 1 c 4,9,10
 851 11 851 11 988 104 c 4,11,12
 1094 175 1094 175 1165 288 c 4,13,14
 1190 328 1190 328 1203 361 c 4,15,16
 1215 391 1215 391 1209 392 c 5,17,18
 1213 391 1213 391 1132 326 c 4,19,20
 1036 249 1036 249 891 221 c 4,21,22
 719 187 719 187 615 203 c 4,23,24
 520 217 520 217 448 279 c 4,25,26
 382 337 382 337 357 383 c 4,27,28
 335 424 335 424 335 480 c 4,29,30
 335 567 335 567 339 580 c 4,31,32
 352 627 352 627 415 627 c 4,33,34
 465 627 465 627 684 630 c 4,35,36
 902 634 902 634 937 634 c 4,37,38
 990 634 990 634 1035 668 c 4,39,40
 1076 698 1076 698 1089 738 c 4,41,42
 1100 772 1100 772 1062 789 c 4,43,44
 1032 803 1032 803 979 803 c 4,45,46
 947 803 947 803 681 809 c 4,47,48
 414 815 414 815 398 815 c 4,49,50
 368 815 368 815 354 838 c 4,51,52
 339 865 339 865 339 928 c 4,53,54
 339 977 339 977 341 1150 c 4,55,56
 344 1324 344 1324 344 1342 c 4,57,58
 344 1388 344 1388 321 1416 c 4,59,60
 292 1452 292 1452 239 1421 c 4,61,62
 75 1327 75 1327 12 1272 c 4,63,64
 -8 1255 -8 1255 14 1234 c 4,65,66
 34 1215 34 1215 67 1208 c 4,67,68
 98 1201 98 1201 106 1180 c 4,69,70
 113 1162 113 1162 113 1099 c 4,71,0
 113 1045 113 1045 111 767 c 260,1,2
EndSplineSet
Fore
SplineSet
854.198242188 287.29296875 m 260,0,1
 898 334 898 334 944 288 c 260,2,3
 988 244 988 244 944.708007812 196.783203125 c 260,4,5
 768 0 768 0 544 0 c 263,6,7
 64 0 64 0 64 480 c 262,8,9
 64 480 64 480 64 1280 c 262,10,11
 64 1344 64 1344 128 1344 c 263,12,13
 192 1344 192 1344 192 1280 c 262,14,-1
 192 800 l 262,15,16
 192 768 192 768 224 768 c 262,17,-1
 672 768 l 262,18,19
 736 768 736 768 736 704 c 263,20,21
 736 640 736 640 672 640 c 262,22,-1
 221 640 l 262,23,24
 192 640 192 640 192 608 c 262,25,26
 192 608 192 608 192 480 c 262,27,28
 192 128 192 128 544 128 c 263,29,30
 707 128 707 128 854.198242188 287.29296875 c 260,0,1
EndSplineSet
EndChar

StartChar: K
Encoding: 75 75 46
Width: 1024
GlyphClass: 2
Flags: W
LayerCount: 2
Back
SplineSet
109 926 m 0,1,2
 112 770 112 770 112 715 c 0,3,4
 112 641 112 641 131 629 c 0,5,6
 148 620 148 620 207 649 c 0,7,8
 250 671 250 671 273 686 c 0,9,10
 300 706 300 706 311 711 c 0,11,12
 341 728 341 728 347 740 c 0,13,14
 355 757 355 757 352 817 c 0,15,16
 346 932 346 932 439 1035 c 0,17,18
 601 1213 601 1213 734 1213 c 0,19,20
 827 1213 827 1213 889 1150 c 0,21,22
 953 1084 953 1084 953 973 c 0,23,24
 953 872 953 872 896 818 c 0,25,26
 857 782 857 782 804 774 c 0,27,28
 760 766 760 766 742 792 c 0,29,30
 722 819 722 819 717 819 c 0,31,32
 699 819 699 819 557 736 c 0,33,34
 521 716 521 716 515 694 c 0,35,36
 511 679 511 679 511 595 c 2,37,-1
 511 305 l 2,38,39
 511 263 511 263 457 193 c 0,40,41
 405 127 405 127 344 85 c 0,42,43
 302 56 302 56 244 34 c 0,44,45
 203 18 203 18 203 10 c 0,46,47
 203 -6 203 -6 316 4 c 0,48,49
 441 15 441 15 526 56 c 0,50,51
 619 101 619 101 667 156 c 0,52,53
 711 206 711 206 734 284 c 0,54,55
 750 341 750 341 750 562 c 0,56,57
 750 587 750 587 809 608 c 0,58,59
 912 645 912 645 974 682 c 0,60,61
 1087 748 1087 748 1155 857 c 0,62,63
 1230 976 1230 976 1227 1109 c 0,64,65
 1224 1247 1224 1247 1103 1346 c 0,66,67
 985 1442 985 1442 846 1433 c 0,68,69
 667 1421 667 1421 423 1217 c 0,70,71
 380 1182 380 1182 368 1184 c 0,72,73
 350 1186 350 1186 352 1246 c 0,74,75
 358 1447 358 1447 269 1400 c 0,76,77
 197 1361 197 1361 44 1246 c 0,78,79
 -1 1212 -1 1212 7 1195 c 0,80,81
 13 1183 13 1183 53 1176 c 0,82,83
 88 1170 88 1170 98 1159 c 0,84,85
 107 1149 107 1149 107 1118 c 0,86,0
 107 1081 107 1081 109 926 c 0,1,2
EndSplineSet
Fore
SplineSet
128 512 m 259,0,1
 64 512 64 512 64 576 c 258,2,-1
 64 1248 l 258,3,4
 64 1312 64 1312 128 1312 c 259,5,6
 192 1312 192 1312 192 1248 c 257,7,8
 304 1344 304 1344 512 1344 c 259,9,10
 960 1344 960 1344 960 896 c 259,11,12
 960 475 960 475 576 456 c 257,13,-1
 576 384 l 258,14,15
 576 0 576 0 192 0 c 259,16,17
 128 0 128 0 128 64 c 259,18,19
 128 128 128 128 192 128 c 259,20,21
 448 128 448 128 448 384 c 258,22,-1
 448 576 l 258,23,24
 448 640 448 640 512 640 c 259,25,26
 574 640 574 640 575 580 c 257,27,28
 832 608 832 608 832 896 c 259,29,30
 832 1216 832 1216 512 1216 c 259,31,32
 192 1216 192 1216 192 896 c 258,33,-1
 192 576 l 258,34,35
 192 512 192 512 128 512 c 259,0,1
EndSplineSet
EndChar

StartChar: L
Encoding: 76 76 47
Width: 1024
GlyphClass: 2
Flags: W
LayerCount: 2
Back
SplineSet
475 671 m 4,1,2
 473 321 473 321 473 289 c 4,3,4
 473 221 473 221 463 200 c 4,5,6
 447 165 447 165 394 165 c 6,7,-1
 171 165 l 6,8,9
 102 165 102 165 59 107 c 6,10,-1
 22 58 l 6,11,12
 -4 25 -4 25 -3 15 c 4,13,14
 -3 0 -3 0 43 0 c 4,15,16
 73 0 73 0 403 4 c 260,17,18
 733 8 733 8 779 8 c 4,19,20
 836 8 836 8 897 42 c 4,21,22
 933 62 933 62 1018 128 c 4,23,24
 1079 176 1079 176 1141 260 c 4,25,26
 1162 289 1162 289 1177 313 c 260,27,28
 1182 322 1182 322 1184 331 c 5,29,30
 1174 322 1174 322 1127 284 c 4,31,32
 1069 237 1069 237 1018 207 c 4,33,34
 929 153 929 153 758 153 c 4,35,36
 731 153 731 153 725 170 c 4,37,38
 721 183 721 183 721 248 c 6,39,-1
 721 1352 l 6,40,41
 721 1411 721 1411 697 1426 c 4,42,43
 670 1443 670 1443 605 1410 c 4,44,45
 425 1320 425 1320 353 1269 c 4,46,47
 327 1252 327 1252 357 1233 c 4,48,49
 365 1229 365 1229 387 1218 c 4,50,51
 407 1209 407 1209 415 1203 c 4,52,53
 449 1179 449 1179 457 1169 c 4,54,55
 477 1141 477 1141 477 1087 c 4,56,0
 477 1022 477 1022 475 671 c 4,1,2
EndSplineSet
Fore
SplineSet
64 64 m 283,0,1
 64 128 64 128 128 128 c 282,2,-1
 448 128 l 257,3,-1
 448 1280 l 258,4,5
 448 1344 448 1344 512 1344 c 283,6,7
 576 1344 576 1344 576 1280 c 258,8,-1
 576 128 l 257,9,10
 720 128 720 128 852 272 c 280,11,12
 896.382747548 319.617252452 896.382747548 319.617252452 944 272 c 280,13,14
 987 229 987 229 943 180 c 256,15,16
 783 0 783 0 576 0 c 282,17,-1
 128 0 l 258,18,19
 64 0 64 0 64 64 c 283,0,1
EndSplineSet
EndChar

StartChar: M
Encoding: 77 77 48
Width: 1792
GlyphClass: 2
Flags: W
LayerCount: 2
Back
SplineSet
1047 247 m 4,1,2
 990 293 990 293 960 354 c 4,3,4
 918 438 918 438 535 1123 c 5,5,6
 601 1208 601 1208 641 1219 c 4,7,8
 698 1234 698 1234 750 1131 c 4,9,10
 798 1035 798 1035 1228 241 c 5,11,12
 1191 203 1191 203 1140 203 c 4,13,0
 1101 203 1101 203 1047 247 c 4,1,2
321 220 m 4,15,16
 247 240 247 240 205 320 c 4,17,18
 170 386 170 386 170 455 c 6,19,-1
 170 1031 l 6,20,21
 173 1119 173 1119 220 1116 c 4,22,23
 266 1114 266 1114 309 1035 c 4,24,25
 363 934 363 934 670 317 c 5,26,27
 636 275 636 275 582 237 c 4,28,14
 491 174 491 174 321 220 c 4,15,16
1686 243 m 4,30,31
 1655 224 1655 224 1627 224 c 4,32,33
 1541 224 1541 224 1396 455 c 4,34,35
 1333 556 1333 556 1154 889 c 4,36,37
 973 1228 973 1228 947 1270 c 4,38,39
 832 1457 832 1457 682 1430 c 4,40,41
 569 1409 569 1409 485 1274 c 5,42,43
 409 1367 409 1367 300 1413 c 4,44,45
 153 1475 153 1475 19 1325 c 4,46,47
 -61 1235 -61 1235 -61 1127 c 6,48,-1
 -61 363 l 6,49,50
 -61 239 -61 239 26 129 c 4,51,52
 120 11 120 11 250 2 c 4,53,54
 463 -13 463 -13 598 98 c 4,55,56
 670 157 670 157 724 258 c 5,57,58
 762 212 762 212 813 140 c 4,59,60
 856 79 856 79 930 46 c 4,61,62
 1016 6 1016 6 1107 27 c 4,63,64
 1237 56 1237 56 1287 157 c 5,65,66
 1317 107 1317 107 1380 69 c 4,67,68
 1432 38 1432 38 1512 49 c 4,69,70
 1601 62 1601 62 1657 123 c 4,71,72
 1709 181 1709 181 1723 226 c 4,73,74
 1728 242 1728 242 1726 253 c 4,75,76
 1725 262 1725 262 1720 262 c 4,77,29
 1718 262 1718 262 1686 243 c 4,30,31
EndSplineSet
Fore
SplineSet
416 1152 m 286,0,-1
 896 192 l 262,1,2
 992 0 992 0 1200 0 c 263,3,4
 1264 0 1264 0 1264 64 c 263,5,6
 1264 128 1264 128 1200 128 c 260,7,8
 1072 128 1072 128 1008 256 c 262,9,-1
 576 1120 l 261,10,11
 624 1216 624 1216 736 1216 c 263,12,13
 839.466666667 1216 839.466666667 1216 872 1152 c 262,14,-1
 1360 192 l 262,15,16
 1458 0 1458 0 1664 0 c 263,17,18
 1728 0 1728 0 1728 64 c 263,19,20
 1728 128 1728 128 1664 128 c 263,21,22
 1536 128 1536 128 1472 256 c 262,23,-1
 992 1216 l 286,24,25
 928 1344 928 1344 736 1344 c 263,26,27
 552 1344 552 1344 512 1240 c 261,28,29
 460 1344 460 1344 272 1344 c 263,30,31
 64 1344 64 1344 64 1152 c 270,32,-1
 64 384 l 278,33,34
 64 0 64 0 448 0 c 263,35,36
 572 0 572 0 688 116 c 260,37,38
 734 162 734 162 688 208 c 260,39,40
 642 254 642 254 596 208 c 260,41,42
 516 128 516 128 448 128 c 279,43,44
 192 128 192 128 192 384 c 286,45,-1
 192 1120 l 262,46,47
 192 1216 192 1216 304 1216 c 263,48,49
 384 1216 384 1216 416 1152 c 286,0,-1
EndSplineSet
EndChar

StartChar: N
Encoding: 78 78 49
Width: 1024
GlyphClass: 2
Flags: W
LayerCount: 2
Back
SplineSet
103 575 m 4,1,2
 101 106 101 106 101 76 c 4,3,4
 101 20 101 20 117 6 c 4,5,6
 136 -10 136 -10 192 15 c 4,7,8
 230 32 230 32 264 44 c 4,9,10
 286 52 286 52 306 63 c 4,11,12
 335 79 335 79 342 93 c 4,13,14
 350 107 350 107 350 146 c 4,15,16
 350 351 350 351 371 356 c 4,17,18
 380 358 380 358 448 296 c 4,19,20
 534 218 534 218 607 177 c 4,21,22
 713 117 713 117 850 107 c 4,23,24
 1000 96 1000 96 1105 155 c 4,25,26
 1223 220 1223 220 1284 352 c 4,27,28
 1350 494 1350 494 1328 670 c 4,29,30
 1308 831 1308 831 1261 915 c 4,31,32
 1251 932 1251 932 1145 1068 c 4,33,34
 1095 1131 1095 1131 1034 1186 c 4,35,36
 991 1225 991 1225 983 1247 c 4,37,38
 976 1269 976 1269 1324 1269 c 4,39,40
 1352 1269 1352 1269 1363 1285 c 4,41,42
 1366 1290 1366 1290 1372 1304 c 4,43,44
 1380 1321 1380 1321 1385 1330 c 4,45,46
 1417 1388 1417 1388 1419 1397 c 4,47,48
 1428 1435 1428 1435 1372 1435 c 6,49,-1
 931 1435 l 6,50,51
 902 1435 902 1435 874 1412 c 4,52,53
 871 1409 871 1409 827 1365 c 4,54,55
 781 1319 781 1319 760 1278 c 4,56,57
 747 1252 747 1252 763 1231 c 4,58,59
 776 1212 776 1212 848 1151 c 4,60,61
 965 1050 965 1050 1001 1001 c 4,62,63
 1085 888 1085 888 1079 740 c 4,64,65
 1072 559 1072 559 993 476 c 4,66,67
 905 383 905 383 721 408 c 4,68,69
 544 432 544 432 447 540 c 4,70,71
 366 630 366 630 363 745 c 4,72,73
 358 876 358 876 358 1348 c 4,74,75
 358 1407 358 1407 328 1427 c 260,76,77
 298 1447 298 1447 249 1417 c 4,78,79
 148 1355 148 1355 22 1282 c 5,80,81
 -13 1253 -13 1253 0 1224 c 4,82,83
 12 1195 12 1195 52 1195 c 4,84,85
 105 1195 105 1195 105 1103 c 4,86,0
 105 1043 105 1043 103 575 c 4,1,2
EndSplineSet
Fore
SplineSet
128 1344 m 287,0,1
 192 1344 192 1344 192 1280 c 262,2,-1
 192 576 l 262,3,4
 192 128 192 128 512 128 c 263,5,6
 832 128 832 128 832 576 c 263,7,8
 832 832 832 832 544 1120 c 260,9,10
 512 1152 512 1152 512 1216 c 263,11,12
 512 1344 512 1344 640 1344 c 262,13,-1
 896 1344 l 262,14,15
 960 1344 960 1344 960 1280 c 263,16,17
 960 1216 960 1216 896 1216 c 262,18,-1
 640 1216 l 261,19,20
 960 896 960 896 960 576 c 263,21,22
 960 0 960 0 512 0 c 263,23,24
 306 0 306 0 192 128 c 261,25,-1
 192 64 l 262,26,27
 192 0 192 0 127 0 c 287,28,29
 64 0 64 0 64 64 c 286,30,-1
 64 1280 l 270,31,32
 64 1344 64 1344 128 1344 c 287,0,1
EndSplineSet
EndChar

StartChar: O
Encoding: 79 79 50
Width: 1024
GlyphClass: 2
Flags: W
LayerCount: 2
Back
SplineSet
421 419 m 4,1,2
 260 576 260 576 242 817 c 4,3,4
 223 1060 223 1060 370 1174 c 4,5,6
 550 1315 550 1315 774 1235 c 4,7,8
 943 1174 943 1174 1061 1034 c 4,9,10
 1178 896 1178 896 1221 670 c 4,11,12
 1273 390 1273 390 1112 257 c 4,13,0
 826 21 826 21 421 419 c 4,1,2
745 1433 m 4,15,16
 493 1402 493 1402 310 1238 c 4,17,18
 73 1025 73 1025 16 765 c 4,19,20
 -49 471 -49 471 157 240 c 4,21,22
 369 4 369 4 647 0 c 4,23,24
 906 -4 906 -4 1159 190 c 4,25,26
 1407 378 1407 378 1440 681 c 4,27,28
 1475 993 1475 993 1257 1242 c 4,29,14
 1056 1471 1056 1471 745 1433 c 4,15,16
EndSplineSet
Fore
SplineSet
192 672 m 263,0,1
 192 128 192 128 512 128 c 263,2,3
 832 128 832 128 832 672 c 263,4,5
 832 1216 832 1216 512 1216 c 263,6,7
 192 1216 192 1216 192 672 c 263,0,1
64 672 m 263,8,9
 64 1344 64 1344 512 1344 c 263,10,11
 960 1344 960 1344 960 672 c 263,12,13
 960 0 960 0 512 0 c 263,14,15
 64 0 64 0 64 672 c 263,8,9
EndSplineSet
EndChar

StartChar: P
Encoding: 80 80 51
Width: 1152
GlyphClass: 2
Flags: W
LayerCount: 2
Back
SplineSet
850 187 m 4,1,2
 835 204 835 204 835 272 c 6,3,-1
 835 736 l 6,4,5
 835 784 835 784 846 803 c 4,6,7
 859 826 859 826 898 832 c 4,8,9
 965 843 965 843 1041 787 c 4,10,11
 1144 711 1144 711 1146 556 c 4,12,13
 1149 399 1149 399 1073 304 c 4,14,15
 1028 247 1028 247 931 196 c 4,16,0
 871 165 871 165 850 187 c 4,1,2
1124 1020 m 4,18,19
 1036 1041 1036 1041 965 1018 c 4,20,21
 772 957 772 957 664 872 c 4,22,23
 626 842 626 842 615 786 c 4,24,25
 609 756 609 756 609 676 c 4,26,27
 609 625 609 625 607 451 c 4,28,29
 605 276 605 276 605 247 c 4,30,31
 605 170 605 170 602 165 c 4,32,33
 586 142 586 142 501 196 c 4,34,35
 402 260 402 260 337 378 c 4,36,37
 271 500 271 500 266 636 c 4,38,39
 260 812 260 812 317 965 c 4,40,41
 376 1124 376 1124 484 1200 c 4,42,43
 611 1291 611 1291 696 1305 c 4,44,45
 785 1320 785 1320 915 1269 c 4,46,47
 1108 1193 1108 1193 1174 1226 c 4,48,49
 1204 1241 1204 1241 1238 1283 c 4,50,51
 1271 1324 1271 1324 1274 1347 c 4,52,53
 1278 1374 1278 1374 1203 1404 c 4,54,55
 1118 1439 1118 1439 1007 1436 c 4,56,57
 535 1424 535 1424 296 1217 c 4,58,59
 124 1069 124 1069 44 818 c 4,60,61
 -41 551 -41 551 40 343 c 4,62,63
 117 147 117 147 360 57 c 4,64,65
 557 -15 557 -15 768 4 c 4,66,67
 959 21 959 21 1146 151 c 4,68,69
 1354 296 1354 296 1404 489 c 4,70,71
 1451 673 1451 673 1405 786 c 4,72,73
 1378 852 1378 852 1284 938 c 4,74,17
 1217 999 1217 999 1124 1020 c 4,18,19
EndSplineSet
Fore
SplineSet
704 128 m 257,0,1
 960 128 960 128 960 416 c 259,2,3
 960 704 960 704 736 704 c 259,4,5
 704 704 704 704 704 672 c 258,6,-1
 704 128 l 257,0,1
64 672 m 259,7,8
 64 960 64 960 248 1152 c 256,9,10
 432 1344 432 1344 704 1344 c 259,11,12
 949 1344 949 1344 1082.50976562 1210.50976562 c 256,13,14
 1128 1166 1128 1166 1082.50976562 1120 c 256,15,16
 1038 1075 1038 1075 992 1120 c 256,17,18
 894 1216 894 1216 704 1216 c 259,19,20
 484 1216 484 1216 338 1056 c 256,21,22
 192 896 192 896 192 672 c 259,23,24
 192 198 192 198 576 138 c 257,25,-1
 576 768 l 258,26,27
 576 832 576 832 640 832 c 258,28,-1
 704 832 l 258,29,30
 1088 832 1088 832 1088 416 c 259,31,32
 1088 0 1088 0 704 0 c 259,33,34
 64 0 64 0 64 672 c 259,7,8
EndSplineSet
EndChar

StartChar: Q
Encoding: 81 81 52
Width: 1024
GlyphClass: 2
Flags: W
LayerCount: 2
Back
SplineSet
892 571 m 260,1,2
 894 199 894 199 894 174 c 4,3,4
 894 106 894 106 901 96 c 4,5,6
 913 79 913 79 973 99 c 4,7,8
 1066 131 1066 131 1082 142 c 4,9,10
 1126 173 1126 173 1126 252 c 4,11,12
 1126 313 1126 313 1130 673 c 260,13,14
 1134 1033 1134 1033 1134 1088 c 4,15,16
 1134 1172 1134 1172 1120 1204 c 260,17,18
 1106 1236 1106 1236 1035 1307 c 4,19,20
 955 1387 955 1387 792 1418 c 4,21,22
 605 1453 605 1453 398 1398 c 4,23,24
 267 1363 267 1363 138 1230 c 4,25,26
 7 1094 7 1094 1 980 c 4,27,28
 -5 871 -5 871 67 767 c 4,29,30
 134 671 134 671 220 641 c 4,31,32
 335 601 335 601 351 587 c 4,33,34
 377 565 377 565 381 488 c 4,35,36
 388 368 388 368 373 300 c 4,37,38
 347 175 347 175 253 124 c 4,39,40
 9 -8 9 -8 9 13 c 5,41,42
 9 -5 9 -5 125 2 c 4,43,44
 247 8 247 8 340 37 c 4,45,46
 435 67 435 67 515 142 c 4,47,48
 589 211 589 211 609 277 c 4,49,50
 624 328 624 328 620 521 c 4,51,52
 619 570 619 570 616 668 c 4,53,54
 613 749 613 749 613 774 c 4,55,56
 613 844 613 844 597 863 c 4,57,58
 583 881 583 881 526 881 c 4,59,60
 500 881 500 881 463 863 c 4,61,62
 430 846 430 846 398 852 c 4,63,64
 329 864 329 864 305 949 c 4,65,66
 282 1031 282 1031 311 1133 c 4,67,68
 339 1232 339 1232 447 1284 c 4,69,70
 553 1335 553 1335 663 1307 c 4,71,72
 764 1281 764 1281 831 1200 c 4,73,74
 890 1127 890 1127 890 1055 c 4,75,0
 890 943 890 943 892 571 c 260,1,2
EndSplineSet
Fore
SplineSet
64 64 m 263,0,1
 64 128 64 128 128 128 c 263,2,3
 448 128 448 128 448 448 c 262,4,-1
 448 456 l 261,5,6
 64 475 64 475 64 896 c 263,7,8
 64 1344 64 1344 512 1344 c 263,9,10
 720 1344 720 1344 832 1248 c 261,11,12
 832 1312 832 1312 896 1312 c 263,13,14
 960 1312 960 1312 960 1248 c 262,15,-1
 960 64 l 262,16,17
 960 0 960 0 896 0 c 263,18,19
 832 0 832 0 832 64 c 262,20,-1
 832 896 l 262,21,22
 832 1216 832 1216 512 1216 c 263,23,24
 192 1216 192 1216 192 896 c 263,25,26
 192 608 192 608 449 580 c 261,27,28
 450 640 450 640 512 640 c 263,29,30
 576 640 576 640 576 576 c 262,31,-1
 576 448 l 262,32,33
 576 0 576 0 128 0 c 263,34,35
 64 0 64 0 64 64 c 263,0,1
EndSplineSet
EndChar

StartChar: R
Encoding: 82 82 53
Width: 1024
GlyphClass: 2
Flags: W
LayerCount: 2
Back
SplineSet
103 567 m 0,1,2
 105 130 105 130 105 92 c 0,3,4
 105 19 105 19 124 5 c 0,5,6
 144 -11 144 -11 203 24 c 0,7,8
 248 50 248 50 268 65 c 0,9,10
 286 79 286 79 301 87 c 0,11,12
 329 103 329 103 334 123 c 0,13,14
 339 140 339 140 339 207 c 2,15,-1
 339 935 l 2,16,17
 339 1025 339 1025 343 1039 c 0,18,19
 353 1075 353 1075 407 1121 c 0,20,21
 628 1307 628 1307 687 1321 c 0,22,23
 783 1344 783 1344 847 1280 c 0,24,25
 915 1213 915 1213 906 1089 c 0,26,27
 898 980 898 980 806 895 c 0,28,29
 778 870 778 870 680 807 c 0,30,31
 636 779 636 779 631 771 c 0,32,33
 616 750 616 750 616 684 c 0,34,35
 616 632 616 632 612 372 c 256,36,37
 608 112 608 112 608 79 c 0,38,39
 608 27 608 27 624 18 c 0,40,41
 638 10 638 10 689 24 c 0,42,43
 755 41 755 41 986 135 c 0,44,45
 1220 230 1220 230 1230 254 c 1,46,47
 1211 236 1211 236 1041 202 c 0,48,49
 859 165 859 165 859 313 c 0,50,51
 859 460 859 460 857 542 c 256,52,53
 855 624 855 624 855 620 c 1,54,55
 855 681 855 681 936 731 c 0,56,57
 1087 824 1087 824 1110 845 c 0,58,59
 1240 964 1240 964 1221 1123 c 0,60,61
 1201 1292 1201 1292 1038 1375 c 0,62,63
 906 1442 906 1442 765 1426 c 0,64,65
 694 1418 694 1418 559 1358 c 0,66,67
 445 1308 445 1308 403 1319 c 0,68,69
 362 1330 362 1330 327 1386 c 0,70,71
 296 1436 296 1436 267 1434 c 0,72,73
 219 1430 219 1430 111 1356 c 0,74,75
 0 1280 0 1280 0 1244 c 0,76,77
 0 1219 0 1219 50 1176 c 0,78,79
 101 1134 101 1134 101 1093 c 0,80,0
 101 1003 101 1003 103 567 c 0,1,2
EndSplineSet
Fore
SplineSet
128 0 m 263,0,1
 64 0 64 0 64 64 c 262,2,-1
 64 1248 l 262,3,4
 64 1312 64 1312 128 1312 c 263,5,6
 192 1312 192 1312 192 1248 c 261,7,8
 304 1344 304 1344 512 1344 c 263,9,10
 960 1344 960 1344 960 896 c 263,11,12
 960 475 960 475 576 456 c 261,13,-1
 576 448 l 262,14,15
 576 128 576 128 896 128 c 263,16,17
 960 128 960 128 960 64 c 263,18,19
 960 0 960 0 896 0 c 263,20,21
 448 0 448 0 448 448 c 262,22,-1
 448 576 l 262,23,24
 448 640 448 640 512 640 c 263,25,26
 574 640 574 640 575 580 c 261,27,28
 832 608 832 608 832 896 c 263,29,30
 832 1216 832 1216 512 1216 c 263,31,32
 192 1216 192 1216 192 896 c 262,33,-1
 192 64 l 262,34,35
 192 0 192 0 128 0 c 263,0,1
EndSplineSet
EndChar

StartChar: S
Encoding: 83 83 54
Width: 1024
GlyphClass: 2
Flags: W
LayerCount: 2
Back
SplineSet
2 564 m 260,1,2
 0 161 0 161 0 121 c 4,3,4
 0 61 0 61 16 54 c 4,5,6
 22 51 22 51 76 58 c 4,7,8
 117 64 117 64 161 88 c 4,9,10
 201 109 201 109 214 130 c 4,11,12
 235 161 235 161 235 230 c 6,13,-1
 235 457 l 6,14,15
 235 494 235 494 245 507 c 4,16,17
 256 525 256 525 311 558 c 4,18,19
 330 569 330 569 386 608 c 4,20,21
 450 651 450 651 483 673 c 4,22,23
 610 754 610 754 659 759 c 4,24,25
 733 767 733 767 806 693 c 4,26,27
 893 604 893 604 890 461 c 4,28,29
 885 252 885 252 761 125 c 4,30,31
 638 -1 638 -1 638 12 c 5,32,33
 638 -5 638 -5 676 2 c 4,34,35
 712 9 712 9 770 35 c 4,36,37
 908 97 908 97 1016 193 c 4,38,39
 1133 296 1133 296 1164 363 c 4,40,41
 1198 435 1198 435 1180 558 c 4,42,43
 1146 780 1146 780 949 868 c 4,44,45
 741 962 741 962 579 868 c 4,46,47
 564 860 564 860 450 789 c 4,48,49
 359 732 359 732 327 717 c 4,50,51
 284 697 284 697 269 708 c 4,52,53
 252 720 252 720 252 780 c 6,54,-1
 252 1045 l 6,55,56
 252 1116 252 1116 319 1171 c 4,57,58
 437 1267 437 1267 550 1267 c 4,59,60
 677 1267 677 1267 840 1141 c 4,61,62
 858 1127 858 1127 896 1096 c 4,63,64
 923 1074 923 1074 936 1065 c 4,65,66
 969 1043 969 1043 1007 1049 c 4,67,68
 1047 1055 1047 1055 1111 1119 c 4,69,70
 1167 1175 1167 1175 1180 1204 c 4,71,72
 1198 1247 1198 1247 1083 1326 c 4,73,74
 1015 1373 1015 1373 871 1407 c 4,75,76
 691 1450 691 1450 546 1423 c 4,77,78
 360 1387 360 1387 193 1279 c 4,79,80
 4 1157 4 1157 4 1032 c 4,81,0
 4 967 4 967 2 564 c 260,1,2
EndSplineSet
Fore
SplineSet
128 0 m 259,0,1
 64 0 64 0 64 64 c 258,2,-1
 64 672 l 258,3,4
 64 1344 64 1344 512 1344 c 259,5,6
 700 1344 700 1344 848 1196 c 256,7,8
 894 1150 894 1150 848 1104 c 256,9,10
 802 1058 802 1058 756 1104 c 256,11,12
 644 1216 644 1216 512 1216 c 259,13,14
 192 1216 192 1216 192 744 c 257,15,16
 304 832 304 832 512 832 c 259,17,18
 960 832 960 832 960 416 c 259,19,20
 960 152 960 152 727.29296875 10.9052734375 c 256,21,22
 673 -22 673 -22 640 32 c 280,23,24
 606 87 606 87 661.4375 120.6640625 c 256,25,26
 832 223 832 223 832 416 c 259,27,28
 832 704 832 704 512 704 c 259,29,30
 192 704 192 704 192 416 c 258,31,-1
 192 64 l 258,32,33
 192 0 192 0 128 0 c 259,0,1
EndSplineSet
EndChar

StartChar: T
Encoding: 84 84 55
Width: 1024
GlyphClass: 2
Flags: W
LayerCount: 2
Back
SplineSet
866 98 m 6,0,1
 866 26 866 26 884 8 c 4,2,3
 901 -9 901 -9 954 10 c 4,4,5
 1035 41 1035 41 1063 63 c 260,6,7
 1091 85 1091 85 1098 111 c 4,8,9
 1102 132 1102 132 1102 211 c 4,10,11
 1102 258 1102 258 1098 678 c 4,12,13
 1094 1099 1094 1099 1094 1168 c 4,14,15
 1094 1260 1094 1260 1013 1320 c 4,16,17
 947 1369 947 1369 805 1409 c 4,18,19
 668 1447 668 1447 498 1421 c 4,20,21
 312 1391 312 1391 185 1295 c 4,22,23
 63 1203 63 1203 3 1140 c 4,24,25
 -46 1089 -46 1089 -38 1077 c 5,26,27
 -41 1087 -41 1087 70 1162 c 4,28,29
 216 1260 216 1260 416 1273 c 4,30,31
 631 1287 631 1287 783 1195 c 4,32,33
 836 1162 836 1162 854 1117 c 4,34,35
 866 1087 866 1087 866 1033 c 6,36,-1
 866 98 l 6,0,1
EndSplineSet
Fore
SplineSet
960 64 m 258,0,-1
 960 1152 l 258,1,2
 960 1344 960 1344 608 1344 c 259,3,4
 288 1344 288 1344 64 1120 c 256,5,6
 16 1072 16 1072 64 1024 c 256,7,8
 112 976 112 976 160 1024 c 256,9,10
 352 1216 352 1216 608 1216 c 259,11,12
 832 1216 832 1216 832 1152 c 258,13,-1
 832 64 l 258,14,15
 832 0 832 0 896 0 c 275,16,17
 960 0 960 0 960 64 c 258,0,-1
EndSplineSet
EndChar

StartChar: U
Encoding: 85 85 56
Width: 1152
GlyphClass: 2
Flags: W
LayerCount: 2
Back
SplineSet
895 174 m 4,1,2
 872 206 872 206 872 296 c 6,3,-1
 872 1081 l 6,4,5
 872 1144 872 1144 888 1167 c 4,6,7
 906 1192 906 1192 961 1195 c 4,8,9
 1044 1200 1044 1200 1136 1111 c 4,10,11
 1258 993 1258 993 1286 773 c 4,12,13
 1313 556 1313 556 1190 374 c 4,14,15
 1111 257 1111 257 990 178 c 4,16,0
 923 134 923 134 895 174 c 4,1,2
1207 1401 m 4,18,19
 1123 1434 1123 1434 1020 1406 c 4,20,21
 935 1383 935 1383 821 1312 c 4,22,23
 720 1250 720 1250 670 1199 c 4,24,25
 631 1161 631 1161 622 1108 c 4,26,27
 619 1090 619 1090 619 1020 c 4,28,29
 619 981 619 981 621 657 c 260,30,31
 623 333 623 333 623 288 c 4,32,33
 623 220 623 220 602 197 c 4,34,35
 580 172 580 172 531 191 c 4,36,37
 421 232 421 232 365 277 c 4,38,39
 252 370 252 370 261 516 c 4,40,41
 269 661 269 661 339 818 c 4,42,43
 363 871 363 871 403 948 c 4,44,45
 457 1048 457 1048 467 1069 c 4,46,47
 532 1198 532 1198 537 1258 c 4,48,49
 542 1322 542 1322 488 1364 c 4,50,51
 405 1428 405 1428 342 1432 c 4,52,53
 278 1436 278 1436 218 1377 c 4,54,55
 121 1279 121 1279 108 1239 c 4,56,57
 95 1196 95 1196 167 1195 c 4,58,59
 179 1195 179 1195 205 1199 c 4,60,61
 234 1203 234 1203 247 1203 c 4,62,63
 296 1205 296 1205 319 1173 c 4,64,65
 333 1154 333 1154 327 1132 c 4,66,67
 322 1114 322 1114 296 1078 c 4,68,69
 187 923 187 923 147 853 c 4,70,71
 25 642 25 642 6 536 c 4,72,73
 -24 374 -24 374 96 237 c 4,74,75
 317 -15 317 -15 763 1 c 4,76,77
 943 8 943 8 1126 129 c 4,78,79
 1319 258 1319 258 1442 469 c 4,80,81
 1685 889 1685 889 1425 1216 c 4,82,17
 1310 1360 1310 1360 1207 1401 c 4,18,19
EndSplineSet
Fore
SplineSet
640 130.993164062 m 261,0,1
 960 162 960 162 960 672 c 263,2,3
 960 1216 960 1216 768 1216 c 263,4,5
 640 1216 640 1216 640 672 c 262,6,7
 640 130.993164062 l 261,0,1
213 1317 m 260,8,9
 243 1373 243 1373 299 1343 c 260,10,11
 354 1314 354 1314 325 1257 c 284,12,13
 192 993 192 993 192 672 c 263,14,15
 192 163 192 163 512 130.993164062 c 261,16,17
 512 672 l 262,18,19
 512 1344 512 1344 768 1344 c 263,20,21
 1088 1344 1088 1344 1088 672 c 263,22,23
 1088 0 1088 0 576 0 c 263,24,25
 64 0 64 0 64 672 c 263,26,27
 64 1039 64 1039 213 1317 c 260,8,9
EndSplineSet
EndChar

StartChar: V
Encoding: 86 86 57
Width: 1152
GlyphClass: 2
Flags: W
LayerCount: 2
Back
SplineSet
143 95 m 6,0,1
 143 15 143 15 178 3 c 4,2,3
 226 -14 226 -14 358 78 c 4,4,5
 805 390 805 390 1375 793 c 5,6,7
 1489 903 1489 903 1499 1039 c 4,8,9
 1508 1173 1508 1173 1415 1293 c 4,10,11
 1324 1410 1324 1410 1228 1431 c 4,12,13
 1136 1453 1136 1453 1016 1389 c 4,14,15
 903 1330 903 1330 765 1226 c 4,16,17
 632 1127 632 1127 639 1113 c 5,18,19
 641 1120 641 1120 785 1178 c 4,20,21
 945 1242 945 1242 1033 1183 c 4,22,23
 1156 1101 1156 1101 1182 996 c 4,24,25
 1212 872 1212 872 1090 753 c 4,26,27
 898 566 898 566 472 275 c 4,28,29
 405 230 405 230 394 247 c 4,30,31
 389 255 389 255 389 350 c 6,32,-1
 389 1284 l 6,33,34
 389 1388 389 1388 370 1418 c 4,35,36
 344 1459 344 1459 266 1420 c 4,37,38
 169 1372 169 1372 25 1275 c 4,39,40
 -20 1245 -20 1245 15 1215 c 4,41,42
 46 1187 46 1187 90 1187 c 4,43,44
 120 1187 120 1187 135 1139 c 4,45,46
 142 1115 142 1115 143 1091 c 6,47,-1
 143 95 l 6,0,1
EndSplineSet
Fore
SplineSet
768 1216 m 279,0,1
 960 1216 960 1216 960 1024 c 263,2,3
 960 929 960 929 928 896 c 262,4,5
 192 128 l 261,6,7
 192 1280 l 262,8,9
 192 1344 192 1344 128 1344 c 287,10,11
 64 1344 64 1344 64 1280 c 262,12,-1
 64 128 l 262,13,14
 64 0 64 0 192 0 c 263,15,16
 257 0 257 0 288 32 c 262,17,-1
 1024 800 l 262,18,19
 1088 867 1088 867 1088 1024 c 263,20,21
 1088 1344 1088 1344 768 1344 c 263,22,23
 644 1344 644 1344 528 1228 c 260,24,25
 482 1182 482 1182 528 1136 c 260,26,27
 574 1090 574 1090 620 1136 c 260,28,29
 700 1216 700 1216 768 1216 c 279,0,1
EndSplineSet
EndChar

StartChar: W
Encoding: 87 87 58
Width: 1664
GlyphClass: 2
Flags: W
LayerCount: 2
Back
SplineSet
-48.3330078125 87 m 6,0,1
 -48.3330078125 15 -48.3330078125 15 -49.3330078125 23 c 5,2,3
 -46.3330078125 -2 -46.3330078125 -2 -30.3330078125 0 c 4,4,5
 2.6669921875 5 2.6669921875 5 187.666992188 166 c 4,6,7
 262.666992188 231 262.666992188 231 410.666992188 348 c 4,8,9
 590.666992188 490 590.666992188 490 647.666992188 537 c 4,10,11
 920.666992188 762 920.666992188 762 973.666992188 882 c 4,12,13
 1028.66699219 1005 1028.66699219 1005 1021.66699219 1102 c 4,14,15
 1018.66699219 1151 1018.66699219 1151 1004.66699219 1175 c 5,16,17
 1035.66699219 1192 1035.66699219 1192 1081.66699219 1198 c 4,18,19
 1172.66699219 1209 1172.66699219 1209 1244.66699219 1149 c 4,20,21
 1362.66699219 1049 1362.66699219 1049 1345.66699219 913 c 4,22,23
 1329.66699219 790 1329.66699219 790 1209.66699219 664 c 4,24,25
 1060.66699219 505 1060.66699219 505 754.666992188 234 c 4,26,27
 501.666992188 8 501.666992188 8 506.666992188 8 c 4,28,29
 529.666992188 8 529.666992188 8 1301.66699219 598 c 4,30,31
 1540.66699219 781 1540.66699219 781 1604.66699219 949 c 4,32,33
 1661.66699219 1099 1661.66699219 1099 1581.66699219 1249 c 4,34,35
 1513.66699219 1376 1513.66699219 1376 1368.66699219 1405 c 4,36,37
 1249.66699219 1429 1249.66699219 1429 1148.66699219 1385 c 4,38,39
 1035.66699219 1335 1035.66699219 1335 956.666992188 1262 c 5,40,41
 925.666992188 1322 925.666992188 1322 872.666992188 1371 c 4,42,43
 765.666992188 1470 765.666992188 1470 650.666992188 1415 c 4,44,45
 467.666992188 1328 467.666992188 1328 235.666992188 1144 c 5,46,47
 368.666992188 1190 368.666992188 1190 496.666992188 1196 c 4,48,49
 752.666992188 1208 752.666992188 1208 724.666992188 1009 c 4,50,51
 696.666992188 803 696.666992188 803 542.666992188 617 c 4,52,53
 459.666992188 517 459.666992188 517 314.666992188 402 c 4,54,55
 221.666992188 328 221.666992188 328 213.666992188 330 c 4,56,57
 191.666992188 332 191.666992188 332 191.666992188 467 c 6,58,-1
 191.666992188 1302 l 6,59,60
 191.666992188 1384 191.666992188 1384 172.666992188 1407 c 4,61,62
 147.666992188 1437 147.666992188 1437 78.6669921875 1398 c 4,63,64
 -1.3330078125 1353 -1.3330078125 1353 -133.333007812 1230 c 4,65,66
 -163.333007812 1202 -163.333007812 1202 -139.333007812 1188 c 4,67,68
 -122.333007812 1179 -122.333007812 1179 -87.3330078125 1179 c 4,69,70
 -57.3330078125 1179 -57.3330078125 1179 -48.3330078125 1127 c 5,71,-1
 -48.3330078125 87 l 6,0,1
EndSplineSet
Fore
SplineSet
704 128 m 257,0,-1
 1440 896 l 258,1,2
 1472 929.391304348 1472 929.391304348 1472 1024 c 259,3,4
 1472 1216 1472 1216 1280 1216 c 259,5,6
 1211 1216 1211 1216 1084.31445312 1089 c 257,7,8
 1088 1058 1088 1058 1088 1024 c 259,9,10
 1088 867 1088 867 1024 800 c 258,11,-1
 704 466 l 281,12,-1
 704 128 l 257,0,-1
192 0 m 259,13,14
 64 0 64 0 64 128 c 258,15,-1
 64 1280 l 258,16,17
 64 1344 64 1344 128 1344 c 283,18,19
 192 1344 192 1344 192 1280 c 258,20,-1
 192 128 l 257,21,-1
 928 896 l 258,22,23
 960 929.391304348 960 929.391304348 960 1024 c 259,24,25
 960 1216 960 1216 768 1216 c 267,26,27
 700 1216 700 1216 620 1136 c 256,28,29
 574 1090 574 1090 528 1136 c 256,30,31
 482 1182 482 1182 528 1228 c 256,32,33
 644 1344 644 1344 768 1344 c 259,34,35
 962 1344 962 1344 1038 1226.98242188 c 257,36,37
 1155 1344 1155 1344 1280 1344 c 259,38,39
 1600 1344 1600 1344 1600 1024 c 259,40,41
 1600 867 1600 867 1536 800 c 258,42,-1
 800 32 l 258,43,44
 769 -0 769 -0 704 0 c 259,45,46
 576 0 576 0 576 128 c 258,47,-1
 576 333 l 257,48,-1
 288 32 l 258,49,50
 257.382059801 5.68434188608e-14 257.382059801 5.68434188608e-14 192 0 c 259,13,14
576 333 m 1281,51,-1
EndSplineSet
EndChar

StartChar: X
Encoding: 88 88 59
Width: 1024
GlyphClass: 2
Flags: WO
LayerCount: 2
Back
SplineSet
112 1392 m 5,0,-1
 1008 48 l 1029,1,-1
16 1296 m 5,0,-1
 912 -48 l 1029,1,-1
160 672 m 5,2,-1
 928 672 l 1029
224 288 m 260,17,18
 960 1024 l 1284,9,-1
128 384 m 260,25,-1
 864 1120 l 1284,1,2
64 1344 m 5,0,-1
 960 0 l 1029,1,-1
EndSplineSet
Fore
SplineSet
522 778 m 257,0,-1
 672 928 l 258,1,2
 832 1088 832 1088 832 1280 c 259,3,4
 832 1344 832 1344 896 1344 c 287,5,6
 960 1344 960 1344 960 1280 c 259,7,8
 960 1024 960 1024 768 832 c 258,9,-1
 598 662 l 257,10,-1
 960 120 l 258,11,12
 993.276230869 70.1775769869 993.276230869 70.1775769869 937 34 c 256,13,14
 881.278217249 -1.82114605441 881.278217249 -1.82114605441 848 48 c 258,15,-1
 502 566 l 257,16,-1
 352 416 l 258,17,18
 192 256 192 256 192 64 c 259,19,20
 192 0 192 0 128 0 c 283,21,22
 64 0 64 0 64 64 c 259,23,24
 64 320 64 320 256 512 c 258,25,-1
 426 682 l 257,26,-1
 64 1224 l 258,27,28
 30 1275 30 1275 86 1311 c 256,29,30
 141.954080648 1346.97048042 141.954080648 1346.97048042 176 1296 c 258,31,-1
 522 778 l 257,0,-1
EndSplineSet
EndChar

StartChar: Y
Encoding: 89 89 60
Width: 896
GlyphClass: 2
Flags: W
LayerCount: 2
Back
SplineSet
112 343 m 6,0,1
 112 247 112 247 73 149 c 4,2,3
 34 54 34 54 30 36 c 260,4,5
 26 18 26 18 41 3 c 4,6,7
 58 -13 58 -13 197 61 c 4,8,9
 339 138 339 138 362 185 c 4,10,11
 371 204 371 204 382 246 c 4,12,13
 398 305 398 305 403 322 c 4,14,15
 434 420 434 420 492 469 c 4,16,17
 624 582 624 582 909 776 c 4,18,19
 1148 937 1148 937 1196 996 c 4,20,21
 1230 1037 1230 1037 1233 1108 c 4,22,23
 1236 1174 1236 1174 1211 1243 c 4,24,25
 1185 1313 1185 1313 1139 1357 c 4,26,27
 1089 1405 1089 1405 1030 1407 c 4,28,29
 924 1409 924 1409 789 1334 c 4,30,31
 761 1318 761 1318 607 1213 c 4,32,33
 583 1197 583 1197 608 1205 c 4,34,35
 668 1226 668 1226 703 1234 c 4,36,37
 882 1276 882 1276 951 1181 c 4,38,39
 1013 1095 1013 1095 920 972 c 4,40,41
 862 895 862 895 686 747 c 4,42,43
 474 569 474 569 439 551 c 4,44,45
 391 526 391 526 369 546 c 4,46,47
 344 568 344 568 346 648 c 4,48,49
 350 869 350 869 350 1326 c 4,50,51
 350 1412 350 1412 322 1429 c 260,52,53
 294 1446 294 1446 223 1401 c 4,54,55
 191 1382 191 1382 18 1251 c 4,56,57
 -14 1227 -14 1227 11 1216 c 4,58,59
 29 1208 29 1208 69 1208 c 4,60,61
 108 1208 108 1208 112 1148 c 5,62,-1
 112 343 l 6,0,1
EndSplineSet
Fore
SplineSet
192 565 m 1,0,-1
 640 864 l 258,1,2
 704 907 704 907 704 1024 c 259,3,4
 704 1216 704 1216 512 1216 c 259,5,6
 448 1216 448 1216 448 1280 c 259,7,8
 448 1344 448 1344 512 1344 c 259,9,10
 832 1344 832 1344 832 1024 c 259,11,12
 832 821.5 832 821.5 704 736 c 258,13,-1
 192 394 l 1,14,-1
 192 64 l 258,15,16
 192 0 192 0 128 0 c 259,17,18
 64 0 64 0 64 64 c 258,19,-1
 64 1280 l 258,20,21
 64 1344 64 1344 128 1344 c 287,22,23
 192 1344 192 1344 192 1280 c 258,24,-1
 192 565 l 1,0,-1
EndSplineSet
EndChar

StartChar: Z
Encoding: 90 90 61
Width: 1408
GlyphClass: 2
Flags: W
LayerCount: 2
Back
SplineSet
464 0 m 261,3,-1
 1232 1344 l 1285,4,-1
608 0 m 261,3,-1
 1376 1344 l 1285,4,-1
640 704 m 261,0,1
 1024 704 1024 704 1024 256 c 1285,2,-1
736 352 m 261,7,-1
 736 0 736 0 384 0 c 261,5,6
 64 0 64 0 64 320 c 1293
640 832 m 261,0,1
 1152 832 1152 832 1152 256 c 1285,2,-1
608 0 m 261,3,-1
 1376 1344 l 1285,4,-1
608 352 m 261,7,-1
 608 128 608 128 384 128 c 261,5,6
 192 128 192 128 192 320 c 1293
EndSplineSet
Fore
SplineSet
842 661 m 257,0,1
 758 704 758 704 640 704 c 259,2,3
 192 704 192 704 192 320 c 259,4,5
 192 128 192 128 384 128 c 259,6,7
 530.584269663 128 530.584269663 128 582 216 c 258,8,-1
 842 661 l 257,0,1
908 777 m 257,9,-1
 1159 1216 l 257,10,-1
 384 1216 l 258,11,12
 320 1216 320 1216 320 1280 c 283,13,14
 320 1344 320 1344 384 1344 c 258,15,-1
 1312 1344 l 258,16,17
 1344 1344 1344 1344 1344 1312 c 259,18,19
 1344 1288.05298013 1344 1288.05298013 1312 1232 c 258,20,-1
 1010 703 l 257,21,22
 1152 560 1152 560 1152 256 c 258,23,-1
 1152 64 l 258,24,25
 1152 0 1152 0 1088 0 c 259,26,27
 1024 0 1024 0 1024 64 c 258,28,-1
 1024 256 l 258,29,30
 1024 466 1024 466 939 579 c 257,31,-1
 688 140 l 258,32,33
 608 0 608 0 384 0 c 259,34,35
 64 0 64 0 64 320 c 259,36,37
 64 832 64 832 640 832 c 259,38,39
 798 832 798 832 908 777 c 257,9,-1
EndSplineSet
EndChar

StartChar: asciicircum
Encoding: 94 94 62
Width: 672
GlyphClass: 2
Flags: W
LayerCount: 2
Back
SplineSet
221 1079 m 5,0,-1
 453 1434 l 5,1,-1
 571 1434 l 5,2,-1
 803 1079 l 5,3,-1
 745 1079 l 5,4,-1
 512 1295 l 5,5,-1
 279 1079 l 5,6,-1
 221 1079 l 5,0,-1
EndSplineSet
Fore
SplineSet
80 1264 m 258,0,-1
 208 1456 l 258,1,2
 261 1536 261 1536 320 1536 c 258,3,-1
 352 1536 l 258,4,5
 411 1536 411 1536 464 1456 c 258,6,-1
 592 1264 l 258,7,8
 624 1216 624 1216 592 1216 c 259,9,10
 560 1216 560 1216 528 1248 c 258,11,-1
 368 1408 l 258,12,13
 344 1432 344 1432 336 1432 c 259,14,15
 328 1432 328 1432 304 1408 c 258,16,-1
 144 1248 l 258,17,18
 112 1216 112 1216 80 1216 c 259,19,20
 48 1216 48 1216 80 1264 c 258,0,-1
EndSplineSet
EndChar

StartChar: underscore
Encoding: 95 95 63
Width: 1024
GlyphClass: 2
Flags: W
LayerCount: 2
Fore
SplineSet
0 0 m 258,0,1
 1024 0 l 258,2,3
 1088 0 1088 0 1088 -64 c 259,4,5
 1088 -128 1088 -128 1024 -128 c 258,6,7
 0 -128 l 258,8,9
 -64 -128 -64 -128 -64 -64 c 259,10,11
 -64 0 -64 0 0 0 c 258,0,1
EndSplineSet
EndChar

StartChar: grave
Encoding: 96 96 64
Width: 1024
GlyphClass: 2
Flags: W
LayerCount: 2
Fore
SplineSet
640 1120 m 258,0,1
 653 1107 653 1107 640 1092 c 0,2,3
 627.808118081 1077.19557196 627.808118081 1077.19557196 608 1088 c 258,4,-1
 256 1280 l 258,5,6
 186 1318 186 1318 240 1392 c 256,7,8
 294.961263798 1465.0387362 294.961263798 1465.0387362 352 1408 c 258,9,-1
 640 1120 l 258,0,1
EndSplineSet
EndChar

StartChar: a
Encoding: 97 97 65
Width: 768
GlyphClass: 2
Flags: W
LayerCount: 2
Back
SplineSet
544 169 m 4,0,1
 464 219 464 219 435 266 c 4,2,3
 403 318 403 318 395 336 c 4,4,5
 384 363 384 363 392 379 c 4,6,7
 404 401 404 401 533 457 c 4,8,9
 625 498 625 498 665 495 c 4,10,11
 723 490 723 490 779 412 c 4,12,13
 851 311 851 311 839 255 c 4,14,15
 829 204 829 204 733 146 c 4,16,17
 655 98 655 98 544 169 c 4,0,1
921 592 m 4,18,19
 826 646 826 646 743 642 c 4,20,21
 694 640 694 640 550 556 c 4,22,23
 381 457 381 457 389 461 c 5,24,25
 360 449 360 449 342 455 c 4,26,27
 325 461 325 461 325 483 c 6,28,-1
 325 685 l 6,29,30
 325 717 325 717 443 796 c 4,31,32
 566 879 566 879 636 879 c 4,33,34
 691 879 691 879 818 830 c 4,35,36
 936 784 936 784 951 788 c 4,37,38
 978 796 978 796 1021 858 c 4,39,40
 1065 920 1065 920 1058 944 c 4,41,42
 1049 973 1049 973 906 1004 c 4,43,44
 753 1038 753 1038 672 1009 c 4,45,46
 601 984 601 984 478 889 c 4,47,48
 354 794 354 794 347 792 c 4,49,50
 325 783 325 783 326 879 c 4,51,52
 326 908 326 908 329 951 c 4,53,54
 331 993 331 993 331 996 c 4,55,56
 331 1014 331 1014 296 1010 c 4,57,58
 265 1007 265 1007 234 993 c 4,59,60
 206 980 206 980 147 930 c 4,61,62
 86 879 86 879 91 869 c 4,63,64
 94 863 94 863 124 885 c 4,65,66
 152 906 152 906 153 899 c 4,67,68
 153 875 153 875 153 126 c 6,69,-1
 153 117 l 5,70,71
 149 -104 149 -104 0 -307 c 5,72,73
 301 -89 301 -89 316 12 c 4,74,75
 327 83 327 83 342 103 c 4,76,77
 357 121 357 121 386 104 c 4,78,79
 656 -53 656 -53 824 23 c 4,80,81
 960 84 960 84 1025 179 c 4,82,83
 1095 283 1095 283 1067 409 c 4,84,85
 1042 525 1042 525 921 592 c 4,18,19
EndSplineSet
Fore
SplineSet
64 40 m 262,0,-1
 64 736 l 258,1,2
 64 800 64 800 128 800 c 259,3,4
 192 800 192 800 192 736 c 257,5,-1
 192 736 l 257,6,7
 320 832 320 832 448 832 c 259,8,9
 535 832 535 832 624 783 c 256,10,11
 685 749 685 749 660.729492188 700.278320312 c 256,12,13
 626 633 626 633 578.008789062 663.546875 c 256,14,15
 514 704 514 704 448 704 c 259,16,17
 192 704 192 704 192 504 c 257,18,19
 256 544 256 544 384 544 c 259,20,21
 704 544 704 544 704 272 c 259,22,23
 704 0 704 0 384 0 c 259,24,25
 256 0 256 0 192 40 c 257,26,27
 192 -24 192 -24 128 -24 c 259,28,29
 64 -24 64 -24 64 40 c 262,0,-1
576 272 m 259,30,31
 576 416 576 416 384 416 c 259,32,33
 192 416 192 416 192 272 c 259,34,35
 192 128 192 128 384 128 c 259,36,37
 576 128 576 128 576 272 c 259,30,31
EndSplineSet
EndChar

StartChar: b
Encoding: 98 98 66
Width: 1024
GlyphClass: 2
Flags: W
LayerCount: 2
Back
SplineSet
702 904 m 4,0,1
 791 834 791 834 794 733 c 4,2,3
 801 527 801 527 643 453 c 4,4,5
 597 431 597 431 591 436 c 4,6,7
 584 442 584 442 584 510 c 4,8,9
 584 519 584 519 584 700 c 6,10,-1
 584 894 l 6,11,12
 584 937 584 937 588 950 c 4,13,14
 590 958 590 958 598 958 c 4,15,16
 637 955 637 955 702 904 c 4,0,1
411 404 m 6,17,18
 411 360 411 360 431 342 c 4,19,20
 456 317 456 317 524 321 c 4,21,22
 618 327 618 327 733 389 c 4,23,24
 876 467 876 467 932 582 c 4,25,26
 990 702 990 702 953 823 c 4,27,28
 921 929 921 929 834 990 c 4,29,30
 755 1047 755 1047 584 1016 c 5,31,-1
 584 1374 l 6,32,33
 584 1419 584 1419 580 1425 c 4,34,35
 573 1436 573 1436 534 1427 c 4,36,37
 462 1410 462 1410 379 1353 c 4,38,39
 352 1334 352 1334 356 1327 c 4,40,41
 359 1322 359 1322 386 1322 c 4,42,43
 408 1322 408 1322 413 1299 c 4,44,45
 415 1291 415 1291 415 1256 c 4,46,47
 415 1236 415 1236 413 960 c 5,48,49
 331 920 331 920 275 864 c 4,50,51
 -4 587 -4 587 0 357 c 4,52,53
 2 197 2 197 113 90 c 4,54,55
 239 -31 239 -31 435 10 c 4,56,57
 706 68 706 68 914 345 c 4,58,59
 921 353 921 353 904 339 c 4,60,61
 872 311 872 311 842 290 c 4,62,63
 721 202 721 202 601 179 c 4,64,65
 440 148 440 148 353 174 c 4,66,67
 251 205 251 205 216 318 c 4,68,69
 182 426 182 426 218 569 c 4,70,71
 247 685 247 685 301 763 c 4,72,73
 340 820 340 820 368 842 c 4,74,75
 391 861 391 861 400 851 c 4,76,77
 413 838 413 838 411 779 c 6,78,-1
 411 404 l 6,17,18
EndSplineSet
Fore
SplineSet
544 576 m 257,0,1
 544 160 l 258,2,3
 544 128 544 128 576 128 c 259,4,5
 832 128 832 128 832 352 c 259,6,7
 832 576 832 576 544 576 c 257,0,1
544 704 m 256,8,9
 960 704 960 704 960 352 c 259,10,11
 960 0 960 0 544 0 c 258,12,13
 480 0 l 258,14,15
 416 0 416 0 416 64 c 258,16,17
 416 562 l 257,18,19
 192 527 192 527 192 160 c 259,20,21
 192 -256 192 -256 544 -256 c 259,22,23
 693 -256 693 -256 853.490234375 -96 c 256,24,25
 899 -51 899 -51 944 -96 c 256,26,27
 989 -142 989 -142 944 -186.509765625 c 256,28,29
 746 -384 746 -384 544 -384 c 259,30,31
 64 -384 64 -384 64 160 c 259,32,33
 64 626 64 626 416 693 c 257,34,35
 416 890 416 890 416 1088 c 282,36,37
 416 1152 416 1152 480 1152 c 283,38,39
 544 1152 544 1152 544 1088 c 282,40,-1
 544 704 l 256,8,9
EndSplineSet
EndChar

StartChar: c
Encoding: 99 99 67
Width: 768
GlyphClass: 2
Flags: W
LayerCount: 2
Back
SplineSet
954 964 m 6,0,1
 954 1009 954 1009 931 1018 c 4,2,3
 889 1034 889 1034 743 988 c 4,4,5
 501 911 501 911 289 751 c 4,6,7
 0 534 0 534 0 293 c 4,8,9
 0 -20 0 -20 401 -254 c 4,10,11
 531 -330 531 -330 683 -386 c 4,12,13
 801 -428 801 -428 827 -428 c 5,14,15
 720 -399 720 -399 558 -276 c 4,16,17
 263 -53 263 -53 263 293 c 4,18,19
 263 604 263 604 492 780 c 4,20,21
 568 838 568 838 655 870 c 4,22,23
 725 896 725 896 740 890 c 4,24,25
 756 883 756 883 758 836 c 5,26,27
 758 802 758 802 758 757 c 4,28,29
 758 733 758 733 756 440 c 4,30,31
 754 146 754 146 754 126 c 4,32,33
 754 97 754 97 794 98 c 4,34,35
 826 100 826 100 873 119 c 4,36,37
 954 151 954 151 954 182 c 6,38,-1
 954 964 l 6,0,1
EndSplineSet
Fore
SplineSet
576 192 m 258,0,1
 576 432 576 432 576 672 c 258,2,3
 576 704 576 704 544 704 c 259,4,5
 192 704 192 704 192 256 c 259,6,7
 192 -192 192 -192 544 -192 c 259,8,9
 608 -192 608 -192 608 -256 c 259,10,11
 608 -320 608 -320 544 -320 c 259,12,13
 64 -320 64 -320 64 256 c 259,14,15
 64 832 64 832 640 832 c 259,16,17
 704 832 704 832 704 768 c 258,18,-1
 704 192 l 258,19,20
 704 128 704 128 640 128 c 259,21,22
 576 128 576 128 576 192 c 258,0,1
EndSplineSet
EndChar

StartChar: d
Encoding: 100 100 68
Width: 1024
GlyphClass: 2
Flags: W
LayerCount: 2
Back
SplineSet
309 179 m 4,1,2
 227 219 227 219 206 287 c 4,3,4
 156 455 156 455 279 622 c 4,5,6
 355 724 355 724 416 772 c 4,7,8
 473 817 473 817 490 805 c 4,9,10
 501 797 501 797 501 740 c 6,11,-1
 501 254 l 6,12,13
 501 175 501 175 500 169 c 4,14,15
 492 145 492 145 446 145 c 4,16,0
 376 146 376 146 309 179 c 4,1,2
894 955 m 4,18,19
 775 1036 775 1036 705 1030 c 4,20,21
 683 1029 683 1029 652 1014 c 5,22,-1
 652 1382 l 6,23,24
 652 1422 652 1422 646 1431 c 4,25,26
 637 1445 637 1445 606 1429 c 4,27,28
 476 1360 476 1360 476 1359 c 4,29,30
 450 1341 450 1341 452 1333 c 4,31,32
 454 1328 454 1328 476 1325 c 4,33,34
 493 1323 493 1323 500 1290 c 4,35,36
 505 1264 505 1264 505 1199 c 4,37,38
 505 1149 505 1149 503 919 c 5,39,40
 385 836 385 836 324 784 c 4,41,42
 29 535 29 535 3 370 c 4,43,44
 -23 207 -23 207 156 78 c 4,45,46
 321 -41 321 -41 549 21 c 4,47,48
 654 49 654 49 654 148 c 4,49,50
 654 154 654 154 652 731 c 6,51,-1
 652 852 l 5,52,53
 656 938 656 938 717 944 c 4,54,55
 742 947 742 947 778 912 c 4,56,57
 813 877 813 877 827 836 c 4,58,59
 893 646 893 646 901 639 c 4,60,61
 935 605 935 605 995 646 c 4,62,63
 1021 663 1021 663 1026 719 c 4,64,65
 1031 769 1031 769 1020 824 c 4,66,17
 1009 876 1009 876 894 955 c 4,18,19
EndSplineSet
Fore
SplineSet
704 832 m 257,0,1
 960 832 960 832 960 576 c 259,2,3
 960 512 960 512 896 512 c 259,4,5
 832 512 832 512 832 576 c 259,6,7
 832 704 832 704 704 704 c 257,8,9
 704 64 l 258,10,11
 704 0 704 0 640 0 c 258,12,13
 384 0 l 258,14,15
 64 0 64 0 64 320 c 259,16,17
 64 438 64 438 261 635 c 256,18,19
 458 832 458 832 576 832 c 257,20,21
 576 1088 l 262,22,23
 576 1152 576 1152 640 1152 c 263,24,25
 704 1152 704 1152 704 1088 c 262,26,27
 704 832 l 257,0,1
576 704 m 257,28,29
 512 704 512 704 352 544 c 256,30,31
 192 384 192 384 192 320 c 259,32,33
 192 128 192 128 384 128 c 258,34,35
 544 128 l 258,36,37
 576 128 576 128 576 160 c 258,38,39
 576 704 l 257,28,29
EndSplineSet
EndChar

StartChar: e
Encoding: 101 101 69
Width: 768
GlyphClass: 2
Flags: W
LayerCount: 2
Back
SplineSet
560 22 m 4,1,2
 707 64 707 64 859 223 c 4,3,4
 971 339 971 339 962 536 c 4,5,6
 954 717 954 717 859 844 c 4,7,8
 723 1025 723 1025 443 1026 c 4,9,10
 298 1027 298 1027 135 921 c 4,11,12
 53 868 53 868 0 815 c 5,13,14
 154 903 154 903 204 924 c 4,15,16
 261 949 261 949 351 964 c 4,17,18
 539 995 539 995 647 863 c 4,19,20
 705 792 705 792 699 709 c 4,21,22
 694 641 694 641 667 626 c 4,23,24
 653 618 653 618 442 618 c 4,25,26
 378 618 378 618 282 619 c 260,27,28
 186 620 186 620 176 620 c 4,29,30
 123 620 123 620 79 563 c 4,31,32
 62 542 62 542 55 522 c 4,33,34
 48 503 48 503 55 498 c 4,35,36
 70 489 70 489 108 498 c 4,37,38
 163 511 163 511 209 511 c 4,39,40
 626 511 626 511 677 481 c 4,41,42
 718 456 718 456 716 392 c 4,43,44
 714 318 714 318 654 210 c 4,45,46
 594 101 594 101 416 38 c 4,47,48
 368 22 368 22 311 8 c 4,49,50
 277 0 277 0 287 0 c 4,51,0
 482 -1 482 -1 560 22 c 4,1,2
EndSplineSet
Fore
SplineSet
288 64 m 259,0,1
 288 128 288 128 352 128 c 259,2,3
 576 128 576 128 576 320 c 259,4,5
 576 352 576 352 544 352 c 258,6,-1
 256 352 l 258,7,8
 192 352 192 352 192 416 c 259,9,10
 192 480 192 480 256 480 c 258,11,-1
 544 480 l 258,12,13
 576 480 576 480 576 512 c 259,14,15
 576 704 576 704 352 704 c 259,16,17
 238 704 238 704 152 651 c 256,18,19
 98 617 98 617 64 672 c 280,20,21
 31 726 31 726 85 760 c 256,22,23
 200 832 200 832 352 832 c 259,24,25
 704 832 704 832 704 416 c 259,26,27
 704 0 704 0 352 0 c 259,28,29
 288 0 288 0 288 64 c 259,0,1
EndSplineSet
EndChar

StartChar: f
Encoding: 102 102 70
Width: 768
GlyphClass: 2
Flags: W
LayerCount: 2
Back
SplineSet
0 699 m 6,0,1
 0 753 0 753 17 784 c 4,2,3
 40 824 40 824 116 887 c 4,4,5
 212 965 212 965 279 992 c 4,6,7
 373 1030 373 1030 509 1023 c 4,8,9
 638 1016 638 1016 778 944 c 4,10,11
 886 888 886 888 922 846 c 4,12,13
 944 819 944 819 946 807 c 4,14,15
 947 795 947 795 932 777 c 4,16,17
 843 674 843 674 792 661 c 5,18,19
 807 665 807 665 662 788 c 4,20,21
 525 904 525 904 382 887 c 4,22,23
 300 877 300 877 248 827 c 4,24,25
 198 779 198 779 198 716 c 6,26,-1
 198 -265 l 6,27,28
 198 -330 198 -330 184 -347 c 4,29,30
 175 -359 175 -359 114 -388 c 4,31,32
 57 -416 57 -416 34 -422 c 4,33,34
 14 -427 14 -427 7 -406 c 4,35,36
 0 -387 0 -387 0 -337 c 6,37,-1
 0 699 l 6,0,1
EndSplineSet
Fore
SplineSet
64 -256 m 262,0,-1
 64 640 l 262,1,2
 64 832 64 832 288 832 c 263,3,4
 544 832 544 832 704 672 c 260,5,6
 752 624 752 624 704 576 c 260,7,8
 656 528 656 528 608 576 c 260,9,10
 480 704 480 704 288 704 c 263,11,12
 192 704 192 704 192 640 c 262,13,-1
 192 -256 l 262,14,15
 192 -320 192 -320 128 -320 c 279,16,17
 64 -320 64 -320 64 -256 c 262,0,-1
EndSplineSet
EndChar

StartChar: g
Encoding: 103 103 71
Width: 1024
GlyphClass: 2
Flags: W
LayerCount: 2
Back
SplineSet
951 533 m 5,1,-1
 951 968 l 6,2,3
 951 1014 951 1014 928 1023 c 4,4,5
 886 1039 886 1039 741 993 c 4,6,7
 499 916 499 916 288 757 c 4,8,9
 0 540 0 540 0 300 c 4,10,11
 0 -12 0 -12 399 -245 c 4,12,13
 529 -321 529 -321 681 -376 c 4,14,15
 799 -419 799 -419 825 -419 c 5,16,17
 715 -388 715 -388 557 -267 c 4,18,19
 262 -43 262 -43 262 300 c 4,20,21
 262 610 262 610 491 785 c 4,22,23
 566 843 566 843 653 875 c 4,24,25
 723 901 723 901 738 895 c 4,26,27
 753 888 753 888 756 842 c 5,28,29
 755 850 755 850 755 762 c 4,30,31
 755 741 755 741 754 532 c 5,32,33
 628 532 628 532 605 534 c 4,34,35
 565 537 565 537 477 441 c 4,36,37
 446 408 446 408 463 398 c 4,38,39
 472 393 472 393 526 392 c 4,40,41
 563 392 563 392 753 392 c 5,42,43
 751 153 751 153 751 133 c 4,44,45
 751 105 751 105 791 106 c 4,46,47
 823 107 823 107 870 126 c 4,48,49
 951 158 951 158 951 189 c 6,50,-1
 951 392 l 5,51,52
 1008 392 1008 392 1034 392 c 4,53,54
 1094 393 1094 393 1120 415 c 4,55,56
 1129 422 1129 422 1145 442 c 4,57,58
 1164 464 1164 464 1178 479 c 4,59,60
 1216 515 1216 515 1197 526 c 4,61,62
 1186 533 1186 533 1135 534 c 4,63,0
 1117 534 1117 534 951 533 c 5,1,-1
EndSplineSet
Fore
SplineSet
608 -320 m 258,0,1
 64 -320 64 -320 64 256 c 259,2,3
 64 832 64 832 608 832 c 258,4,5
 768 832 l 258,6,7
 832 832 832 832 832 768 c 258,8,-1
 832 384 l 257,9,-1
 896 384 l 258,10,11
 960 384 960 384 960 320 c 259,12,13
 960 256 960 256 896 256 c 258,14,15
 832 256 l 257,16,-1
 832 128 l 258,17,18
 832 64 832 64 768 64 c 275,19,20
 704 64 704 64 704 128 c 258,21,-1
 704 256 l 257,22,-1
 448 256 l 258,23,24
 384 256 384 256 384 320 c 259,25,26
 384 384 384 384 448 384 c 258,27,-1
 704 384 l 257,28,-1
 704 672 l 258,29,30
 704 704 704 704 672 704 c 258,31,32
 608 704 l 258,33,34
 192 704 192 704 192 256 c 259,35,36
 192 -192 192 -192 608 -192 c 258,37,38
 672 -192 l 258,39,40
 736 -192 736 -192 736 -256 c 259,41,42
 736 -320 736 -320 672 -320 c 266,43,44
 608 -320 l 258,0,1
EndSplineSet
EndChar

StartChar: h
Encoding: 104 104 72
Width: 768
GlyphClass: 2
Flags: W
LayerCount: 2
Back
SplineSet
26 1292 m 5,1,2
 37 1285 37 1285 37 1262 c 4,3,4
 37 1249 37 1249 39 693 c 4,5,6
 40 137 40 137 40 93 c 4,7,8
 40 30 40 30 52 16 c 4,9,10
 65 -1 65 -1 112 21 c 4,11,12
 222 70 222 70 224 72 c 4,13,14
 238 84 238 84 240 103 c 4,15,16
 242 111 242 111 242 159 c 4,17,18
 242 185 242 185 240 297 c 4,19,20
 239 409 239 409 239 429 c 4,21,22
 239 468 239 468 241 475 c 4,23,24
 246 492 246 492 275 510 c 4,25,26
 373 573 373 573 368 571 c 5,27,28
 441 609 441 609 506 597 c 4,29,30
 587 583 587 583 639 497 c 4,31,32
 695 405 695 405 668 307 c 4,33,34
 633 180 633 180 495 6 c 4,35,36
 486 -5 486 -5 512 5 c 4,37,38
 538 14 538 14 580 38 c 4,39,40
 689 98 689 98 738 148 c 4,41,42
 850 265 850 265 885 336 c 4,43,44
 911 391 911 391 911 471 c 4,45,46
 911 537 911 537 868 595 c 4,47,48
 831 643 831 643 779 669 c 4,49,50
 747 686 747 686 686 703 c 4,51,52
 638 716 638 716 638 720 c 4,53,54
 638 722 638 722 698 763 c 4,55,56
 764 807 764 807 785 841 c 4,57,58
 835 919 835 919 767 958 c 4,59,60
 740 974 740 974 670 970 c 4,61,62
 599 966 599 966 575 946 c 4,63,64
 564 937 564 937 567 934 c 4,65,66
 569 932 569 932 581 932 c 4,67,68
 610 932 610 932 607 917 c 4,69,70
 602 890 602 890 562 832 c 4,71,72
 517 766 517 766 470 729 c 4,73,74
 328 618 328 618 272 618 c 4,75,76
 236 618 236 618 227 639 c 4,77,78
 221 654 221 654 221 705 c 6,79,-1
 221 1358 l 6,80,81
 221 1440 221 1440 161 1439 c 4,82,83
 119 1438 119 1438 1 1349 c 4,84,85
 -28 1326 -28 1326 -30 1319 c 4,86,87
 -33 1311 -33 1311 -9 1303 c 4,88,0
 27 1292 27 1292 26 1292 c 5,1,2
EndSplineSet
Fore
SplineSet
508 673 m 257,0,1
 704 594 704 594 704 320 c 259,2,3
 704 129 704 129 588 16 c 256,4,5
 542 -29 542 -29 497 16 c 256,6,7
 451 62 451 62 497 107 c 256,8,9
 576 184 576 184 576 320 c 259,10,11
 576 547 576 547 374 573 c 257,12,13
 310 548 310 548 224 545 c 256,14,15
 192 544 192 544 192 512 c 258,16,-1
 192 64 l 258,17,18
 192 -0 192 -0 128 0 c 259,19,20
 64 0 64 0 64 64 c 258,21,-1
 64 1088 l 262,22,23
 64 1152 64 1152 128 1152 c 263,24,25
 192 1152 192 1152 192 1088 c 262,26,-1
 192 704 l 258,27,28
 192 672 192 672 224 673 c 256,29,30
 448 686 448 686 448 928 c 259,31,32
 448 992 448 992 512 992 c 259,33,34
 576 992 576 992 576 928 c 259,35,36
 576 767 576 767 508 673 c 257,0,1
EndSplineSet
EndChar

StartChar: i
Encoding: 105 105 73
Width: 256
GlyphClass: 2
Flags: W
LayerCount: 2
Back
SplineSet
96 79 m 6,0,1
 96 26 96 26 107 9 c 4,2,3
 120 -10 120 -10 154 11 c 4,4,5
 216 50 216 50 238 61 c 260,6,7
 260 72 260 72 265 89 c 4,8,9
 269 103 269 103 269 160 c 4,10,11
 269 197 269 197 270 564 c 4,12,13
 272 930 272 930 272 956 c 4,14,15
 272 1008 272 1008 261 1020 c 4,16,17
 245 1039 245 1039 188 1012 c 4,18,19
 33 937 33 937 12 919 c 4,20,21
 -4 905 -4 905 4 889 c 4,22,23
 11 872 11 872 40 863 c 4,24,25
 80 850 80 850 89 831 c 4,26,27
 96 817 96 817 96 765 c 6,28,-1
 96 79 l 6,0,1
EndSplineSet
Fore
SplineSet
64 64 m 262,0,-1
 64 768 l 286,1,2
 64 832 64 832 128 832 c 287,3,4
 192 832 192 832 192 768 c 286,5,-1
 192 64 l 262,6,7
 192 0 192 0 128 0 c 287,8,9
 64 0 64 0 64 64 c 262,0,-1
EndSplineSet
EndChar

StartChar: j
Encoding: 106 106 74
Width: 768
GlyphClass: 2
Flags: W
LayerCount: 2
Back
SplineSet
78 752 m 4,1,2
 77 349 77 349 77 311 c 4,3,4
 77 241 77 241 123 163 c 4,5,6
 179 70 179 70 268 35 c 4,7,8
 374 -6 374 -6 484 1 c 4,9,10
 607 8 607 8 705 74 c 4,11,12
 781 125 781 125 832 206 c 4,13,14
 850 235 850 235 859 258 c 4,15,16
 867 279 867 279 864 281 c 5,17,18
 865 279 865 279 809 233 c 4,19,20
 740 178 740 178 636 158 c 4,21,22
 513 134 513 134 438 145 c 4,23,24
 371 155 371 155 319 200 c 4,25,26
 238 270 238 270 238 343 c 4,27,28
 238 406 238 406 241 415 c 4,29,30
 250 448 250 448 295 448 c 4,31,32
 332 448 332 448 488 451 c 4,33,34
 644 453 644 453 669 453 c 4,35,36
 707 453 707 453 739 478 c 4,37,38
 768 499 768 499 777 528 c 4,39,40
 786 552 786 552 758 564 c 4,41,42
 737 574 737 574 699 574 c 4,43,44
 676 574 676 574 486 579 c 4,45,46
 295 583 295 583 283 583 c 4,47,48
 241 583 241 583 241 663 c 4,49,50
 241 699 241 699 243 1026 c 4,51,52
 244 1354 244 1354 244 1367 c 4,53,54
 244 1400 244 1400 228 1420 c 4,55,56
 207 1445 207 1445 170 1423 c 4,57,58
 53 1356 53 1356 7 1317 c 4,59,60
 -7 1305 -7 1305 9 1289 c 4,61,62
 23 1276 23 1276 46 1271 c 260,63,64
 69 1266 69 1266 75 1251 c 4,65,66
 80 1238 80 1238 80 1193 c 4,67,0
 80 1154 80 1154 78 752 c 4,1,2
EndSplineSet
Fore
SplineSet
598 175 m 256,0,1
 642 222 642 222 688 176 c 256,2,3
 730 134 730 134 689 85 c 256,4,5
 619 0 619 0 416 0 c 259,6,7
 64 0 64 0 64 352 c 258,8,9
 64 1088 l 258,10,11
 64 1152 64 1152 128 1152 c 259,12,13
 192 1152 192 1152 192 1088 c 258,14,-1
 192 608 l 258,15,16
 192 576 192 576 224 576 c 258,17,-1
 544 576 l 258,18,19
 608 576 608 576 608 512 c 259,20,21
 608 448 608 448 544 448 c 258,22,-1
 221 448 l 258,23,24
 192 448 192 448 192 416 c 258,25,26
 192 352 l 258,27,28
 192 128 192 128 416 128 c 259,29,30
 554 128 554 128 598 175 c 256,0,1
EndSplineSet
EndChar

StartChar: k
Encoding: 107 107 75
Width: 896
GlyphClass: 2
Flags: W
LayerCount: 2
Back
SplineSet
119 507 m 4,1,2
 112 446 112 446 82 362 c 4,3,4
 75 341 75 341 78 338 c 260,5,6
 81 335 81 335 103 346 c 4,7,8
 165 376 165 376 231 508 c 4,9,10
 285 616 285 616 355 693 c 4,11,12
 487 839 487 839 597 839 c 4,13,14
 674 839 674 839 724 788 c 4,15,16
 777 733 777 733 777 642 c 4,17,18
 777 560 777 560 730 515 c 4,19,20
 698 486 698 486 654 478 c 4,21,22
 618 472 618 472 603 493 c 4,23,24
 587 516 587 516 583 516 c 4,25,26
 568 516 568 516 452 448 c 4,27,28
 423 431 423 431 418 413 c 4,29,30
 414 401 414 401 414 332 c 4,31,32
 414 194 414 194 353 3 c 4,33,34
 269 -262 269 -262 143 -348 c 4,35,36
 78 -392 78 -392 27 -409 c 5,37,38
 27 -436 27 -436 159 -372 c 4,39,40
 332 -288 332 -288 463 -14 c 4,41,42
 610 295 610 295 610 305 c 4,43,44
 610 325 610 325 659 343 c 4,45,46
 743 373 743 373 794 404 c 4,47,48
 886 458 886 458 942 547 c 4,49,50
 1004 644 1004 644 1001 754 c 4,51,52
 999 867 999 867 900 948 c 4,53,54
 803 1027 803 1027 688 1019 c 4,55,56
 542 1009 542 1009 341 842 c 4,57,58
 307 813 307 813 297 815 c 4,59,60
 282 817 282 817 284 866 c 4,61,62
 288 1031 288 1031 216 992 c 4,63,64
 157 960 157 960 31 866 c 4,65,66
 -6 838 -6 838 0 825 c 4,67,68
 5 815 5 815 39 808 c 4,69,70
 63 804 63 804 69 794 c 4,71,72
 72 790 72 790 75 780 c 4,73,74
 79 768 79 768 83 761 c 4,75,0
 136 649 136 649 119 507 c 4,1,2
EndSplineSet
Fore
SplineSet
96 -256 m 259,0,1
 96 -192 96 -192 160 -192 c 259,2,3
 384 -192 384 -192 384 32 c 258,4,-1
 384 192 l 258,5,6
 384 256 384 256 448 256 c 259,7,8
 509 256 509 256 511 196 c 257,9,10
 704 224 704 224 704 448 c 259,11,12
 704 704 704 704 448 704 c 259,13,14
 192 704 192 704 192 448 c 258,15,-1
 192 192 l 2,16,17
 192 128 192 128 128 128 c 259,18,19
 64 128 64 128 64 192 c 258,20,-1
 64 768 l 258,21,22
 64 832 64 832 128 832 c 259,23,24
 192 832 192 832 192 768 c 2,25,-1
 192 763 l 257,26,27
 285 832 285 832 448 832 c 259,28,29
 832 832 832 832 832 448 c 259,30,31
 832 96 832 96 512 67 c 257,32,-1
 512 32 l 258,33,34
 512 -320 512 -320 160 -320 c 259,35,36
 96 -320 96 -320 96 -256 c 259,0,1
EndSplineSet
EndChar

StartChar: l
Encoding: 108 108 76
Width: 768
GlyphClass: 2
Flags: W
LayerCount: 2
Back
SplineSet
325 1296 m 5,0,1
 378 1318 378 1318 404 1296 c 4,2,3
 431 1273 431 1273 434 1236 c 6,4,-1
 434 142 l 5,5,-1
 936 142 l 5,6,-1
 804 6 l 5,7,-1
 151 6 l 5,8,-1
 208 104 l 5,9,-1
 208 926 l 6,10,11
 207 992 207 992 180 1044 c 4,12,13
 125 1146 125 1146 -7 1073 c 5,14,-1
 325 1296 l 5,0,1
EndSplineSet
Fore
SplineSet
64 64 m 283,0,1
 64 128 64 128 128 128 c 257,2,-1
 128 1088 l 258,3,4
 128 1152 128 1152 192 1152 c 283,5,6
 256 1152 256 1152 256 1088 c 258,7,-1
 256 128 l 1,8,-1
 384 128 l 258,9,10
 521 128 521 128 596 208 c 256,11,12
 640 256 640 256 688 208 c 280,13,14
 731 165 731 165 687 116 c 256,15,16
 586 0 586 0 384 0 c 258,17,-1
 128 0 l 258,18,19
 64 0 64 0 64 64 c 283,0,1
EndSplineSet
EndChar

StartChar: m
Encoding: 109 109 77
Width: 1536
GlyphClass: 2
Flags: W
LayerCount: 2
Back
SplineSet
1295 178 m 4,1,2
 1243 211 1243 211 1215 254 c 4,3,4
 1176 315 1176 315 824 806 c 5,5,6
 885 867 885 867 922 874 c 4,7,8
 974 886 974 886 1022 812 c 4,9,10
 1066 743 1066 743 1463 173 c 5,11,12
 1428 146 1428 146 1381 146 c 4,13,0
 1345 146 1345 146 1295 178 c 4,1,2
627 158 m 4,15,16
 559 172 559 172 520 230 c 4,17,18
 488 277 488 277 488 327 c 6,19,-1
 488 740 l 6,20,21
 491 803 491 803 534 801 c 4,22,23
 576 799 576 799 615 743 c 4,24,25
 666 670 666 670 948 227 c 5,26,27
 917 197 917 197 867 170 c 4,28,14
 784 125 784 125 627 158 c 4,15,16
1884 175 m 4,30,31
 1855 161 1855 161 1830 161 c 4,32,33
 1751 161 1751 161 1617 327 c 4,34,35
 1559 399 1559 399 1394 638 c 4,36,37
 1227 881 1227 881 1203 911 c 4,38,39
 1097 1046 1097 1046 960 1026 c 4,40,41
 855 1011 855 1011 778 914 c 5,42,43
 708 981 708 981 608 1014 c 4,44,45
 472 1058 472 1058 349 951 c 4,46,47
 275 887 275 887 275 809 c 6,48,-1
 275 260 l 6,49,50
 275 171 275 171 355 92 c 4,51,52
 442 8 442 8 561 1 c 4,53,54
 758 -9 758 -9 882 71 c 4,55,56
 948 113 948 113 998 185 c 5,57,58
 1033 152 1033 152 1080 101 c 4,59,60
 1119 57 1119 57 1187 33 c 4,61,62
 1267 5 1267 5 1350 19 c 4,63,64
 1470 40 1470 40 1517 113 c 5,65,66
 1544 77 1544 77 1602 49 c 4,67,68
 1650 27 1650 27 1724 35 c 4,69,70
 1806 44 1806 44 1857 89 c 4,71,72
 1905 130 1905 130 1918 162 c 4,73,74
 1923 174 1923 174 1921 181 c 4,75,76
 1920 188 1920 188 1915 188 c 4,77,29
 1913 188 1913 188 1884 175 c 4,30,31
EndSplineSet
Fore
SplineSet
352 0 m 259,0,1
 64 0 64 0 64 288 c 258,2,-1
 64 640 l 258,3,4
 64 832 64 832 272 832 c 259,5,6
 460 832 460 832 512 728 c 257,7,8
 552 832 552 832 736 832 c 259,9,10
 928 832 928 832 992 704 c 258,11,-1
 1216 256 l 258,12,13
 1280 128 1280 128 1408 128 c 259,14,15
 1472 128 1472 128 1472 64 c 259,16,17
 1472 0 1472 0 1408 0 c 259,18,19
 1203.42857143 1.13686837722e-13 1203.42857143 1.13686837722e-13 1104 192 c 258,20,-1
 872 640 l 258,21,22
 839 704 839 704 736 704 c 259,23,24
 624 704 624 704 576 608 c 257,25,26
 752 256 l 258,27,28
 816 128 816 128 944 128 c 256,29,30
 1008 128 1008 128 1008 64 c 259,31,32
 1008 0 1008 0 944 0 c 259,33,34
 736 0 736 0 640 192 c 258,35,-1
 416 640 l 258,36,37
 384 704 384 704 304 704 c 259,38,39
 192 704 192 704 192 608 c 258,40,-1
 192 288 l 258,41,42
 192 128 192 128 352 128 c 259,43,44
 420 128 420 128 468 176 c 256,45,46
 514 222 514 222 560 176 c 256,47,48
 606 130 606 130 560 84 c 256,49,50
 476 0 476 0 352 0 c 259,0,1
EndSplineSet
EndChar

StartChar: n
Encoding: 110 110 78
Width: 768
GlyphClass: 2
Flags: W
LayerCount: 2
Back
SplineSet
100 410 m 260,1,2
 98 76 98 76 98 54 c 4,3,4
 98 14 98 14 113 5 c 4,5,6
 131 -7 131 -7 183 11 c 4,7,8
 218 23 218 23 249 31 c 4,9,10
 270 37 270 37 288 45 c 4,11,12
 316 57 316 57 322 66 c 4,13,14
 329 76 329 76 329 104 c 4,15,16
 329 251 329 251 349 254 c 4,17,18
 357 255 357 255 421 211 c 4,19,20
 501 156 501 156 569 126 c 4,21,22
 667 83 667 83 794 76 c 4,23,24
 933 68 933 68 1032 110 c 4,25,26
 1141 157 1141 157 1198 251 c 4,27,28
 1259 353 1259 353 1239 478 c 4,29,30
 1220 593 1220 593 1176 653 c 4,31,32
 1167 665 1167 665 1068 762 c 4,33,34
 1022 807 1022 807 965 846 c 4,35,36
 925 873 925 873 918 890 c 4,37,38
 913 901 913 901 1058 904 c 4,39,40
 1095 905 1095 905 1235 905 c 4,41,42
 1261 905 1261 905 1271 916 c 4,43,44
 1274 920 1274 920 1280 930 c 4,45,46
 1287 942 1287 942 1291 949 c 4,47,48
 1322 990 1322 990 1323 997 c 4,49,50
 1332 1024 1332 1024 1279 1024 c 6,51,-1
 869 1024 l 6,52,53
 843 1024 843 1024 817 1007 c 4,54,55
 813 1005 813 1005 773 974 c 4,56,57
 730 941 730 941 711 911 c 4,58,59
 699 893 699 893 713 878 c 4,60,61
 726 864 726 864 792 821 c 4,62,63
 901 749 901 749 935 714 c 4,64,65
 1012 633 1012 633 1007 528 c 4,66,67
 1001 398 1001 398 927 340 c 4,68,69
 845 273 845 273 674 291 c 4,70,71
 509 308 509 308 419 385 c 4,72,73
 345 449 345 449 341 531 c 4,74,75
 337 625 337 625 337 961 c 4,76,77
 337 1004 337 1004 309 1018 c 260,78,79
 281 1032 281 1032 236 1011 c 4,80,81
 21 912 21 912 24 914 c 5,82,83
 -8 894 -8 894 4 873 c 4,84,85
 15 852 15 852 53 852 c 4,86,87
 102 852 102 852 102 787 c 4,88,0
 102 744 102 744 100 410 c 260,1,2
EndSplineSet
Fore
SplineSet
128 832 m 283,0,1
 192 832 192 832 192 768 c 258,2,-1
 192 320 l 258,3,4
 192 128 192 128 384 128 c 259,5,6
 576 128 576 128 576 320 c 259,7,8
 576 448 576 448 416 608 c 256,9,10
 384 640 384 640 384 704 c 259,11,12
 384 832 384 832 512 832 c 258,13,-1
 640 832 l 258,14,15
 704 832 704 832 704 768 c 259,16,17
 704 704 704 704 640 704 c 258,18,-1
 512 704 l 257,19,20
 704 512 704 512 704 320 c 259,21,22
 704 0 704 0 384 0 c 259,23,24
 241 0 241 0 192 48 c 257,25,26
 192 -16 192 -16 128 -16 c 283,27,28
 64 -16 64 -16 64 48 c 258,29,-1
 64 768 l 258,30,31
 64 832 64 832 128 832 c 283,0,1
EndSplineSet
EndChar

StartChar: o
Encoding: 111 111 79
Width: 768
GlyphClass: 2
Flags: W
LayerCount: 2
Fore
SplineSet
192 416 m 259,0,1
 192 128 192 128 384 128 c 259,2,3
 576 128 576 128 576 416 c 259,4,5
 576 704 576 704 384 704 c 259,6,7
 192 704 192 704 192 416 c 259,0,1
64 416 m 259,8,9
 64 832 64 832 384 832 c 263,10,11
 704 832 704 832 704 416 c 259,12,13
 704 0 704 0 384 0 c 259,14,15
 64 0 64 0 64 416 c 259,8,9
EndSplineSet
EndChar

StartChar: p
Encoding: 112 112 80
Width: 896
GlyphClass: 2
Flags: W
LayerCount: 2
Back
SplineSet
627 103 m 4,1,2
 615 115 615 115 615 165 c 6,3,-1
 615 508 l 6,4,5
 615 543 615 543 623 557 c 4,6,7
 633 574 633 574 662 579 c 4,8,9
 711 586 711 586 767 545 c 4,10,11
 843 490 843 490 845 375 c 4,12,13
 847 259 847 259 791 189 c 4,14,15
 757 147 757 147 686 110 c 4,16,0
 641 86 641 86 627 103 c 4,1,2
829 717 m 4,18,19
 764 733 764 733 711 716 c 4,20,21
 569 671 569 671 489 608 c 4,22,23
 461 586 461 586 453 545 c 4,24,25
 449 522 449 522 449 464 c 4,26,27
 449 426 449 426 447 297 c 4,28,29
 446 169 446 169 446 147 c 4,30,31
 446 141 446 141 447 121 c 4,32,33
 447 109 447 109 446 96 c 4,34,35
 444 80 444 80 428 81 c 4,36,37
 410 83 410 83 368 110 c 4,38,39
 295 157 295 157 248 244 c 4,40,41
 199 334 199 334 196 434 c 4,42,43
 191 564 191 564 233 677 c 4,44,45
 277 794 277 794 356 850 c 4,46,47
 450 917 450 917 512 928 c 4,48,49
 578 939 578 939 674 901 c 4,50,51
 817 845 817 845 865 869 c 4,52,53
 888 880 888 880 913 911 c 4,54,55
 937 941 937 941 939 958 c 4,56,57
 942 978 942 978 887 1001 c 4,58,59
 824 1027 824 1027 742 1024 c 4,60,61
 394 1015 394 1015 217 863 c 4,62,63
 91 753 91 753 32 568 c 4,64,65
 -31 371 -31 371 29 218 c 4,66,67
 104 27 104 27 429 -8 c 5,68,69
 401 -184 401 -184 267 -313 c 4,70,71
 230 -348 230 -348 179 -385 c 4,72,73
 142 -412 142 -412 143 -415 c 4,74,75
 146 -423 146 -423 201 -401 c 4,76,77
 265 -376 265 -376 330 -333 c 4,78,79
 522 -204 522 -204 579 -9 c 5,80,81
 724 9 724 9 851 92 c 4,82,83
 1000 188 1000 188 1035 326 c 4,84,85
 1070 461 1070 461 1036 544 c 4,86,87
 1016 593 1016 593 946 657 c 4,88,17
 897 701 897 701 829 717 c 4,18,19
EndSplineSet
Fore
SplineSet
352 8 m 257,0,1
 64 44 64 44 64 416 c 259,2,3
 64 832 64 832 480 832 c 259,4,5
 698 832 698 832 800 731 c 256,6,7
 845 686 845 686 800 640 c 256,8,9
 755 595 755 595 709 640 c 256,10,11
 645 704 645 704 480 704 c 259,12,13
 192 704 192 704 192 416 c 259,14,15
 192 161 192 161 352 142 c 257,16,17
 352 480 l 258,18,19
 352 544 352 544 416 544 c 258,20,-1
 480 544 l 258,21,22
 832 544 832 544 832 272 c 259,23,24
 832 0 832 0 480 0 c 257,25,26
 480 -232 480 -232 189 -377 c 256,27,28
 131 -406 131 -406 103 -349 c 256,29,30
 74 -291 74 -291 131 -263 c 256,31,32
 352 -152 352 -152 352 8 c 257,0,1
480 128 m 257,33,34
 704 128 704 128 704 272 c 259,35,36
 704 416 704 416 512 416 c 259,37,38
 480 416 480 416 480 384 c 258,39,-1
 480 128 l 257,33,34
EndSplineSet
EndChar

StartChar: q
Encoding: 113 113 81
Width: 896
GlyphClass: 2
Flags: W
LayerCount: 2
Back
SplineSet
714 337 m 4,1,2
 715 90 715 90 715 70 c 4,3,4
 715 15 715 15 721 8 c 4,5,6
 730 -6 730 -6 778 10 c 4,7,8
 853 35 853 35 865 44 c 4,9,10
 900 69 900 69 900 133 c 4,11,12
 900 182 900 182 904 419 c 4,13,14
 907 707 907 707 907 751 c 4,15,16
 907 819 907 819 896 844 c 4,17,18
 884 870 884 870 828 926 c 4,19,20
 764 990 764 990 634 1015 c 4,21,22
 484 1043 484 1043 318 999 c 4,23,24
 214 971 214 971 110 864 c 4,25,26
 6 756 6 756 1 665 c 4,27,28
 -4 578 -4 578 54 495 c 4,29,30
 108 418 108 418 176 394 c 4,31,32
 268 361 268 361 281 350 c 4,33,34
 302 333 302 333 305 272 c 4,35,36
 311 162 311 162 295 34 c 4,37,38
 271 -163 271 -163 203 -263 c 4,39,40
 152 -337 152 -337 73 -380 c 4,41,42
 7 -416 7 -416 7 -417 c 5,43,44
 169 -390 169 -390 308 -261 c 4,45,46
 459 -119 459 -119 463 103 c 4,47,48
 467 283 467 283 467 500 c 4,49,50
 467 556 467 556 454 571 c 4,51,52
 442 586 442 586 397 586 c 4,53,54
 376 586 376 586 359 571 c 4,55,56
 344 558 344 558 318 562 c 4,57,58
 263 572 263 572 244 640 c 4,59,60
 226 705 226 705 249 787 c 4,61,62
 271 866 271 866 357 908 c 4,63,64
 442 949 442 949 530 926 c 4,65,66
 611 905 611 905 664 840 c 4,67,68
 712 782 712 782 712 725 c 4,69,0
 712 635 712 635 714 337 c 4,1,2
EndSplineSet
Fore
SplineSet
96 -256 m 263,0,1
 96 -192 96 -192 160 -192 c 263,2,3
 384 -192 384 -192 384 32 c 262,4,-1
 384 67 l 261,5,6
 64 96 64 96 64 448 c 263,7,8
 64 832 64 832 448 832 c 263,9,10
 611 832 611 832 704 763 c 261,11,-1
 704 768 l 6,12,13
 704 832 704 832 768 832 c 263,14,15
 832 832 832 832 832 768 c 262,16,-1
 832 32 l 262,17,18
 832 -32 832 -32 768 -32 c 263,19,20
 704 -32 704 -32 704 32 c 6,21,-1
 704 448 l 262,22,23
 704 704 704 704 448 704 c 263,24,25
 192 704 192 704 192 448 c 263,26,27
 192 224 192 224 385 196 c 261,28,29
 387 256 387 256 448 256 c 263,30,31
 512 256 512 256 512 192 c 262,32,-1
 512 32 l 262,33,34
 512 -320 512 -320 160 -320 c 263,35,36
 96 -320 96 -320 96 -256 c 263,0,1
EndSplineSet
EndChar

StartChar: r
Encoding: 114 114 82
Width: 896
GlyphClass: 2
Flags: W
LayerCount: 2
Back
SplineSet
654 328 m 4,1,2
 655 401 655 401 655 403 c 4,3,4
 655 450 655 450 717 488 c 4,5,6
 833 560 833 560 851 576 c 4,7,8
 950 667 950 667 936 789 c 4,9,10
 921 919 921 919 796 982 c 4,11,12
 694 1034 694 1034 587 1021 c 4,13,14
 532 1015 532 1015 428 969 c 4,15,16
 341 930 341 930 309 939 c 4,17,18
 277 947 277 947 251 990 c 4,19,20
 227 1029 227 1029 205 1027 c 4,21,22
 168 1024 168 1024 85 968 c 4,23,24
 0 910 0 910 0 882 c 4,25,26
 0 862 0 862 39 830 c 4,27,28
 77 797 77 797 77 766 c 4,29,30
 77 697 77 697 79 363 c 4,31,32
 80 108 80 108 80 79 c 4,33,34
 80 23 80 23 95 12 c 4,35,36
 110 0 110 0 156 26 c 4,37,38
 190 46 190 46 205 58 c 4,39,40
 219 69 219 69 231 75 c 4,41,42
 252 87 252 87 256 103 c 4,43,44
 260 115 260 115 260 167 c 6,45,-1
 260 645 l 6,46,47
 260 714 260 714 263 725 c 4,48,49
 270 752 270 752 312 787 c 4,50,51
 482 930 482 930 526 941 c 4,52,53
 600 959 600 959 650 909 c 4,54,55
 701 858 701 858 694 763 c 4,56,57
 684 628 684 628 556 547 c 4,58,59
 523 526 523 526 518 519 c 4,60,61
 507 503 507 503 507 452 c 4,62,63
 507 393 507 393 507 115 c 260,64,65
 507 -163 507 -163 507 -207 c 4,66,67
 507 -287 507 -287 578 -353 c 4,68,69
 663 -430 663 -430 800 -430 c 4,70,71
 914 -430 914 -430 998 -366 c 4,72,73
 1039 -334 1039 -334 1059 -302 c 5,74,75
 1033 -339 1033 -339 987 -365 c 4,76,77
 895 -417 895 -417 794 -361 c 4,78,79
 680 -298 680 -298 656 -102 c 4,80,81
 653 -74 653 -74 653 168 c 4,82,0
 653 254 653 254 654 328 c 4,1,2
EndSplineSet
Fore
SplineSet
128 -32 m 259,0,1
 64 -32 64 -32 64 32 c 258,2,-1
 64 768 l 258,3,4
 64 832 64 832 128 832 c 259,5,6
 192 832 192 832 192 768 c 2,7,-1
 192 763 l 257,8,9
 285 832 285 832 448 832 c 259,10,11
 832 832 832 832 832 448 c 259,12,13
 832 96 832 96 512 67 c 257,14,-1
 512 32 l 258,15,16
 512 -192 512 -192 736 -192 c 259,17,18
 800 -192 800 -192 800 -256 c 259,19,20
 800 -320 800 -320 736 -320 c 259,21,22
 384 -320 384 -320 384 32 c 258,23,-1
 384 192 l 258,24,25
 384 256 384 256 448 256 c 259,26,27
 509 256 509 256 511 196 c 257,28,29
 704 224 704 224 704 448 c 259,30,31
 704 704 704 704 448 704 c 259,32,33
 192 704 192 704 192 448 c 258,34,-1
 192 32 l 2,35,36
 192 -32 192 -32 128 -32 c 259,0,1
EndSplineSet
EndChar

StartChar: s
Encoding: 115 115 83
Width: 768
GlyphClass: 2
Flags: W
LayerCount: 2
Back
SplineSet
-5 387 m 4,1,2
 -7 90 -7 90 -7 60 c 4,3,4
 -7 16 -7 16 7 10 c 4,5,6
 12 8 12 8 61 14 c 4,7,8
 98 18 98 18 137 35 c 4,9,10
 172 51 172 51 184 66 c 4,11,12
 203 90 203 90 203 141 c 6,13,-1
 203 308 l 6,14,15
 203 336 203 336 212 346 c 4,16,17
 222 358 222 358 271 383 c 4,18,19
 562 530 562 530 582 532 c 4,20,21
 648 538 648 538 714 482 c 4,22,23
 791 417 791 417 788 311 c 4,24,25
 784 157 784 157 653 79 c 4,26,27
 523 3 523 3 523 13 c 5,28,29
 523 0 523 0 563 0 c 260,30,31
 603 0 603 0 661 13 c 4,32,33
 808 45 808 45 901 113 c 4,34,35
 1005 190 1005 190 1033 239 c 4,36,37
 1064 292 1064 292 1047 383 c 4,38,39
 1017 547 1017 547 841 612 c 4,40,41
 655 681 655 681 511 612 c 4,42,43
 497 606 497 606 396 554 c 4,44,45
 314 512 314 512 286 501 c 4,46,47
 247 486 247 486 234 494 c 4,48,49
 218 503 218 503 218 547 c 6,50,-1
 218 743 l 6,51,52
 218 774 218 774 233 795 c 4,53,54
 245 814 245 814 278 836 c 4,55,56
 411 926 411 926 505 935 c 4,57,58
 615 946 615 946 673 930 c 4,59,60
 743 911 743 911 784 848 c 4,61,62
 833 771 833 771 837 766 c 4,63,64
 858 742 858 742 893 746 c 260,65,66
 928 750 928 750 986 798 c 4,67,68
 1036 839 1036 839 1047 861 c 4,69,70
 1064 892 1064 892 961 951 c 4,71,72
 900 985 900 985 772 1011 c 4,73,74
 610 1043 610 1043 481 1022 c 4,75,76
 314 996 314 996 166 916 c 4,77,78
 -3 826 -3 826 -3 734 c 4,79,0
 -3 685 -3 685 -5 387 c 4,1,2
EndSplineSet
Fore
SplineSet
474 120 m 256,0,1
 576 176 576 176 576 272 c 259,2,3
 576 416 576 416 384 416 c 259,4,5
 192 416 192 416 192 272 c 258,6,-1
 192 64 l 274,7,8
 192 0 192 0 128 0 c 259,9,10
 64 0 64 0 64 64 c 258,11,-1
 64 736 l 258,12,13
 64 800 64 800 128 800 c 259,14,15
 192 800 192 800 192 736 c 257,16,-1
 192 736 l 257,17,18
 320 832 320 832 448 832 c 259,19,20
 535 832 535 832 624 783 c 256,21,22
 685 749 685 749 661 700 c 256,23,24
 626 633 626 633 578 664 c 256,25,26
 514 704 514 704 448 704 c 259,27,28
 192 704 192 704 192 504 c 257,29,30
 256 544 256 544 384 544 c 259,31,32
 704 544 704 544 704 272 c 259,33,34
 704 98 704 98 536 6 c 256,35,36
 479 -25 479 -25 448 32 c 256,37,38
 417 89 417 89 474 120 c 256,0,1
EndSplineSet
EndChar

StartChar: t
Encoding: 116 116 84
Width: 768
GlyphClass: 2
Flags: W
LayerCount: 2
Back
SplineSet
717 -343 m 6,0,1
 717 -406 717 -406 721 -414 c 4,2,3
 728 -427 728 -427 767 -412 c 5,4,5
 872 -338 872 -338 891 -222 c 4,6,7
 899 -173 899 -173 899 287 c 4,8,9
 899 426 899 426 898 620 c 4,10,11
 897 806 897 806 897 815 c 4,12,13
 897 887 897 887 833 934 c 4,14,15
 781 973 781 973 668 1005 c 4,16,17
 560 1036 560 1036 425 1014 c 4,18,19
 278 991 278 991 177 915 c 4,20,21
 81 842 81 842 33 792 c 4,22,23
 -6 751 -6 751 0 742 c 5,24,25
 -4 749 -4 749 86 809 c 4,26,27
 201 887 201 887 360 898 c 4,28,29
 530 909 530 909 651 835 c 4,30,31
 693 810 693 810 707 774 c 4,32,33
 717 750 717 750 717 707 c 6,34,-1
 717 -343 l 6,0,1
EndSplineSet
Fore
SplineSet
704 -256 m 258,0,-1
 704 640 l 258,1,2
 704 832 704 832 480 832 c 263,3,4
 224 832 224 832 64 672 c 256,5,6
 16 624 16 624 64 576 c 256,7,8
 112 528 112 528 160 576 c 256,9,10
 288 704 288 704 480 704 c 259,11,12
 576 704 576 704 576 640 c 258,13,-1
 576 -256 l 258,14,15
 576 -320 576 -320 640 -320 c 275,16,17
 704 -320 704 -320 704 -256 c 258,0,-1
EndSplineSet
EndChar

StartChar: u
Encoding: 117 117 85
Width: 896
GlyphClass: 2
Flags: W
LayerCount: 2
Back
SplineSet
785 124 m 4,1,2
 765 147 765 147 765 211 c 6,3,-1
 765 771 l 6,4,5
 765 816 765 816 779 832 c 4,6,7
 794 850 794 850 842 852 c 4,8,9
 915 855 915 855 996 792 c 4,10,11
 1103 708 1103 708 1127 551 c 4,12,13
 1151 397 1151 397 1044 267 c 4,14,15
 974 183 974 183 868 127 c 4,16,0
 809 96 809 96 785 124 c 4,1,2
1058 999 m 4,18,19
 984 1023 984 1023 894 1003 c 4,20,21
 720 964 720 964 587 855 c 4,22,23
 554 828 554 828 546 790 c 4,24,25
 543 777 543 777 543 727 c 4,26,27
 543 699 543 699 545 468 c 4,28,29
 546 238 546 238 546 205 c 4,30,31
 546 157 546 157 528 140 c 4,32,33
 509 123 509 123 465 136 c 4,34,35
 369 165 369 165 320 198 c 4,36,37
 221 264 221 264 228 368 c 4,38,39
 235 471 235 471 297 584 c 4,40,41
 318 621 318 621 354 676 c 4,42,43
 401 747 401 747 410 762 c 4,44,45
 466 854 466 854 471 897 c 4,46,47
 476 943 476 943 428 972 c 4,48,49
 355 1018 355 1018 300 1021 c 4,50,51
 243 1024 243 1024 191 981 c 4,52,53
 106 912 106 912 95 883 c 4,54,55
 83 853 83 853 146 852 c 4,56,57
 157 852 157 852 180 855 c 4,58,59
 205 857 205 857 216 858 c 4,60,61
 259 859 259 859 279 836 c 4,62,63
 292 822 292 822 287 807 c 4,64,65
 282 794 282 794 260 769 c 4,66,67
 164 658 164 658 129 608 c 4,68,69
 22 458 22 458 5 382 c 4,70,71
 -21 267 -21 267 84 169 c 4,72,73
 278 -11 278 -11 669 1 c 4,74,75
 827 5 827 5 987 92 c 4,76,77
 1157 184 1157 184 1264 335 c 4,78,79
 1477 634 1477 634 1249 867 c 4,80,17
 1149 970 1149 970 1058 999 c 4,18,19
EndSplineSet
Fore
SplineSet
704 416 m 259,0,1
 704 704 704 704 592 704 c 259,2,3
 512 704 512 704 512 416 c 258,4,-1
 512 130.993164062 l 257,5,6
 704 149 704 149 704 416 c 259,0,1
64 416 m 259,7,8
 64 608 64 608 170 805 c 256,9,10
 200 861 200 861 256 831 c 256,11,12
 311 802 311 802 282 745 c 280,13,14
 192 567 192 567 192 416 c 259,15,16
 192 149 192 149 384 130.993164062 c 257,17,-1
 384 416 l 258,18,19
 384 832 384 832 592 832 c 259,20,21
 832 832 832 832 832 416 c 259,22,23
 832 0 832 0 448 0 c 259,24,25
 64 0 64 0 64 416 c 259,7,8
EndSplineSet
EndChar

StartChar: v
Encoding: 118 118 86
Width: 768
GlyphClass: 2
Flags: W
LayerCount: 2
Back
SplineSet
102 68 m 6,0,1
 102 11 102 11 127 2 c 4,2,3
 162 -10 162 -10 255 55 c 4,4,5
 556 265 556 265 978 564 c 5,6,7
 1059 642 1059 642 1066 739 c 4,8,9
 1073 834 1073 834 1006 919 c 4,10,11
 942 1002 942 1002 874 1018 c 4,12,13
 808 1033 808 1033 723 988 c 4,14,15
 643 946 643 946 544 872 c 4,16,17
 449 801 449 801 454 791 c 5,18,19
 453 795 453 795 558 837 c 4,20,21
 672 883 672 883 735 841 c 4,22,23
 822 783 822 783 841 708 c 4,24,25
 862 620 862 620 776 536 c 4,26,27
 639 402 639 402 336 196 c 4,28,29
 288 163 288 163 280 175 c 4,30,31
 277 181 277 181 277 249 c 6,32,-1
 277 913 l 6,33,34
 277 987 277 987 263 1008 c 4,35,36
 245 1038 245 1038 189 1010 c 4,37,38
 121 975 121 975 18 907 c 4,39,40
 -14 886 -14 886 11 864 c 4,41,42
 33 844 33 844 64 844 c 4,43,44
 86 844 86 844 96 810 c 4,45,46
 101 793 101 793 102 776 c 6,47,-1
 102 68 l 6,0,1
EndSplineSet
Fore
SplineSet
192 0 m 259,0,1
 64 0 64 0 64 128 c 258,2,-1
 64 768 l 258,3,4
 64 832 64 832 128 832 c 283,5,6
 192 832 192 832 192 768 c 258,7,-1
 192 128 l 257,8,-1
 560 592 l 258,9,10
 576 612.173913043 576 612.173913043 576 640 c 259,11,12
 576 704 576 704 512 704 c 259,13,14
 480 704 480 704 464 688 c 256,15,16
 418 642 418 642 372 688 c 256,17,18
 326 734 326 734 372 780 c 256,19,20
 424 832 424 832 512 832 c 259,21,22
 704 832 704 832 704 640 c 259,23,24
 704 556.52173913 704 556.52173913 656 496 c 258,25,-1
 288 32 l 258,26,27
 263 0 263 0 192 0 c 259,0,1
EndSplineSet
EndChar

StartChar: w
Encoding: 119 119 87
Width: 1152
GlyphClass: 2
Flags: W
LayerCount: 2
Back
SplineSet
91 62 m 6,0,1
 91 11 91 11 90 16 c 5,2,3
 92 -2 92 -2 107 0 c 4,4,5
 136 4 136 4 301 118 c 4,6,7
 368 165 368 165 500 248 c 4,8,9
 660 350 660 350 712 384 c 4,10,11
 954 544 954 544 1002 630 c 4,12,13
 1051 718 1051 718 1045 787 c 4,14,15
 1042 822 1042 822 1030 839 c 5,16,17
 1057 852 1057 852 1098 856 c 4,18,19
 1180 864 1180 864 1244 821 c 4,20,21
 1349 749 1349 749 1333 652 c 4,22,23
 1319 565 1319 565 1213 474 c 4,24,25
 1079 361 1079 361 807 167 c 4,26,27
 581 6 581 6 585 6 c 4,28,29
 606 6 606 6 1294 427 c 4,30,31
 1508 558 1508 558 1564 678 c 4,32,33
 1615 785 1615 785 1544 892 c 4,34,35
 1483 983 1483 983 1354 1004 c 4,36,37
 1248 1021 1248 1021 1158 989 c 4,38,39
 1057 953 1057 953 987 902 c 5,40,41
 959 945 959 945 912 980 c 4,42,43
 816 1050 816 1050 714 1011 c 4,44,45
 550 948 550 948 344 817 c 5,46,47
 463 850 463 850 577 854 c 4,48,49
 805 863 805 863 780 721 c 4,50,51
 755 574 755 574 618 441 c 4,52,53
 544 369 544 369 414 287 c 4,54,55
 332 235 332 235 324 235 c 4,56,57
 313 237 313 237 309 259 c 4,58,59
 305 280 305 280 305 334 c 6,60,-1
 305 930 l 6,61,62
 305 989 305 989 288 1005 c 4,63,64
 266 1026 266 1026 204 998 c 4,65,66
 133 966 133 966 15 879 c 4,67,68
 -12 858 -12 858 10 849 c 4,69,70
 25 842 25 842 56 842 c 4,71,72
 83 842 83 842 91 805 c 5,73,-1
 91 62 l 6,0,1
EndSplineSet
Fore
SplineSet
192 0 m 259,0,1
 64 0 64 0 64 128 c 258,2,-1
 64 768 l 258,3,4
 64 832 64 832 128 832 c 283,5,6
 192 832 192 832 192 768 c 258,7,-1
 192 128 l 257,8,-1
 560 592 l 258,9,10
 576 612 576 612 576 640 c 259,11,12
 576 704 576 704 512 704 c 259,13,14
 480 704 480 704 464 688 c 256,15,16
 418 642 418 642 372 688 c 256,17,18
 326 734 326 734 372 780 c 256,19,20
 424 832 424 832 512 832 c 259,21,22
 704 832 704 832 704 640 c 259,23,24
 704 556.6 704 556.6 656 496 c 258,25,-1
 576 395 l 1,26,-1
 576 128 l 257,27,-1
 944 592 l 258,28,29
 960 612.173913043 960 612.173913043 960 640 c 259,30,31
 960 704 960 704 896 704 c 259,32,33
 864 704 864 704 848 688 c 256,34,35
 802 642 802 642 756 688 c 256,36,37
 710 734 710 734 756 780 c 256,38,39
 808 832 808 832 896 832 c 259,40,41
 1088 832 1088 832 1088 640 c 259,42,43
 1088 556.52173913 1088 556.52173913 1040 496 c 258,44,-1
 672 32 l 258,45,46
 647 0 647 0 576 0 c 259,47,48
 448 0 448 0 448 128 c 258,49,-1
 448 234 l 1,50,-1
 288 32 l 258,51,52
 263 0 263 0 192 0 c 259,0,1
EndSplineSet
EndChar

StartChar: x
Encoding: 120 120 88
Width: 768
GlyphClass: 2
Flags: W
LayerCount: 2
Back
SplineSet
112 880 m 1,0,-1
 752 48 l 1025,1,-1
16 784 m 1,0,-1
 656 -48 l 1025,1,-1
0 416 m 1,2,-1
 768 416 l 1025
160 96 m 260,17,18
 704 640 l 1284,9,-1
64 192 m 260,25,-1
 608 736 l 1284,1,2
64 832 m 1,0,-1
 704 0 l 1025,1,-1
EndSplineSet
Fore
SplineSet
390 518 m 257,0,-1
 512 640 l 258,1,2
 576 704 576 704 576 768 c 259,3,4
 576 832 576 832 640 832 c 283,5,6
 704 832 704 832 704 768 c 259,7,8
 704 640 704 640 608 544 c 258,9,-1
 474 410 l 257,10,-1
 704 110 l 258,11,12
 741 62 741 62 688 21 c 256,13,14
 634.017619708 -19.9866220736 634.017619708 -19.9866220736 598 27 c 258,15,-1
 378 314 l 257,16,-1
 256 192 l 262,17,18
 192 128 192 128 192 64 c 259,19,20
 192 0 192 0 128 0 c 283,21,22
 64 0 64 0 64 64 c 259,23,24
 64 192 64 192 160 288 c 262,25,-1
 294 422 l 257,26,-1
 64 722 l 258,27,28
 27.9794140934 768.983372922 27.9794140934 768.983372922 80 811 c 256,29,30
 133.12788843 853.101345548 133.12788843 853.101345548 170 805 c 258,31,-1
 390 518 l 257,0,-1
EndSplineSet
EndChar

StartChar: y
Encoding: 121 121 89
Width: 768
GlyphClass: 2
Flags: W
LayerCount: 2
Back
SplineSet
91 146 m 6,0,1
 91 -222 91 -222 59 -301 c 4,2,3
 28 -377 28 -377 25 -392 c 260,4,5
 22 -407 22 -407 33 -418 c 4,6,7
 47 -432 47 -432 139 -377 c 4,8,9
 233 -322 233 -322 251 -283 c 4,10,11
 256 -274 256 -274 260 -182 c 4,12,13
 264 -74 264 -74 267 -49 c 4,14,15
 282 81 282 81 290 104 c 4,16,17
 313 177 313 177 396 247 c 4,18,19
 502 337 502 337 732 493 c 4,20,21
 924 623 924 623 963 671 c 4,22,23
 990 704 990 704 993 761 c 4,24,25
 995 814 995 814 975 870 c 4,26,27
 954 926 954 926 917 962 c 4,28,29
 877 1001 877 1001 829 1002 c 4,30,31
 744 1004 744 1004 635 943 c 4,32,33
 612 930 612 930 489 846 c 4,34,35
 469 833 469 833 489 840 c 4,36,37
 538 856 538 856 566 863 c 4,38,39
 710 897 710 897 765 820 c 4,40,41
 816 751 816 751 741 652 c 4,42,43
 694 590 694 590 552 471 c 4,44,45
 381 328 381 328 353 313 c 4,46,47
 315 293 315 293 297 309 c 4,48,49
 277 327 277 327 279 391 c 4,50,51
 282 569 282 569 282 937 c 4,52,53
 282 1006 282 1006 259 1020 c 4,54,55
 237 1033 237 1033 180 997 c 4,56,57
 154 981 154 981 14 876 c 4,58,59
 -11 857 -11 857 9 848 c 4,60,61
 23 841 23 841 56 841 c 4,62,63
 88 841 88 841 91 794 c 6,64,-1
 91 146 l 6,0,1
EndSplineSet
Fore
SplineSet
192 277 m 1,0,-1
 544 480 l 258,1,2
 576 498 576 498 576 576 c 259,3,4
 576 704 576 704 448 704 c 259,5,6
 384 704 384 704 384 768 c 259,7,8
 384 832 384 832 448 832 c 259,9,10
 704 832 704 832 704 576 c 259,11,12
 704 408.769230769 704 408.769230769 608 352 c 258,13,-1
 192 106 l 1,14,-1
 192 -256 l 258,15,16
 192 -320 192 -320 128 -320 c 259,17,18
 64 -320 64 -320 64 -256 c 258,19,-1
 64 768 l 258,20,21
 64 832 64 832 128 832 c 283,22,23
 192 832 192 832 192 768 c 258,24,-1
 192 277 l 1,0,-1
EndSplineSet
EndChar

StartChar: z
Encoding: 122 122 90
Width: 1024
GlyphClass: 2
Flags: W
LayerCount: 2
Back
SplineSet
256 0 m 261,3,-1
 832 832 l 1025,0,0
448 416 m 257,0,1
 640 416 640 416 640 160 c 1281,2,-1
512 224 m 257,7,-1
 512 0 512 0 288 0 c 257,5,6
 64 0 64 0 64 224 c 1281
448 544 m 257,0,1
 768 544 768 544 768 160 c 1281,2,-1
421 0 m 257,3,-1
 992 832 l 1025,0,0
384 224 m 257,7,-1
 384 128 384 128 288 128 c 257,5,6
 192 128 192 128 192 224 c 1281
EndSplineSet
Fore
SplineSet
533 400 m 257,0,1
 496 416 496 416 448 416 c 259,2,3
 192 416 192 416 192 224 c 259,4,5
 192 128 192 128 288 128 c 259,6,7
 345 128 345 128 367 160 c 258,8,-1
 533 400 l 257,0,1
609 510 m 257,9,-1
 743 704 l 257,10,-1
 320 704 l 258,11,12
 256 704 256 704 256 768 c 283,13,14
 256 832 256 832 320 832 c 258,15,-1
 928 832 l 258,16,17
 960 832 960 832 960 800 c 259,18,19
 960 786 960 786 928 739 c 258,20,-1
 709 419 l 257,21,22
 768 341 768 341 768 128 c 2,23,24
 768 64 l 258,25,26
 768 0 768 0 704 0 c 259,27,28
 640 0 640 0 640 64 c 258,29,30
 640 128 l 2,31,32
 640 256 640 256 622 293 c 257,33,-1
 475 79 l 258,34,35
 421 -0 421 -0 288 0 c 259,36,37
 64 0 64 0 64 224 c 259,38,39
 64 544 64 544 448 544 c 259,40,41
 546 544 546 544 609 510 c 257,9,-1
EndSplineSet
EndChar

StartChar: braceleft
Encoding: 123 123 91
Width: 1014
GlyphClass: 2
Flags: W
LayerCount: 2
Fore
SplineSet
240 698 m 1,0,1
 412 703 412 703 463 769 c 128,-1,2
 514 835 514 835 514 902 c 2,3,-1
 514 1370 l 2,4,5
 514 1444 514 1444 591 1511.5 c 128,-1,6
 668 1579 668 1579 776 1579 c 2,7,-1
 884 1579 l 1,8,-1
 884 1529 l 1,9,-1
 794 1529 l 2,10,11
 733 1529 733 1529 687 1495.5 c 128,-1,12
 641 1462 641 1462 640 1404 c 2,13,-1
 640 904 l 2,14,15
 640 821 640 821 579.5 745.5 c 128,-1,16
 519 670 519 670 437 669 c 1,17,-1
 437 667 l 1,18,19
 519 666 519 666 580 591 c 128,-1,20
 641 516 641 516 641 433 c 2,21,-1
 640 -67 l 2,22,23
 641 -125 641 -125 687 -158.5 c 128,-1,24
 733 -192 733 -192 794 -192 c 2,25,-1
 884 -192 l 1,26,-1
 884 -242 l 1,27,-1
 776 -242 l 2,28,29
 668 -242 668 -242 591.5 -174.5 c 128,-1,30
 515 -107 515 -107 514 -33 c 2,31,-1
 514 435 l 2,32,33
 514 501 514 501 463 567 c 128,-1,34
 412 633 412 633 240 638 c 1,35,-1
 240 698 l 1,0,1
EndSplineSet
EndChar

StartChar: bar
Encoding: 124 124 92
Width: 256
GlyphClass: 2
Flags: W
LayerCount: 2
Fore
SplineSet
64 -384 m 258,0,-1
 64 1408 l 258,1,2
 64 1472 64 1472 128 1472 c 259,3,4
 192 1472 192 1472 192 1408 c 258,5,-1
 192 -384 l 258,6,7
 192 -448 192 -448 128 -448 c 259,8,9
 64 -448 64 -448 64 -384 c 258,0,-1
EndSplineSet
EndChar

StartChar: braceright
Encoding: 125 125 93
Width: 1014
GlyphClass: 2
Flags: W
LayerCount: 2
Fore
SplineSet
774 638 m 1,0,1
 602 633 602 633 551 567 c 128,-1,2
 500 501 500 501 500 435 c 2,3,-1
 500 -33 l 2,4,5
 499 -107 499 -107 422.5 -174.5 c 128,-1,6
 346 -242 346 -242 238 -242 c 2,7,-1
 130 -242 l 1,8,-1
 130 -192 l 1,9,-1
 220 -192 l 2,10,11
 281 -192 281 -192 327 -158.5 c 128,-1,12
 373 -125 373 -125 374 -67 c 2,13,-1
 373 433 l 2,14,15
 373 516 373 516 434 591 c 128,-1,16
 495 666 495 666 578 667 c 1,17,-1
 578 669 l 1,18,19
 495 670 495 670 434.5 745.5 c 128,-1,20
 374 821 374 821 374 904 c 2,21,-1
 374 1404 l 2,22,23
 373 1462 373 1462 327 1495.5 c 128,-1,24
 281 1529 281 1529 220 1529 c 2,25,-1
 130 1529 l 1,26,-1
 130 1579 l 1,27,-1
 238 1579 l 2,28,29
 346 1579 346 1579 423 1511.5 c 128,-1,30
 500 1444 500 1444 500 1370 c 2,31,-1
 500 902 l 2,32,33
 500 835 500 835 551 769 c 128,-1,34
 602 703 602 703 774 698 c 1,35,-1
 774 638 l 1,0,1
EndSplineSet
EndChar

StartChar: asciitilde
Encoding: 126 126 94
Width: 1024
GlyphClass: 2
Flags: W
LayerCount: 2
Back
SplineSet
923 878 m 5,0,-1
 923 722 l 5,1,2
 860 650 860 650 801 624.5 c 132,-1,3
 742 599 742 599 685 599 c 4,4,5
 625 599 625 599 507.5 647.5 c 132,-1,6
 390 696 390 696 331 696 c 4,7,8
 280 696 280 696 223.5 668 c 132,-1,9
 167 640 167 640 94 556 c 5,10,-1
 94 712 l 5,11,12
 158 785 158 785 217 811 c 132,-1,13
 276 837 276 837 331 837 c 4,14,15
 395 837 395 837 512.5 787.5 c 132,-1,16
 630 738 630 738 685 738 c 4,17,18
 737 738 737 738 793.5 766 c 132,-1,19
 850 794 850 794 923 878 c 5,0,-1
EndSplineSet
Fore
SplineSet
84 416 m 256,0,1
 38 462 38 462 84 508 c 256,2,3
 184 608 184 608 320 608 c 259,4,5
 476 608 476 608 558 526 c 256,6,7
 604 480 604 480 704 480 c 259,8,9
 784 480 784 480 848 544 c 280,10,11
 894 590 894 590 940 544 c 256,12,13
 986 498 986 498 940 452 c 280,14,15
 840 352 840 352 704 352 c 259,16,17
 548 352 548 352 466 434 c 256,18,19
 420 480 420 480 320 480 c 259,20,21
 240 480 240 480 176 416 c 256,22,23
 130 370 130 370 84 416 c 256,0,1
EndSplineSet
EndChar

StartChar: sterling
Encoding: 163 163 96
Width: 1014
GlyphClass: 2
Flags: W
LayerCount: 2
Fore
SplineSet
748 1347 m 1,0,1
 676 1378 676 1378 588 1378 c 2,2,-1
 586 1378 l 2,3,4
 486 1378 486 1378 396 1277 c 0,5,6
 312 1184 312 1184 312 1036 c 0,7,8
 312 1021 312 1021 313 1006 c 0,9,10
 313 871 313 871 366 733 c 1,11,-1
 726 733 l 1,12,-1
 726 673 l 1,13,-1
 392 673 l 1,14,15
 406 643 406 643 423 613 c 0,16,17
 458 550 458 550 458 475 c 0,18,19
 458 314 458 314 296 100 c 1,20,-1
 698 100 l 2,21,22
 828 100 828 100 887 232 c 1,23,-1
 936 231 l 1,24,-1
 833 0 l 1,25,-1
 114 0 l 1,26,-1
 115 50 l 1,27,28
 302 288 302 288 302 468 c 0,29,30
 302 545 302 545 268 611 c 0,31,32
 251 643 251 643 237 673 c 1,33,-1
 76 673 l 1,34,-1
 76 733 l 1,35,-1
 211 733 l 1,36,37
 153 876 153 876 153 986 c 0,38,39
 153 1212 153 1212 276.5 1333 c 128,-1,40
 400 1454 400 1454 583 1454 c 2,41,-1
 587 1454 l 2,42,43
 662 1454 662 1454 772.5 1440 c 128,-1,44
 883 1426 883 1426 883 1406 c 2,45,-1
 883 1245 l 1,46,-1
 825 1245 l 1,47,48
 820 1306 820 1306 748 1347 c 1,0,1
EndSplineSet
EndChar

StartChar: currency
Encoding: 164 164 97
Width: 1014
GlyphClass: 2
Flags: W
LayerCount: 2
Fore
SplineSet
350 560 m 0,0,1
 391 520 391 520 449 503 c 0,2,3
 478 495 478 495 507 495 c 256,4,5
 536 495 536 495 565 503 c 0,6,7
 623 520 623 520 664 560 c 0,8,9
 704 601 704 601 721 659 c 0,10,11
 730 688 730 688 730 717 c 256,12,13
 730 746 730 746 721 775 c 0,14,15
 704 833 704 833 664 874 c 0,16,17
 623 914 623 914 564 931 c 0,18,19
 535 939 535 939 506 939 c 256,20,21
 477 939 477 939 448 930 c 0,22,23
 390 913 390 913 350 874 c 0,24,25
 311 834 311 834 294 776 c 0,26,27
 284 746 284 746 284 716 c 0,28,29
 284 688 284 688 293 660 c 0,30,31
 309 601 309 601 350 560 c 0,0,1
240 903 m 1,32,-1
 122 1021 l 1,33,-1
 202 1102 l 1,34,-1
 320 984 l 1,35,36
 364 1014 364 1014 419 1030 c 0,37,38
 463 1044 463 1044 508 1044 c 0,39,40
 549 1044 549 1044 591 1032 c 0,41,42
 648 1015 648 1015 693 984 c 1,43,-1
 811 1102 l 1,44,-1
 891 1021 l 1,45,-1
 774 904 l 1,46,47
 805 858 805 858 822 802 c 0,48,49
 834 760 834 760 834 717 c 0,50,51
 834 675 834 675 822 632 c 0,52,53
 805 576 805 576 774 530 c 1,54,-1
 891 413 l 1,55,-1
 811 332 l 1,56,-1
 693 450 l 1,57,58
 648 418 648 418 592 402 c 0,59,60
 550 390 550 390 507 390 c 0,61,62
 465 390 465 390 422 402 c 0,63,64
 365 418 365 418 320 450 c 1,65,-1
 202 332 l 1,66,-1
 122 413 l 1,67,-1
 240 530 l 1,68,69
 208 576 208 576 192 633 c 0,70,71
 180 675 180 675 180 717 c 0,72,73
 180 761 180 761 193 804 c 0,74,75
 209 859 209 859 240 903 c 1,32,-1
EndSplineSet
EndChar

StartChar: yen
Encoding: 165 165 98
Width: 1262
GlyphClass: 2
Flags: W
LayerCount: 2
Fore
SplineSet
547 225 m 2,0,-1
 545 467 l 2,1,2
 545 486 545 486 543.5 502 c 128,-1,3
 542 518 542 518 539 534 c 1,4,-1
 55 535 l 2,5,6
 41 535 41 535 34 541.5 c 128,-1,7
 27 548 27 548 27 561 c 256,8,9
 27 574 27 574 33.5 580 c 128,-1,10
 40 586 40 586 55 586 c 2,11,-1
 522 586 l 1,12,-1
 401 758 l 1,13,-1
 57 758 l 2,14,15
 40 758 40 758 33.5 763.5 c 128,-1,16
 27 769 27 769 27 782 c 0,17,18
 27 796 27 796 33 801.5 c 128,-1,19
 39 807 39 807 55 807 c 2,20,-1
 362 807 l 1,21,22
 319 864 319 864 254 962 c 0,23,24
 123 1159 123 1159 27 1159 c 0,25,26
 20 1159 20 1159 14 1164.5 c 128,-1,27
 8 1170 8 1170 8 1176 c 0,28,29
 8 1195 8 1195 18.5 1203.5 c 128,-1,30
 29 1212 29 1212 51 1212 c 0,31,32
 78 1212 78 1212 174 1204 c 128,-1,33
 270 1196 270 1196 338 1196 c 2,34,-1
 426 1196 l 2,35,36
 459 1196 459 1196 467 1189.5 c 128,-1,37
 475 1183 475 1183 475 1163 c 0,38,39
 475 1155 475 1155 460 1149 c 128,-1,40
 445 1143 445 1143 422 1143 c 0,41,42
 416 1143 416 1143 403.5 1145 c 128,-1,43
 391 1147 391 1147 385 1147 c 0,44,45
 361 1147 361 1147 347.5 1137.5 c 128,-1,46
 334 1128 334 1128 334 1112 c 0,47,48
 334 1094 334 1094 350.5 1060 c 128,-1,49
 367 1026 367 1026 397 983 c 2,50,-1
 555 762 l 2,51,52
 568 743 568 743 588 709 c 0,53,54
 629 639 629 639 659 639 c 0,55,56
 668 639 668 639 675.5 644 c 128,-1,57
 683 649 683 649 690 659 c 2,58,-1
 967 1055 l 2,59,60
 975 1067 975 1067 980 1081.5 c 128,-1,61
 985 1096 985 1096 985 1106 c 0,62,63
 985 1124 985 1124 975 1133 c 128,-1,64
 965 1142 965 1142 938 1147 c 0,65,66
 923 1149 923 1149 897 1151 c 0,67,68
 850 1154 850 1154 850 1176 c 0,69,70
 850 1191 850 1191 858 1198.5 c 128,-1,71
 866 1206 866 1206 883 1206 c 0,72,73
 886 1206 886 1206 898 1205 c 0,74,75
 954 1198 954 1198 1006 1198 c 2,76,-1
 1145 1198 l 2,77,78
 1175 1198 1175 1198 1210 1199 c 128,-1,79
 1245 1200 1245 1200 1247 1200 c 0,80,81
 1258 1200 1258 1200 1265.5 1195.5 c 128,-1,82
 1273 1191 1273 1191 1274 1184 c 0,83,84
 1274 1156 1274 1156 1236 1150 c 0,85,86
 1218 1147 1218 1147 1209 1145 c 0,87,88
 1146 1130 1146 1130 1062 1028 c 0,89,90
 1055 1019 1055 1019 1050 1013 c 2,91,-1
 881 807 l 1,92,-1
 1204 807 l 2,93,94
 1219 807 1219 807 1228 801 c 128,-1,95
 1237 795 1237 795 1237 784 c 0,96,97
 1237 769 1237 769 1231 763.5 c 128,-1,98
 1225 758 1225 758 1208 758 c 2,99,-1
 842 758 l 1,100,101
 796 701 796 701 745.5 645.5 c 128,-1,102
 695 590 695 590 693 586 c 1,103,-1
 1204 586 l 2,104,105
 1222 586 1222 586 1229.5 580.5 c 128,-1,106
 1237 575 1237 575 1237 563 c 0,107,108
 1237 549 1237 549 1230 542 c 128,-1,109
 1223 535 1223 535 1208 535 c 2,110,-1
 678 535 l 1,111,112
 678 524 678 524 677 504.5 c 128,-1,113
 676 485 676 485 676 475 c 2,114,-1
 678 260 l 2,115,116
 678 146 678 146 683.5 110 c 128,-1,117
 689 74 689 74 704 66 c 0,118,119
 734 49 734 49 811.5 47 c 128,-1,120
 889 45 889 45 889 16 c 0,121,122
 889 4 889 4 879 -4 c 128,-1,123
 869 -12 869 -12 854 -12 c 0,124,125
 852 -12 852 -12 818.5 -8 c 128,-1,126
 785 -4 785 -4 754 -4 c 0,127,128
 663 -4 663 -4 545.5 -8 c 128,-1,129
 428 -12 428 -12 403 -12 c 0,130,131
 372 -12 372 -12 363 -8 c 128,-1,132
 354 -4 354 -4 354 8 c 256,133,134
 354 20 354 20 362 26.5 c 128,-1,135
 370 33 370 33 399 39 c 0,136,137
 408 41 408 41 424 44 c 0,138,139
 498 60 498 60 516 76 c 0,140,141
 533 89 533 89 540 123 c 128,-1,142
 547 157 547 157 547 225 c 2,0,-1
EndSplineSet
EndChar

StartChar: brokenbar
Encoding: 166 166 99
Width: 256
GlyphClass: 2
Flags: W
LayerCount: 2
Fore
SplineSet
64 736 m 258,0,-1
 64 1408 l 258,1,2
 64 1472 64 1472 128 1472 c 259,3,4
 192 1472 192 1472 192 1408 c 258,5,-1
 192 736 l 258,6,7
 192 672 192 672 128 672 c 259,8,9
 64 672 64 672 64 736 c 258,0,-1
64 -384 m 258,10,-1
 64 288 l 258,11,12
 64 352 64 352 128 352 c 259,13,14
 192 352 192 352 192 288 c 258,15,-1
 192 -384 l 258,16,17
 192 -448 192 -448 128 -448 c 259,18,19
 64 -448 64 -448 64 -384 c 258,10,-1
EndSplineSet
EndChar

StartChar: section
Encoding: 167 167 100
Width: 1014
GlyphClass: 2
Flags: W
LayerCount: 2
Fore
SplineSet
545 321 m 1,0,1
 601 337 601 337 642 374 c 0,2,3
 715 439 715 439 715 540 c 0,4,5
 715 545 715 545 714 550 c 1,6,-1
 712 550 l 1,7,8
 711 564 711 564 708 577 c 0,9,10
 686 638 686 638 595 704 c 1,11,12
 536 733 536 733 469 733 c 0,13,14
 391 733 391 733 344 688.5 c 128,-1,15
 297 644 297 644 297 571 c 0,16,17
 297 448 297 448 545 321 c 1,0,1
466 -346 m 1,18,19
 579 -340 579 -340 651 -277 c 0,20,21
 723 -213 723 -213 723 -112 c 0,22,23
 723 13 723 13 407 164 c 1,24,25
 284 228 284 228 231.5 301 c 128,-1,26
 179 374 179 374 179 478 c 0,27,28
 179 626 179 626 268 715 c 0,29,30
 335 780 335 780 438 797 c 1,31,-1
 398 816 l 1,32,33
 275 880 275 880 222.5 953 c 128,-1,34
 170 1026 170 1026 170 1130 c 0,35,36
 170 1278 170 1278 259 1367 c 0,37,38
 341 1446 341 1446 475 1453 c 0,39,40
 483 1454 483 1454 492 1454 c 2,41,-1
 495 1454 l 2,42,43
 561 1454 561 1454 658 1437.5 c 128,-1,44
 755 1421 755 1421 755 1396 c 2,45,-1
 755 1202 l 1,46,-1
 704 1202 l 1,47,48
 699 1283 699 1283 624 1334 c 0,49,50
 554 1381 554 1381 475 1385 c 1,51,-1
 460 1385 l 2,52,53
 382 1385 382 1385 335 1340.5 c 128,-1,54
 288 1296 288 1296 288 1223 c 0,55,56
 288 1091 288 1091 575 954 c 0,57,58
 724 887 724 887 779.5 810.5 c 128,-1,59
 835 734 835 734 835 623 c 0,60,61
 835 452 835 452 734 341 c 1,62,63
 687 302 687 302 635 277 c 1,64,65
 743 221 743 221 789 159 c 0,66,67
 844 82 844 82 844 -28 c 0,68,69
 844 -199 844 -199 743 -311 c 1,70,71
 619 -413 619 -413 466 -416 c 1,72,-1
 466 -415 l 1,73,74
 460 -416 460 -416 453 -416 c 2,75,-1
 450 -416 l 2,76,77
 384 -416 384 -416 287 -399.5 c 128,-1,78
 190 -383 190 -383 190 -358 c 2,79,-1
 190 -164 l 1,80,-1
 241 -164 l 1,81,82
 246 -245 246 -245 321 -296 c 0,83,84
 389 -341 389 -341 466 -346 c 1,18,19
EndSplineSet
EndChar

StartChar: dieresis
Encoding: 168 168 101
Width: 704
GlyphClass: 2
Flags: W
LayerCount: 2
Fore
SplineSet
448 1376 m 259,0,1
 448 1472 448 1472 544 1472 c 259,2,3
 640 1472 640 1472 640 1376 c 259,4,5
 640 1280 640 1280 544 1280 c 259,6,7
 448 1280 448 1280 448 1376 c 259,0,1
64 1376 m 259,8,9
 64 1472 64 1472 160 1472 c 259,10,11
 256 1472 256 1472 256 1376 c 259,12,13
 256 1280 256 1280 160 1280 c 259,14,15
 64 1280 64 1280 64 1376 c 259,8,9
EndSplineSet
EndChar

StartChar: copyright
Encoding: 169 169 102
Width: 1536
GlyphClass: 2
Flags: W
LayerCount: 2
Back
SplineSet
840 1456 m 4,0,1
 985 1456 985 1456 1120 1399.5 c 132,-1,2
 1255 1343 1255 1343 1359 1239 c 4,3,4
 1461 1138 1461 1138 1517.5 1001 c 132,-1,5
 1574 864 1574 864 1574 718 c 4,6,7
 1574 571 1574 571 1517.5 436 c 132,-1,8
 1461 301 1461 301 1355 196 c 4,9,10
 1250 91 1250 91 1116 36.5 c 132,-1,11
 982 -18 982 -18 833 -18 c 4,12,13
 687 -18 687 -18 555 37.5 c 132,-1,14
 423 93 423 93 317 198 c 4,15,16
 211 302 211 302 155.5 435.5 c 132,-1,17
 100 569 100 569 100 718 c 4,18,19
 100 866 100 866 155.5 1001 c 132,-1,20
 211 1136 211 1136 315 1239 c 4,21,22
 417 1343 417 1343 553.5 1399.5 c 132,-1,23
 690 1456 690 1456 840 1456 c 4,0,1
357 1197 m 260,24,25
 262 1101 262 1101 211 977.5 c 132,-1,26
 160 854 160 854 160 718 c 4,27,28
 160 581 160 581 211 459 c 132,-1,29
 262 337 262 337 359 240 c 4,30,31
 457 144 457 144 578 93 c 132,-1,32
 699 42 699 42 834 42 c 4,33,34
 971 42 971 42 1093.5 92.5 c 132,-1,35
 1216 143 1216 143 1313 238 c 4,36,37
 1410 336 1410 336 1462 459.5 c 132,-1,38
 1514 583 1514 583 1514 718 c 4,39,40
 1514 852 1514 852 1462 977.5 c 132,-1,41
 1410 1103 1410 1103 1317 1197 c 4,42,43
 1221 1293 1221 1293 1097 1344.5 c 132,-1,44
 973 1396 973 1396 839 1396 c 4,45,46
 702 1396 702 1396 577 1344.5 c 132,-1,47
 452 1293 452 1293 357 1197 c 260,24,25
865 223 m 4,48,49
 723 223 723 223 601 291 c 132,-1,50
 479 359 479 359 415 476 c 132,-1,51
 351 593 351 593 351 719 c 260,52,53
 351 845 351 845 416.5 963 c 132,-1,54
 482 1081 482 1081 604 1147.5 c 132,-1,55
 726 1214 726 1214 858 1214 c 4,56,57
 896 1214 896 1214 933 1207.5 c 132,-1,58
 970 1201 970 1201 1009 1187 c 4,59,60
 1014 1186 1014 1186 1018 1186 c 4,61,62
 1037 1186 1037 1186 1044 1216 c 5,63,-1
 1086 1216 l 5,64,-1
 1158 1018 l 5,65,-1
 1114 1018 l 5,66,67
 1062 1112 1062 1112 983 1142 c 4,68,69
 911 1168 911 1168 836 1168 c 6,70,-1
 821 1168 l 5,71,72
 735 1160 735 1160 654.5 1097 c 132,-1,73
 574 1034 574 1034 533 920 c 4,74,75
 500 830 500 830 500 736 c 4,76,77
 500 711 500 711 502 686 c 4,78,79
 513 565 513 565 571.5 462 c 132,-1,80
 630 359 630 359 721 310 c 4,81,82
 793 270 793 270 887 268 c 4,83,84
 1011 268 1011 268 1081 324 c 132,-1,85
 1151 380 1151 380 1151 450 c 5,86,-1
 1204 450 l 5,87,-1
 1204 350 l 6,88,89
 1204 304 1204 304 1107.5 263.5 c 132,-1,90
 1011 223 1011 223 865 223 c 4,48,49
EndSplineSet
EndChar

StartChar: guillemotleft
Encoding: 171 171 104
Width: 944
GlyphClass: 2
Flags: W
LayerCount: 2
Fore
SplineSet
174 479 m 1,0,-1
 516 782 l 1,1,-1
 530 782 l 1,2,-1
 530 745 l 1,3,-1
 325 479 l 1,4,-1
 530 213 l 1,5,-1
 530 176 l 1,6,-1
 516 176 l 1,7,-1
 174 479 l 1,0,-1
487 479 m 1,8,-1
 829 782 l 1,9,-1
 843 782 l 1,10,-1
 843 745 l 1,11,-1
 638 479 l 1,12,-1
 843 213 l 1,13,-1
 843 176 l 1,14,-1
 829 176 l 1,15,-1
 487 479 l 1,8,-1
EndSplineSet
EndChar

StartChar: logicalnot
Encoding: 172 172 105
Width: 1014
GlyphClass: 2
Flags: W
LayerCount: 2
Fore
SplineSet
87 767 m 1,0,-1
 927 767 l 1,1,-1
 927 276 l 1,2,-1
 926 275 l 1,3,-1
 828 275 l 1,4,-1
 828 667 l 1,5,-1
 87 667 l 1,6,-1
 87 767 l 1,0,-1
EndSplineSet
EndChar

StartChar: registered
Encoding: 174 174 106
Width: 1674
GlyphClass: 2
Flags: W
LayerCount: 2
Fore
SplineSet
751 1099 m 1,0,-1
 751 725 l 1,1,-1
 754 717 l 2,2,3
 777 661 777 661 810 636 c 0,4,5
 839 614 839 614 866 614 c 2,6,-1
 872 614 l 1,7,8
 903 618 903 618 933.5 652.5 c 128,-1,9
 964 687 964 687 980 750 c 0,10,11
 993 800 993 800 993 853 c 0,12,13
 993 866 993 866 992 880 c 0,14,15
 988 947 988 947 964 1004.5 c 128,-1,16
 940 1062 940 1062 907.5 1080.5 c 128,-1,17
 875 1099 875 1099 844 1099 c 2,18,-1
 751 1099 l 1,0,-1
984 576 m 1,19,-1
 1066 460 l 2,20,21
 1166 319 1166 319 1216 319 c 2,22,-1
 1250 319 l 1,23,-1
 1250 269 l 1,24,-1
 904 269 l 1,25,-1
 904 319 l 1,26,-1
 949 319 l 2,27,28
 979 319 979 319 979 341 c 0,29,30
 979 370 979 370 910 455 c 1,31,-1
 835 557 l 1,32,33
 793 557 793 557 751 599 c 1,34,-1
 751 440 l 2,35,36
 751 319 751 319 787 319 c 2,37,-1
 840 319 l 1,38,-1
 840 269 l 1,39,-1
 524 269 l 1,40,-1
 524 319 l 1,41,-1
 567 319 l 2,42,43
 604 319 604 319 604 440 c 2,44,-1
 604 978 l 2,45,46
 604 1099 604 1099 567 1099 c 2,47,-1
 524 1099 l 1,48,-1
 524 1169 l 1,49,-1
 880 1169 l 2,50,51
 944 1168 944 1168 1005 1127 c 0,52,53
 1065 1086 1065 1086 1097.5 1013 c 128,-1,54
 1130 940 1130 940 1130 861 c 0,55,56
 1130 783 1130 783 1098 710.5 c 128,-1,57
 1066 638 1066 638 984 576 c 1,19,-1
840 1456 m 0,58,59
 985 1456 985 1456 1120 1399.5 c 128,-1,60
 1255 1343 1255 1343 1359 1239 c 0,61,62
 1461 1138 1461 1138 1517.5 1001 c 128,-1,63
 1574 864 1574 864 1574 718 c 0,64,65
 1574 571 1574 571 1517.5 436 c 128,-1,66
 1461 301 1461 301 1355 196 c 0,67,68
 1250 91 1250 91 1116 36.5 c 128,-1,69
 982 -18 982 -18 833 -18 c 0,70,71
 687 -18 687 -18 555 37.5 c 128,-1,72
 423 93 423 93 317 198 c 0,73,74
 211 302 211 302 155.5 435.5 c 128,-1,75
 100 569 100 569 100 718 c 0,76,77
 100 866 100 866 155.5 1001 c 128,-1,78
 211 1136 211 1136 315 1239 c 0,79,80
 417 1343 417 1343 553.5 1399.5 c 128,-1,81
 690 1456 690 1456 840 1456 c 0,58,59
357 1197 m 256,82,83
 262 1101 262 1101 211 977.5 c 128,-1,84
 160 854 160 854 160 718 c 0,85,86
 160 581 160 581 211 459 c 128,-1,87
 262 337 262 337 359 240 c 0,88,89
 457 144 457 144 578 93 c 128,-1,90
 699 42 699 42 834 42 c 0,91,92
 971 42 971 42 1093.5 92.5 c 128,-1,93
 1216 143 1216 143 1313 238 c 0,94,95
 1410 336 1410 336 1462 459.5 c 128,-1,96
 1514 583 1514 583 1514 718 c 0,97,98
 1514 852 1514 852 1462 977.5 c 128,-1,99
 1410 1103 1410 1103 1317 1197 c 0,100,101
 1221 1293 1221 1293 1097 1344.5 c 128,-1,102
 973 1396 973 1396 839 1396 c 0,103,104
 702 1396 702 1396 577 1344.5 c 128,-1,105
 452 1293 452 1293 357 1197 c 256,82,83
EndSplineSet
EndChar

StartChar: degree
Encoding: 176 176 108
Width: 640
GlyphClass: 2
Flags: W
LayerCount: 2
Fore
SplineSet
160 1216 m 259,0,1
 160 1152 160 1152 208 1104 c 256,2,3
 256 1056 256 1056 320 1056 c 259,4,5
 384 1056 384 1056 432 1104 c 256,6,7
 480 1152 480 1152 480 1216 c 259,8,9
 480 1280 480 1280 432 1328 c 256,10,11
 384 1376 384 1376 320 1376 c 259,12,13
 256 1376 256 1376 208 1328 c 256,14,15
 160 1280 160 1280 160 1216 c 259,0,1
64 1216 m 259,16,17
 64 1328 64 1328 136 1400 c 256,18,19
 208 1472 208 1472 320 1472 c 259,20,21
 432 1472 432 1472 504 1400 c 256,22,23
 576 1328 576 1328 576 1216 c 259,24,25
 576 1104 576 1104 504 1032 c 256,26,27
 432 960 432 960 320 960 c 259,28,29
 208 960 208 960 136 1032 c 256,30,31
 64 1104 64 1104 64 1216 c 259,16,17
EndSplineSet
EndChar

StartChar: acute
Encoding: 180 180 111
Width: 1024
GlyphClass: 2
Flags: W
LayerCount: 2
Fore
SplineSet
607 1375 m 2,0,1
 642 1410 642 1410 662.5 1422 c 128,-1,2
 683 1434 683 1434 703 1434 c 0,3,4
 736 1434 736 1434 756.5 1414 c 128,-1,5
 777 1394 777 1394 777 1363 c 0,6,7
 777 1341 777 1341 761.5 1321 c 128,-1,8
 746 1301 746 1301 715 1281 c 2,9,-1
 385 1078 l 1,10,-1
 316 1078 l 1,11,-1
 607 1375 l 2,0,1
EndSplineSet
EndChar

StartChar: paragraph
Encoding: 182 182 112
Width: 1024
GlyphClass: 2
Flags: W
LayerCount: 2
Fore
SplineSet
929 1435 m 1,0,-1
 929 1365 l 1,1,-1
 802 1365 l 1,2,-1
 802 0 l 1,3,-1
 720 0 l 1,4,-1
 720 1365 l 1,5,-1
 554 1365 l 1,6,-1
 554 0 l 1,7,-1
 470 0 l 1,8,-1
 470 738 l 1,9,10
 296 746 296 746 194.5 840.5 c 128,-1,11
 93 935 93 935 93 1086 c 0,12,13
 93 1243 93 1243 200.5 1339 c 128,-1,14
 308 1435 308 1435 486 1435 c 2,15,-1
 929 1435 l 1,0,-1
EndSplineSet
EndChar

StartChar: cedilla
Encoding: 184 184 114
Width: 1024
GlyphClass: 2
Flags: W
LayerCount: 2
Fore
SplineSet
360 -290 m 1,0,1
 445 -342 445 -342 512 -342 c 0,2,3
 578 -342 578 -342 606.5 -320.5 c 128,-1,4
 635 -299 635 -299 635 -254 c 256,5,6
 635 -209 635 -209 586 -190 c 0,7,8
 546 -174 546 -174 484 -174 c 0,9,10
 468 -174 468 -174 450 -176 c 1,11,-1
 498 0 l 1,12,-1
 561 0 l 1,13,-1
 524 -104 l 1,14,15
 556 -100 556 -100 586 -99 c 0,16,17
 672 -99 672 -99 720 -139.5 c 128,-1,18
 768 -180 768 -180 768 -253 c 0,19,20
 768 -329 768 -329 709.5 -373.5 c 128,-1,21
 651 -418 651 -418 549 -418 c 0,22,23
 440 -418 440 -418 360 -386 c 1,24,-1
 360 -290 l 1,0,1
EndSplineSet
EndChar

StartChar: guillemotright
Encoding: 187 187 115
Width: 944
GlyphClass: 2
Flags: W
LayerCount: 2
Fore
SplineSet
115 176 m 1,0,-1
 101 176 l 1,1,-1
 101 213 l 1,2,-1
 306 479 l 1,3,-1
 101 745 l 1,4,-1
 101 782 l 1,5,-1
 115 782 l 1,6,-1
 457 479 l 1,7,-1
 115 176 l 1,0,-1
428 176 m 1,8,-1
 414 176 l 1,9,-1
 414 213 l 1,10,-1
 619 479 l 1,11,-1
 414 745 l 1,12,-1
 414 782 l 1,13,-1
 428 782 l 1,14,-1
 770 479 l 1,15,-1
 428 176 l 1,8,-1
EndSplineSet
EndChar

StartChar: multiply
Encoding: 215 215 140
Width: 1024
GlyphClass: 2
Flags: W
LayerCount: 2
Fore
SplineSet
195 355 m 256,0,1
 150 400 150 400 195 446 c 258,2,-1
 421 672 l 1,3,-1
 195 898 l 258,4,5
 150 943 150 943 195 989 c 272,6,7
 240 1034 240 1034 286 989 c 258,8,-1
 512 763 l 1,9,-1
 738 989 l 258,10,11
 783 1034 783 1034 829 989 c 272,12,13
 874 944 874 944 829 898 c 258,14,-1
 603 672 l 1,15,-1
 829 446 l 258,16,17
 874 401 874 401 829 355 c 256,18,19
 784 310 784 310 738 355 c 258,20,-1
 512 581 l 1,21,-1
 286 355 l 258,22,23
 240 310 240 310 195 355 c 256,0,1
EndSplineSet
EndChar

StartChar: dotlessi
Encoding: 305 305 178
Width: 256
GlyphClass: 2
Flags: W
LayerCount: 2
Fore
SplineSet
64 64 m 262,0,-1
 64 768 l 286,1,2
 64 832 64 832 128 832 c 287,3,4
 192 832 192 832 192 768 c 286,5,-1
 192 64 l 262,6,7
 192 0 192 0 128 0 c 287,8,9
 64 0 64 0 64 64 c 262,0,-1
EndSplineSet
EndChar

StartChar: uni02C9
Encoding: 713 713 181
Width: 1024
GlyphClass: 2
Flags: W
LayerCount: 2
Fore
SplineSet
254 1195 m 1,0,-1
 254 1320 l 1,1,-1
 770 1320 l 1,2,-1
 770 1195 l 1,3,-1
 254 1195 l 1,0,-1
EndSplineSet
EndChar

StartChar: breve
Encoding: 728 728 182
Width: 1024
GlyphClass: 2
Flags: W
LayerCount: 2
Fore
SplineSet
219 1349 m 1,0,-1
 270 1349 l 1,1,2
 287 1276 287 1276 345 1242 c 128,-1,3
 403 1208 403 1208 512 1208 c 256,4,5
 621 1208 621 1208 678 1241.5 c 128,-1,6
 735 1275 735 1275 752 1349 c 1,7,-1
 803 1349 l 1,8,9
 783 1216 783 1216 709 1147.5 c 128,-1,10
 635 1079 635 1079 512 1079 c 0,11,12
 390 1079 390 1079 315 1148 c 128,-1,13
 240 1217 240 1217 219 1349 c 1,0,-1
EndSplineSet
EndChar

StartChar: dotaccent
Encoding: 729 729 183
Width: 384
GlyphClass: 2
Flags: W
LayerCount: 2
Fore
SplineSet
96 1376 m 259,0,1
 96 1472 96 1472 192 1472 c 259,2,3
 288 1472 288 1472 288 1376 c 259,4,5
 288 1280 288 1280 192 1280 c 259,6,7
 96 1280 96 1280 96 1376 c 259,0,1
EndSplineSet
EndChar

StartChar: ring
Encoding: 730 730 184
Width: 512
GlyphClass: 2
Flags: W
LayerCount: 2
Fore
SplineSet
160 1344 m 259,0,1
 160 1304 160 1304 188 1276 c 256,2,3
 216 1248 216 1248 256 1248 c 259,4,5
 296 1248 296 1248 324 1276 c 256,6,7
 352 1304 352 1304 352 1344 c 259,8,9
 352 1384 352 1384 324 1412 c 256,10,11
 296 1440 296 1440 256 1440 c 259,12,13
 216 1440 216 1440 188 1412 c 256,14,15
 160 1384 160 1384 160 1344 c 259,0,1
64 1344 m 259,16,17
 64 1424 64 1424 120 1480 c 256,18,19
 176 1536 176 1536 256 1536 c 259,20,21
 336 1536 336 1536 392 1480 c 256,22,23
 448 1424 448 1424 448 1344 c 259,24,25
 448 1264 448 1264 392 1208 c 256,26,27
 336 1152 336 1152 256 1152 c 259,28,29
 176 1152 176 1152 120 1208 c 256,30,31
 64 1264 64 1264 64 1344 c 259,16,17
EndSplineSet
EndChar

StartChar: ogonek
Encoding: 731 731 185
Width: 1024
GlyphClass: 2
Flags: W
LayerCount: 2
Fore
SplineSet
640 0 m 1,0,1
 569 -62 569 -62 529.5 -119.5 c 128,-1,2
 490 -177 490 -177 490 -232 c 0,3,4
 490 -279 490 -279 517 -307 c 128,-1,5
 544 -335 544 -335 590 -335 c 0,6,7
 630 -335 630 -335 659.5 -319.5 c 128,-1,8
 689 -304 689 -304 709 -271 c 1,9,-1
 737 -287 l 1,10,11
 701 -350 701 -350 646.5 -384 c 128,-1,12
 592 -418 592 -418 527 -418 c 0,13,14
 457 -418 457 -418 413 -382.5 c 128,-1,15
 369 -347 369 -347 369 -292 c 0,16,17
 369 -216 369 -216 429.5 -135.5 c 128,-1,18
 490 -55 490 -55 591 0 c 1,19,-1
 640 0 l 1,0,1
EndSplineSet
EndChar

StartChar: tilde
Encoding: 732 732 186
Width: 800
GlyphClass: 2
Flags: W
LayerCount: 2
Fore
SplineSet
84 1280 m 256,0,1
 38 1326 38 1326 84 1372 c 256,2,3
 168 1456 168 1456 272 1456 c 259,4,5
 380 1456 380 1456 446 1390 c 256,6,7
 476 1360 476 1360 528 1360 c 259,8,9
 576 1360 576 1360 624 1408 c 256,10,11
 670 1454 670 1454 716 1408 c 256,12,13
 762 1362 762 1362 716 1316 c 256,14,15
 632 1232 632 1232 528 1232 c 259,16,17
 420 1232 420 1232 354 1298 c 256,18,19
 324 1328 324 1328 272 1328 c 259,20,21
 224 1328 224 1328 176 1280 c 256,22,23
 130 1234 130 1234 84 1280 c 256,0,1
EndSplineSet
EndChar

StartChar: hungarumlaut
Encoding: 733 733 187
Width: 1024
GlyphClass: 2
Flags: W
LayerCount: 2
Fore
SplineSet
217 1079 m 1,0,-1
 361 1352 l 2,1,2
 385 1396 385 1396 406.5 1415 c 128,-1,3
 428 1434 428 1434 453 1434 c 0,4,5
 481 1434 481 1434 501 1414 c 128,-1,6
 521 1394 521 1394 521 1367 c 0,7,8
 521 1351 521 1351 510.5 1332 c 128,-1,9
 500 1313 500 1313 480 1291 c 2,10,-1
 275 1079 l 1,11,-1
 217 1079 l 1,0,-1
502 1079 m 1,12,-1
 646 1352 l 2,13,14
 670 1396 670 1396 691.5 1415 c 128,-1,15
 713 1434 713 1434 738 1434 c 0,16,17
 766 1434 766 1434 786 1414 c 128,-1,18
 806 1394 806 1394 806 1367 c 0,19,20
 806 1351 806 1351 795.5 1332 c 128,-1,21
 785 1313 785 1313 765 1291 c 2,22,-1
 560 1079 l 1,23,-1
 502 1079 l 1,12,-1
EndSplineSet
EndChar

StartChar: endash
Encoding: 8211 8211 188
Width: 1280
GlyphClass: 2
Flags: W
LayerCount: 2
Fore
SplineSet
64 480 m 259,0,1
 64 544 64 544 128 544 c 258,2,-1
 1152 544 l 258,3,4
 1216 544 1216 544 1216 480 c 275,5,6
 1216 416 1216 416 1152 416 c 266,7,-1
 128 416 l 258,8,9
 64 416 64 416 64 480 c 259,0,1
EndSplineSet
EndChar

StartChar: emdash
Encoding: 8212 8212 189
Width: 2048
GlyphClass: 2
Flags: W
LayerCount: 2
Fore
SplineSet
64 480 m 259,0,1
 64 544 64 544 128 544 c 258,2,-1
 1920 544 l 258,3,4
 1984 544 1984 544 1984 480 c 275,5,6
 1984 416 1984 416 1920 416 c 266,7,-1
 128 416 l 258,8,9
 64 416 64 416 64 480 c 259,0,1
EndSplineSet
EndChar

StartChar: quoteright
Encoding: 8217 8217 191
Width: 320
GlyphClass: 2
Flags: W
LayerCount: 2
Fore
SplineSet
64.216796875 1056 m 261,0,1
 256 1184 256 1184 256 1376 c 259,2,3
 256 1472 256 1472 160 1472 c 259,4,5
 64 1472 64 1472 64 1376 c 259,6,7
 64 1312 64 1312 128 1280 c 256,8,9
 192 1248 192 1248 64.216796875 1056 c 261,0,1
EndSplineSet
EndChar

StartChar: dagger
Encoding: 8224 8224 196
Width: 1014
GlyphClass: 2
Flags: W
LayerCount: 2
Fore
SplineSet
486 1022 m 1,0,1
 478 1119 478 1119 432 1200 c 0,2,3
 375 1301 375 1301 375 1329 c 0,4,5
 375 1378 375 1378 411 1407.5 c 128,-1,6
 447 1437 447 1437 507 1437 c 0,7,8
 564 1437 564 1437 601.5 1409.5 c 128,-1,9
 639 1382 639 1382 639 1338 c 0,10,11
 639 1306 639 1306 584 1201 c 0,12,13
 538 1116 538 1116 529 1022 c 1,14,15
 625 1030 625 1030 706 1076 c 0,16,17
 807 1133 807 1133 835 1133 c 0,18,19
 884 1133 884 1133 914 1097 c 128,-1,20
 944 1061 944 1061 944 1001 c 0,21,22
 944 944 944 944 916.5 906.5 c 128,-1,23
 889 869 889 869 844 869 c 0,24,25
 812 869 812 869 708 924 c 0,26,27
 623 970 623 970 529 981 c 1,28,29
 537 805 537 805 639 704 c 1,30,31
 533 244 533 244 527 -270 c 1,32,-1
 489 -270 l 1,33,34
 483 244 483 244 375 704 c 1,35,36
 477 805 477 805 486 981 c 1,37,38
 390 971 390 971 308 926 c 0,39,40
 207 869 207 869 179 869 c 0,41,42
 130 869 130 869 100.5 905 c 128,-1,43
 71 941 71 941 71 1001 c 0,44,45
 71 1058 71 1058 98.5 1095.5 c 128,-1,46
 126 1133 126 1133 170 1133 c 0,47,48
 202 1133 202 1133 307 1077 c 0,49,50
 392 1031 392 1031 486 1022 c 1,0,1
EndSplineSet
EndChar

StartChar: daggerdbl
Encoding: 8225 8225 197
Width: 1014
GlyphClass: 2
Flags: W
LayerCount: 2
Fore
SplineSet
528 186 m 1,0,1
 622 197 622 197 707 243 c 0,2,3
 811 298 811 298 843 298 c 0,4,5
 888 298 888 298 915.5 260.5 c 128,-1,6
 943 223 943 223 943 166 c 0,7,8
 943 106 943 106 913 70 c 128,-1,9
 883 34 883 34 834 34 c 0,10,11
 806 34 806 34 705 91 c 0,12,13
 624 137 624 137 528 145 c 1,14,15
 537 51 537 51 583 -34 c 0,16,17
 638 -139 638 -139 638 -171 c 0,18,19
 638 -215 638 -215 600.5 -242.5 c 128,-1,20
 563 -270 563 -270 506 -270 c 0,21,22
 446 -270 446 -270 410 -240.5 c 128,-1,23
 374 -211 374 -211 374 -162 c 0,24,25
 374 -134 374 -134 431 -33 c 0,26,27
 477 48 477 48 485 145 c 1,28,29
 391 136 391 136 306 90 c 0,30,31
 201 34 201 34 169 34 c 0,32,33
 125 34 125 34 97.5 71.5 c 128,-1,34
 70 109 70 109 70 166 c 0,35,36
 70 226 70 226 99.5 262 c 128,-1,37
 129 298 129 298 178 298 c 0,38,39
 206 298 206 298 307 241 c 0,40,41
 389 196 389 196 485 186 c 1,42,43
 476 412 476 412 374 584 c 1,44,45
 476 755 476 755 485 981 c 1,46,47
 389 971 389 971 307 926 c 0,48,49
 206 869 206 869 178 869 c 0,50,51
 129 869 129 869 99.5 905 c 128,-1,52
 70 941 70 941 70 1001 c 0,53,54
 70 1058 70 1058 97.5 1095.5 c 128,-1,55
 125 1133 125 1133 169 1133 c 0,56,57
 201 1133 201 1133 306 1077 c 0,58,59
 391 1031 391 1031 485 1022 c 1,60,61
 477 1119 477 1119 431 1200 c 0,62,63
 374 1301 374 1301 374 1329 c 0,64,65
 374 1378 374 1378 410 1407.5 c 128,-1,66
 446 1437 446 1437 506 1437 c 0,67,68
 563 1437 563 1437 600.5 1409.5 c 128,-1,69
 638 1382 638 1382 638 1338 c 0,70,71
 638 1306 638 1306 583 1201 c 0,72,73
 537 1116 537 1116 528 1022 c 1,74,75
 624 1030 624 1030 705 1076 c 0,76,77
 806 1133 806 1133 834 1133 c 0,78,79
 883 1133 883 1133 913 1097 c 128,-1,80
 943 1061 943 1061 943 1001 c 0,81,82
 943 944 943 944 915.5 906.5 c 128,-1,83
 888 869 888 869 843 869 c 0,84,85
 811 869 811 869 707 924 c 0,86,87
 622 970 622 970 528 981 c 1,88,89
 536 755 536 755 638 584 c 1,90,91
 536 412 536 412 528 186 c 1,0,1
EndSplineSet
EndChar

StartChar: bullet
Encoding: 8226 8226 198
Width: 1024
GlyphClass: 2
Flags: W
LayerCount: 2
Fore
SplineSet
216 718 m 256,0,1
 216 841 216 841 303 927 c 128,-1,2
 390 1013 390 1013 513 1013 c 0,3,4
 635 1013 635 1013 721.5 926.5 c 128,-1,5
 808 840 808 840 808 718 c 256,6,7
 808 596 808 596 720.5 508.5 c 128,-1,8
 633 421 633 421 511 421 c 0,9,10
 388 421 388 421 302 508 c 128,-1,11
 216 595 216 595 216 718 c 256,0,1
EndSplineSet
EndChar

StartChar: guilsinglleft
Encoding: 8249 8249 200
Width: 631
GlyphClass: 2
Flags: W
LayerCount: 2
Fore
SplineSet
174 479 m 1,0,-1
 516 782 l 1,1,-1
 530 782 l 1,2,-1
 530 745 l 1,3,-1
 325 479 l 1,4,-1
 530 213 l 1,5,-1
 530 176 l 1,6,-1
 516 176 l 1,7,-1
 174 479 l 1,0,-1
EndSplineSet
EndChar

StartChar: guilsinglright
Encoding: 8250 8250 201
Width: 631
GlyphClass: 2
Flags: W
LayerCount: 2
Fore
SplineSet
115 176 m 1,0,-1
 101 176 l 1,1,-1
 101 213 l 1,2,-1
 306 479 l 1,3,-1
 101 745 l 1,4,-1
 101 782 l 1,5,-1
 115 782 l 1,6,-1
 457 479 l 1,7,-1
 115 176 l 1,0,-1
EndSplineSet
EndChar

StartChar: fraction
Encoding: 8260 8260 202
AltUni2: 002215.ffffffff.0
Width: 342
GlyphClass: 2
Flags: W
LayerCount: 2
Fore
SplineSet
-342 -29 m 1,0,-1
 598 1432 l 1,1,-1
 682 1432 l 1,2,-1
 -256 -29 l 1,3,-1
 -342 -29 l 1,0,-1
EndSplineSet
EndChar

StartChar: franc
Encoding: 8355 8355 203
Width: 1014
GlyphClass: 2
Flags: W
LayerCount: 2
Fore
SplineSet
247 357 m 1,0,-1
 53 357 l 1,1,-1
 53 417 l 1,2,-1
 247 417 l 1,3,-1
 247 1149 l 2,4,5
 247 1384 247 1384 144 1384 c 2,6,-1
 48 1384 l 1,7,-1
 48 1434 l 1,8,-1
 963 1434 l 1,9,-1
 1066 1203 l 1,10,-1
 1017 1203 l 1,11,12
 958 1385 958 1385 827 1385 c 2,13,-1
 511 1384 l 2,14,15
 409 1384 409 1384 409 1149 c 2,16,-1
 409 797 l 1,17,-1
 770 797 l 2,18,19
 870 797 870 797 870 860 c 2,20,-1
 870 918 l 1,21,-1
 920 918 l 1,22,-1
 920 576 l 1,23,-1
 870 576 l 1,24,-1
 870 636 l 2,25,26
 870 698 870 698 770 698 c 2,27,-1
 409 698 l 1,28,-1
 409 417 l 1,29,-1
 603 417 l 1,30,-1
 603 357 l 1,31,-1
 409 357 l 1,32,-1
 409 285 l 2,33,34
 409 50 409 50 511 50 c 2,35,-1
 608 50 l 1,36,-1
 608 0 l 1,37,-1
 48 0 l 1,38,-1
 48 50 l 1,39,-1
 144 50 l 2,40,41
 247 50 247 50 247 285 c 2,42,-1
 247 357 l 1,0,-1
EndSplineSet
EndChar

StartChar: lira
Encoding: 8356 8356 204
Width: 1014
GlyphClass: 2
Flags: W
LayerCount: 2
Fore
SplineSet
748 1347 m 1,0,1
 676 1378 676 1378 588 1378 c 2,2,-1
 586 1378 l 2,3,4
 486 1378 486 1378 396 1277 c 0,5,6
 312 1184 312 1184 312 1036 c 0,7,8
 312 1021 312 1021 313 1006 c 0,9,10
 313 900 313 900 346 793 c 1,11,-1
 726 793 l 1,12,-1
 726 733 l 1,13,-1
 366 733 l 1,14,15
 378 703 378 703 392 673 c 1,16,-1
 744 673 l 1,17,-1
 744 613 l 1,18,-1
 423 613 l 1,19,20
 458 550 458 550 458 475 c 0,21,22
 458 314 458 314 296 100 c 1,23,-1
 698 100 l 2,24,25
 828 100 828 100 887 232 c 1,26,-1
 936 231 l 1,27,-1
 833 0 l 1,28,-1
 114 0 l 1,29,-1
 115 50 l 1,30,31
 302 288 302 288 302 468 c 0,32,33
 302 545 302 545 268 611 c 1,34,-1
 266 613 l 1,35,-1
 94 613 l 1,36,-1
 94 673 l 1,37,-1
 237 673 l 1,38,39
 223 704 223 704 211 733 c 1,40,-1
 76 733 l 1,41,-1
 76 793 l 1,42,-1
 189 793 l 1,43,44
 153 900 153 900 153 986 c 0,45,46
 153 1212 153 1212 276.5 1333 c 128,-1,47
 400 1454 400 1454 587 1454 c 0,48,49
 662 1454 662 1454 772.5 1440 c 128,-1,50
 883 1426 883 1426 883 1406 c 2,51,-1
 883 1245 l 1,52,-1
 825 1245 l 1,53,54
 820 1306 820 1306 748 1347 c 1,0,1
EndSplineSet
EndChar

StartChar: peseta
Encoding: 8359 8359 205
Width: 2028
GlyphClass: 2
Flags: W
LayerCount: 2
Fore
SplineSet
409 1384 m 1,0,-1
 409 722 l 2,1,2
 412 713 412 713 416 705 c 0,3,4
 457 603 457 603 524 552 c 0,5,6
 581 508 581 508 640 508 c 0,7,8
 650 508 650 508 659 509 c 0,9,10
 727 517 727 517 786 584 c 128,-1,11
 845 651 845 651 873 761 c 0,12,13
 895 848 895 848 895 940 c 0,14,15
 895 964 895 964 894 987 c 0,16,17
 887 1103 887 1103 844.5 1205.5 c 128,-1,18
 802 1308 802 1308 736 1350 c 0,19,20
 680 1385 680 1385 624 1385 c 0,21,22
 614 1385 614 1385 603 1384 c 2,23,-1
 409 1384 l 1,0,-1
1496 908 m 1,24,-1
 1317 908 l 1,25,-1
 1317 223 l 2,26,27
 1317 142 1317 142 1351 104 c 0,28,29
 1379 73 1379 73 1432 67 c 1,30,-1
 1361 259 l 1,31,-1
 1410 260 l 1,32,33
 1465 130 1465 130 1524 86 c 0,34,35
 1581 42 1581 42 1651 42 c 2,36,-1
 1658 42 l 2,37,38
 1750 42 1750 42 1809 94 c 0,39,40
 1868 147 1868 147 1868 230 c 0,41,42
 1868 332 1868 332 1609 456 c 0,43,44
 1508 508 1508 508 1465 568 c 128,-1,45
 1422 628 1422 628 1422 713 c 0,46,47
 1422 834 1422 834 1495 907 c 2,48,-1
 1496 908 l 1,24,-1
1039 910 m 1,49,50
 1032 809 1032 809 991 716 c 0,51,52
 941 602 941 602 850 538.5 c 128,-1,53
 759 475 759 475 660 475 c 0,54,55
 560 475 560 475 469 539 c 0,56,57
 436 561 436 561 409 590 c 1,58,-1
 409 285 l 2,59,60
 409 50 409 50 511 50 c 2,61,-1
 608 50 l 1,62,-1
 608 0 l 1,63,-1
 48 0 l 1,64,-1
 48 50 l 1,65,-1
 144 50 l 2,66,67
 247 50 247 50 247 285 c 2,68,-1
 247 1149 l 2,69,70
 247 1384 247 1384 144 1384 c 2,71,-1
 48 1384 l 1,72,-1
 48 1434 l 1,73,-1
 666 1434 l 2,74,75
 758 1432 758 1432 847 1372 c 0,76,77
 938 1310 938 1310 990 1195 c 0,78,79
 1040 1082 1040 1082 1041 958 c 1,80,-1
 1051 958 l 2,81,82
 1267 958 1267 958 1267 1313 c 1,83,-1
 1317 1313 l 1,84,-1
 1317 958 l 1,85,-1
 1576 958 l 1,86,87
 1618 977 1618 977 1686 978 c 2,88,-1
 1688 978 l 2,89,90
 1742 978 1742 978 1821.5 964.5 c 128,-1,91
 1901 951 1901 951 1901 931 c 2,92,-1
 1901 772 l 1,93,-1
 1859 772 l 1,94,95
 1855 838 1855 838 1793.5 880 c 128,-1,96
 1732 922 1732 922 1660 922 c 0,97,98
 1596 922 1596 922 1557.5 885.5 c 128,-1,99
 1519 849 1519 849 1519 789 c 0,100,101
 1519 681 1519 681 1754 569 c 0,102,103
 1876 514 1876 514 1921.5 451.5 c 128,-1,104
 1967 389 1967 389 1967 298 c 0,105,106
 1967 158 1967 158 1884 67 c 1,107,108
 1782 -17 1782 -17 1656 -19 c 0,109,110
 1598 -19 1598 -19 1551 -8 c 0,111,112
 1523 -2 1523 -2 1495 -2 c 0,113,114
 1477 -2 1477 -2 1459 -5 c 0,115,116
 1431 -10 1431 -10 1400 -10 c 0,117,118
 1276 -10 1276 -10 1226.5 47 c 128,-1,119
 1177 104 1177 104 1169 223 c 1,120,-1
 1168 223 l 1,121,-1
 1168 910 l 1,122,-1
 1039 910 l 1,49,50
EndSplineSet
EndChar

StartChar: Euro
Encoding: 8364 8364 206
Width: 1014
GlyphClass: 2
Flags: W
LayerCount: 2
Fore
SplineSet
140 372 m 0,0,1
 78 507 78 507 64 653 c 1,2,-1
 -44 653 l 1,3,-1
 -27 713 l 1,4,-1
 60 713 l 1,5,-1
 60 742 l 2,6,7
 60 758 60 758 61 773 c 1,8,-1
 -10 773 l 1,9,-1
 7 833 l 1,10,-1
 65 833 l 1,11,12
 79 978 79 978 141 1114 c 0,13,14
 222 1292 222 1292 367 1388 c 128,-1,15
 512 1484 512 1484 665 1484 c 0,16,17
 708 1484 708 1484 752 1476 c 0,18,19
 792 1466 792 1466 834 1447 c 0,20,21
 842 1441 842 1441 850 1441 c 0,22,23
 870 1441 870 1441 884 1486 c 1,24,-1
 925 1486 l 1,25,-1
 1009 1205 l 1,26,-1
 969 1204 l 1,27,28
 920 1338 920 1338 831 1382 c 0,29,30
 788 1404 788 1404 750 1414 c 1,31,-1
 750 1417 l 1,32,33
 700 1433 700 1433 649 1433 c 0,34,35
 632 1433 632 1433 615 1431 c 0,36,37
 495 1419 495 1419 389 1317.5 c 128,-1,38
 283 1216 283 1216 232 1044 c 0,39,40
 200 940 200 940 193 833 c 1,41,-1
 899 833 l 1,42,-1
 882 773 l 1,43,-1
 190 773 l 1,44,45
 190 743 190 743 192 713 c 1,46,-1
 866 713 l 1,47,-1
 849 653 l 1,48,-1
 197 653 l 1,49,50
 214 495 214 495 280 355 c 0,51,52
 354 198 354 198 473 119 c 0,53,54
 575 51 575 51 689 50 c 0,55,56
 875 53 875 53 945 141 c 0,57,58
 1019 232 1019 232 1019 326 c 1,59,-1
 1067 326 l 1,60,-1
 1067 183 l 2,61,62
 1067 113 1067 113 956 56 c 0,63,64
 851 2 851 2 689 0 c 0,65,66
 508 0 508 0 363.5 98 c 128,-1,67
 219 196 219 196 140 372 c 0,0,1
EndSplineSet
EndChar

StartChar: partialdiff
Encoding: 8706 8706 208
Width: 1014
GlyphClass: 2
Flags: W
LayerCount: 2
Fore
SplineSet
232 537 m 0,0,1
 232 496 232 496 237 458 c 0,2,3
 251 336 251 336 298.5 228 c 128,-1,4
 346 120 346 120 417 63 c 0,5,6
 481 10 481 10 545 10 c 0,7,8
 551 10 551 10 558 11 c 0,9,10
 628 16 628 16 685.5 81.5 c 128,-1,11
 743 147 743 147 766 261 c 0,12,13
 782 334 782 334 782 410 c 0,14,15
 782 452 782 452 777 495 c 0,16,17
 763 617 763 617 714.5 726.5 c 128,-1,18
 666 836 666 836 595 892 c 0,19,20
 530 942 530 942 467 942 c 2,21,-1
 456 942 l 1,22,23
 388 937 388 937 330 872.5 c 128,-1,24
 272 808 272 808 248 694 c 0,25,26
 232 610 232 610 232 537 c 0,0,1
937 477 m 0,27,28
 937 345 937 345 880.5 226 c 128,-1,29
 824 107 824 107 721.5 41 c 128,-1,30
 619 -25 619 -25 507 -25 c 256,31,32
 395 -25 395 -25 292.5 41 c 128,-1,33
 190 107 190 107 133.5 226 c 128,-1,34
 77 345 77 345 77 477 c 0,35,36
 77 608 77 608 135 728 c 128,-1,37
 193 848 193 848 296 913 c 128,-1,38
 399 978 399 978 507 978 c 0,39,40
 616 978 616 978 719 913 c 0,41,42
 748 895 748 895 773 872 c 1,43,44
 689 1107 689 1107 539.5 1249 c 128,-1,45
 390 1391 390 1391 213 1404 c 1,46,-1
 213 1459 l 1,47,48
 519 1459 519 1459 728 1174 c 128,-1,49
 937 889 937 889 937 477 c 0,27,28
EndSplineSet
EndChar

StartChar: Delta
Encoding: 8710 8710 209
Width: 1081
GlyphClass: 2
Flags: W
LayerCount: 2
Fore
SplineSet
514 1195 m 1,0,-1
 108 123 l 1,1,-1
 909 123 l 1,2,-1
 514 1195 l 1,0,-1
547 1434 m 1,3,-1
 1073 0 l 1,4,-1
 6 0 l 1,5,-1
 547 1434 l 1,3,-1
EndSplineSet
EndChar

StartChar: product
Encoding: 8719 8719 210
Width: 1515
GlyphClass: 2
Flags: W
LayerCount: 2
Fore
SplineSet
511 1384 m 2,0,1
 409 1384 409 1384 409 1149 c 2,2,-1
 409 -132 l 2,3,4
 409 -367 409 -367 511 -367 c 2,5,-1
 608 -367 l 1,6,-1
 608 -418 l 1,7,-1
 48 -418 l 1,8,-1
 48 -367 l 1,9,-1
 144 -367 l 2,10,11
 247 -367 247 -367 247 -132 c 2,12,-1
 247 1149 l 2,13,14
 247 1384 247 1384 144 1384 c 2,15,-1
 48 1384 l 1,16,-1
 48 1434 l 1,17,-1
 1467 1434 l 1,18,-1
 1467 1384 l 1,19,-1
 1370 1384 l 2,20,21
 1268 1384 1268 1384 1268 1149 c 2,22,-1
 1268 -132 l 2,23,24
 1268 -367 1268 -367 1370 -367 c 2,25,-1
 1467 -367 l 1,26,-1
 1467 -417 l 1,27,-1
 907 -417 l 1,28,-1
 907 -367 l 1,29,-1
 1003 -367 l 2,30,31
 1106 -367 1106 -367 1106 -132 c 2,32,-1
 1106 1149 l 2,33,34
 1106 1384 1106 1384 1003 1384 c 2,35,-1
 511 1384 l 2,0,1
EndSplineSet
EndChar

StartChar: summation
Encoding: 8721 8721 211
Width: 1206
GlyphClass: 2
Flags: W
LayerCount: 2
Fore
SplineSet
1059 548 m 1,0,-1
 271 -366 l 1,1,-1
 906 -366 l 2,2,3
 1036 -366 1036 -366 1095 -184 c 1,4,-1
 1144 -184 l 1,5,-1
 1041 -416 l 1,6,-1
 120 -416 l 1,7,-1
 120 -366 l 1,8,9
 182 -366 182 -366 226 -313 c 2,10,-1
 889 468 l 1,11,-1
 226 1327 l 2,12,13
 182 1384 182 1384 120 1384 c 1,14,-1
 120 1434 l 1,15,-1
 1041 1434 l 1,16,-1
 1144 1202 l 1,17,-1
 1095 1202 l 1,18,19
 1036 1384 1036 1384 906 1384 c 2,20,-1
 421 1384 l 1,21,-1
 1059 548 l 1,0,-1
EndSplineSet
EndChar

StartChar: minus
Encoding: 8722 8722 212
Width: 1024
GlyphClass: 2
Flags: W
LayerCount: 2
Fore
SplineSet
64 480 m 259,0,1
 64 544 64 544 128 544 c 258,2,-1
 896 544 l 258,3,4
 960 544 960 544 960 480 c 275,5,6
 960 416 960 416 896 416 c 266,7,-1
 128 416 l 258,8,9
 64 416 64 416 64 480 c 259,0,1
EndSplineSet
EndChar

StartChar: radical
Encoding: 8730 8730 213
Width: 1014
GlyphClass: 2
Flags: W
LayerCount: 2
Fore
SplineSet
181 0 m 1,0,-1
 17 359 l 1,1,-1
 91 394 l 1,2,-1
 176 209 l 1,3,-1
 904 1679 l 1,4,-1
 1054 1679 l 1,5,-1
 1054 1619 l 1,6,-1
 982 1619 l 1,7,-1
 181 0 l 1,0,-1
EndSplineSet
EndChar

StartChar: infinity
Encoding: 8734 8734 214
Width: 1014
GlyphClass: 2
Flags: W
LayerCount: 2
Fore
SplineSet
439 755 m 1,0,1
 424 858 424 858 365 888 c 0,2,3
 319 910 319 910 281 910 c 0,4,5
 269 910 269 910 258 908 c 0,6,7
 209 898 209 898 165.5 863.5 c 128,-1,8
 122 829 122 829 100 779 c 0,9,10
 80 733 80 733 80 689 c 2,11,-1
 80 681 l 2,12,13
 82 633 82 633 107.5 592 c 128,-1,14
 133 551 133 551 179 534 c 0,15,16
 208 523 208 523 240 523 c 0,17,18
 256 523 256 523 273 526 c 0,19,20
 320 536 320 536 363.5 569.5 c 128,-1,21
 407 603 407 603 439 755 c 1,0,1
466 687 m 1,22,23
 478 591 478 591 560 534 c 0,24,25
 629 486 629 486 683 486 c 0,26,27
 694 486 694 486 704 488 c 0,28,29
 766 500 766 500 821.5 540 c 128,-1,30
 877 580 877 580 906 641 c 0,31,32
 932 695 932 695 932 749 c 2,33,-1
 932 760 l 2,34,35
 930 820 930 820 896.5 868.5 c 128,-1,36
 863 917 863 917 805 937 c 0,37,38
 768 950 768 950 729 950 c 0,39,40
 707 950 707 950 685 946 c 0,41,42
 618 937 618 937 558 884 c 128,-1,43
 498 831 498 831 466 687 c 1,22,23
450 827 m 1,44,45
 459 862 459 862 471 896 c 0,46,47
 505 984 505 984 566 1033 c 128,-1,48
 627 1082 627 1082 694 1082 c 256,49,50
 761 1082 761 1082 822 1034 c 128,-1,51
 883 986 883 986 917 899 c 128,-1,52
 951 812 951 812 951 717 c 256,53,54
 951 622 951 622 917 535 c 128,-1,55
 883 448 883 448 822 400 c 128,-1,56
 761 352 761 352 694 352 c 256,57,58
 627 352 627 352 566 401 c 128,-1,59
 505 450 505 450 471 537 c 0,60,61
 459 572 459 572 450 607 c 1,62,63
 445 586 445 586 438 566 c 0,64,65
 411 493 411 493 364 453 c 128,-1,66
 317 413 317 413 265 413 c 256,67,68
 213 413 213 413 165 454 c 128,-1,69
 117 495 117 495 91.5 567.5 c 128,-1,70
 66 640 66 640 66 717 c 0,71,72
 66 793 66 793 91.5 866 c 128,-1,73
 117 939 117 939 165 980 c 128,-1,74
 213 1021 213 1021 265 1021 c 256,75,76
 317 1021 317 1021 364 981 c 128,-1,77
 411 941 411 941 438 869 c 0,78,79
 445 848 445 848 450 827 c 1,44,45
EndSplineSet
EndChar

StartChar: integral
Encoding: 8747 8747 215
Width: 665
GlyphClass: 2
Flags: W
LayerCount: 2
Fore
SplineSet
-12 -281 m 0,0,1
 -72 -281 -72 -281 -72 -252 c 2,2,-1
 -72 -93 l 1,3,-1
 -36 -93 l 1,4,5
 -35 -136 -35 -136 -1.5 -157.5 c 128,-1,6
 32 -179 32 -179 62 -179 c 2,7,-1
 63 -179 l 2,8,9
 145 -179 145 -179 178 -17 c 0,10,11
 210 145 210 145 218 299 c 1,12,-1
 288 1033 l 1,13,-1
 296 1095 l 2,14,15
 323 1333 323 1333 431 1524.5 c 128,-1,16
 539 1716 539 1716 665 1716 c 0,17,18
 725 1716 725 1716 725 1687 c 2,19,-1
 725 1528 l 1,20,-1
 689 1528 l 1,21,22
 688 1571 688 1571 654 1592.5 c 128,-1,23
 620 1614 620 1614 591 1614 c 0,24,25
 520 1614 520 1614 475 1458.5 c 128,-1,26
 430 1303 430 1303 426 1095 c 1,27,-1
 353 328 l 2,28,29
 333 97 333 97 222.5 -92 c 128,-1,30
 112 -281 112 -281 -12 -281 c 0,0,1
EndSplineSet
EndChar

StartChar: uni3001
Encoding: 12289 12289 220
Width: 2048
GlyphClass: 2
Flags: W
LayerCount: 2
Back
SplineSet
1181 1326 m 4,0,1
 1181 1349 1181 1349 1187 1349 c 4,2,3
 1196 1348 1196 1348 1256 1280 c 4,4,5
 1287 1245 1287 1245 1326 1211.5 c 132,-1,6
 1365 1178 1365 1178 1389 1166 c 4,7,8
 1453 1134 1453 1134 1492.5 1087 c 132,-1,9
 1532 1040 1532 1040 1529 1001 c 4,10,11
 1525 951 1525 951 1496.5 941.5 c 132,-1,12
 1468 932 1468 932 1409 960 c 6,13,-1
 1342 994 l 5,14,-1
 1254 947 l 6,15,16
 1156 894 1156 894 1155 914 c 4,17,18
 1155 934 1155 934 1245 1040 c 6,19,-1
 1301 1108 l 5,20,-1
 1241 1198 l 6,21,22
 1216 1235 1216 1235 1198.5 1272.5 c 132,-1,23
 1181 1310 1181 1310 1181 1326 c 4,0,1
EndSplineSet
Fore
SplineSet
603 -181 m 258,0,-1
 331 91 l 258,1,2
 286 136 286 136 331 181 c 256,3,4
 376 226 376 226 421 181 c 258,5,-1
 693 -91 l 258,6,7
 738 -136 738 -136 693 -181 c 280,8,9
 648 -226 648 -226 603 -181 c 258,0,-1
EndSplineSet
EndChar

StartChar: uni3002
Encoding: 12290 12290 221
Width: 2048
GlyphClass: 2
Flags: W
LayerCount: 2
Back
SplineSet
1267 1343 m 4,16,17
 1316 1366 1316 1366 1375 1362.5 c 132,-1,18
 1434 1359 1434 1359 1477 1332 c 4,19,20
 1516 1307 1516 1307 1536 1249 c 132,-1,21
 1556 1191 1556 1191 1550.5 1127 c 132,-1,22
 1545 1063 1545 1063 1514 1022 c 4,23,24
 1479 975 1479 975 1439.5 960 c 132,-1,25
 1400 945 1400 945 1327 952 c 4,26,27
 1267 958 1267 958 1221 982 c 132,-1,28
 1175 1006 1175 1006 1150 1040 c 132,-1,29
 1125 1074 1125 1074 1118.5 1116.5 c 132,-1,30
 1112 1159 1112 1159 1125.5 1199.5 c 132,-1,31
 1139 1240 1139 1240 1175.5 1278.5 c 132,-1,32
 1212 1317 1212 1317 1267 1343 c 4,16,17
1407 1275 m 4,33,34
 1358 1298 1358 1298 1315.5 1294.5 c 132,-1,35
 1273 1291 1273 1291 1245 1260 c 132,-1,36
 1217 1229 1217 1229 1217 1183 c 4,37,38
 1217 1164 1217 1164 1218.5 1155 c 132,-1,39
 1220 1146 1220 1146 1231.5 1138.5 c 132,-1,40
 1243 1131 1243 1131 1259 1127.5 c 132,-1,41
 1275 1124 1275 1124 1312 1119 c 4,42,43
 1324 1117 1324 1117 1339 1101.5 c 132,-1,44
 1354 1086 1354 1086 1364 1065 c 6,45,-1
 1387 1016 l 5,46,-1
 1433 1056 l 6,47,48
 1460 1079 1460 1079 1470 1098 c 132,-1,49
 1480 1117 1480 1117 1480 1146 c 4,50,51
 1480 1196 1480 1196 1463.5 1225 c 132,-1,52
 1447 1254 1447 1254 1407 1275 c 4,33,34
EndSplineSet
Fore
SplineSet
384 0 m 263,0,1
 384 -128 384 -128 512 -128 c 263,2,3
 640 -128 640 -128 640 0 c 263,4,5
 640 128 640 128 512 128 c 263,6,7
 384 128 384 128 384 0 c 263,0,1
256 0 m 263,8,9
 256 256 256 256 512 256 c 263,10,11
 768 256 768 256 768 0 c 263,12,13
 768 -256 768 -256 512 -256 c 263,14,15
 256 -256 256 -256 256 0 c 263,8,9
EndSplineSet
EndChar

StartChar: uni3005
Encoding: 12293 12293 222
Width: 2048
VWidth: 1882
GlyphClass: 2
Flags: W
LayerCount: 2
Fore
SplineSet
706 1076 m 0,0,1
 731 1092 731 1092 775 1088 c 128,-1,2
 819 1084 819 1084 864 1061 c 0,3,4
 941 1021 941 1021 971 953 c 0,5,6
 997 891 997 891 963 859 c 0,7,8
 944 841 944 841 907 841 c 0,9,10
 869 841 869 841 850.5 816.5 c 128,-1,11
 832 792 832 792 825 734 c 0,12,13
 813 625 813 625 894.5 555 c 128,-1,14
 976 485 976 485 1143 460 c 0,15,16
 1227 448 1227 448 1281 423 c 128,-1,17
 1335 398 1335 398 1347 367 c 0,18,19
 1370 304 1370 304 1330.5 271.5 c 128,-1,20
 1291 239 1291 239 1185 233 c 0,21,22
 1103 229 1103 229 1017 185 c 0,23,24
 949 151 949 151 868.5 74 c 128,-1,25
 788 -3 788 -3 757 -63 c 0,26,27
 734 -108 734 -108 717 -110 c 0,28,29
 702 -112 702 -112 712 -78 c 0,30,31
 722 -45 722 -45 730 -15 c 0,32,33
 742 27 742 27 797 109.5 c 128,-1,34
 852 192 852 192 920 270 c 0,35,36
 960 316 960 316 965 335.5 c 128,-1,37
 970 355 970 355 943 364 c 0,38,39
 906 375 906 375 844 445 c 128,-1,40
 782 515 782 515 748 582 c 0,41,42
 716 646 716 646 709.5 681.5 c 128,-1,43
 703 717 703 717 706 826 c 0,44,45
 708 980 708 980 696.5 1021.5 c 128,-1,46
 685 1063 685 1063 706 1076 c 0,0,1
EndSplineSet
EndChar

StartChar: uni3041
Encoding: 12353 12353 223
Width: 2048
VWidth: 1882
GlyphClass: 2
Flags: W
LayerCount: 2
Fore
SplineSet
1315 1028 m 0,0,1
 1315 1080 1315 1080 1385 1049 c 0,2,3
 1420 1033 1420 1033 1477 996 c 0,4,5
 1502 980 1502 980 1514.5 971.5 c 128,-1,6
 1527 963 1527 963 1540.5 953.5 c 128,-1,7
 1554 944 1554 944 1559 938 c 128,-1,8
 1564 932 1564 932 1569.5 925.5 c 128,-1,9
 1575 919 1575 919 1575.5 911 c 128,-1,10
 1576 903 1576 903 1576 896 c 128,-1,11
 1576 889 1576 889 1575 876 c 0,12,13
 1573 841 1573 841 1564 829.5 c 128,-1,14
 1555 818 1555 818 1525 810 c 0,15,16
 1499 803 1499 803 1487 791.5 c 128,-1,17
 1475 780 1475 780 1469 754 c 0,18,19
 1459 708 1459 708 1473 693.5 c 128,-1,20
 1487 679 1487 679 1536 687 c 0,21,22
 1571 692 1571 692 1593.5 687 c 128,-1,23
 1616 682 1616 682 1651 660 c 0,24,25
 1688 637 1688 637 1700 618 c 128,-1,26
 1712 599 1712 599 1719 555 c 0,27,28
 1736 434 1736 434 1640 267 c 0,29,30
 1599 196 1599 196 1495.5 94.5 c 128,-1,31
 1392 -7 1392 -7 1331 -37 c 0,32,33
 1264 -69 1264 -69 1226 -88 c 128,-1,34
 1188 -107 1188 -107 1123 -117 c 0,35,36
 1070 -126 1070 -126 1069 -119 c 0,37,38
 1069 -115 1069 -115 1079 -104 c 0,39,40
 1098 -79 1098 -79 1110 -79 c 0,41,42
 1132 -79 1132 -79 1211.5 -21.5 c 128,-1,43
 1291 36 1291 36 1356 98 c 0,44,45
 1364 106 1364 106 1379 120 c 0,46,47
 1436 174 1436 174 1426.5 192 c 128,-1,48
 1417 210 1417 210 1302 263 c 0,49,50
 1273 277 1273 277 1256 284 c 0,51,52
 1197 312 1197 312 1169 346 c 128,-1,53
 1141 380 1141 380 1149 415 c 0,54,55
 1162 470 1162 470 1209 528 c 128,-1,56
 1256 586 1256 586 1314 615 c 2,57,-1
 1359 639 l 1,58,-1
 1358 788 l 2,59,60
 1357 937 1357 937 1336 965.5 c 128,-1,61
 1315 994 1315 994 1315 1028 c 0,0,1
1571 588 m 0,62,63
 1542 609 1542 609 1503 607.5 c 128,-1,64
 1464 606 1464 606 1455 583 c 0,65,66
 1444 556 1444 556 1448 384.5 c 128,-1,67
 1452 213 1452 213 1463 213 c 0,68,69
 1468 213 1468 213 1487 241 c 128,-1,70
 1506 269 1506 269 1528 308 c 0,71,72
 1577 396 1577 396 1590 480.5 c 128,-1,73
 1603 565 1603 565 1571 588 c 0,62,63
1354 427 m 0,74,75
 1358 436 1358 436 1356.5 456 c 128,-1,76
 1355 476 1355 476 1349 495 c 2,77,-1
 1335 541 l 1,78,-1
 1302 494 l 2,79,80
 1276 457 1276 457 1278.5 440 c 128,-1,81
 1281 423 1281 423 1315 414 c 0,82,83
 1346 406 1346 406 1354 427 c 0,74,75
EndSplineSet
EndChar

StartChar: uni3042
Encoding: 12354 12354 224
Width: 2048
VWidth: 1882
GlyphClass: 2
Flags: W
LayerCount: 2
Back
SplineSet
907 1519 m 4,0,1
 925 1537 925 1537 998.5 1509.5 c 132,-1,2
 1072 1482 1072 1482 1175 1418 c 4,3,4
 1230 1384 1230 1384 1246.5 1365.5 c 132,-1,5
 1263 1347 1263 1347 1269 1312 c 4,6,7
 1275 1275 1275 1275 1268 1259 c 132,-1,8
 1261 1243 1261 1243 1226 1214 c 4,9,10
 1206 1196 1206 1196 1186 1167.5 c 132,-1,11
 1166 1139 1166 1139 1159.5 1118.5 c 132,-1,12
 1153 1098 1153 1098 1147.5 1032 c 132,-1,13
 1142 966 1142 966 1138.5 885.5 c 132,-1,14
 1135 805 1135 805 1133.5 728 c 132,-1,15
 1132 651 1132 651 1134 599.5 c 132,-1,16
 1136 548 1136 548 1142 548 c 260,17,18
 1148 548 1148 548 1173 571 c 132,-1,19
 1198 594 1198 594 1225 626 c 4,20,21
 1265 673 1265 673 1278.5 700 c 132,-1,22
 1292 727 1292 727 1292 762 c 4,23,24
 1292 834 1292 834 1310.5 845.5 c 132,-1,25
 1329 857 1329 857 1395 826 c 4,26,27
 1471 791 1471 791 1513 729 c 4,28,29
 1550 676 1550 676 1554 649 c 132,-1,30
 1558 622 1558 622 1535 579 c 4,31,32
 1517 545 1517 545 1492.5 531.5 c 132,-1,33
 1468 518 1468 518 1411 511 c 4,34,35
 1389 508 1389 508 1342 490 c 132,-1,36
 1295 472 1295 472 1249 449 c 6,37,-1
 1139 394 l 5,38,-1
 1134 165 l 6,39,40
 1130 -65 1130 -65 1143 -145 c 4,41,42
 1170 -317 1170 -317 1108 -315 c 4,43,44
 1083 -314 1083 -314 1044 -286 c 4,45,46
 1010 -262 1010 -262 994 -202.5 c 132,-1,47
 978 -143 978 -143 999 -118 c 4,48,49
 1011 -103 1011 -103 1026 90.5 c 132,-1,50
 1041 284 1041 284 1032 317 c 4,51,52
 1028 334 1028 334 1019.5 334.5 c 132,-1,53
 1011 335 1011 335 981 322 c 4,54,55
 865 273 865 273 646 231 c 4,56,57
 485 201 485 201 494 220 c 4,58,59
 497 226 497 226 518 236 c 4,60,61
 553 252 553 252 671 300 c 4,62,63
 861 378 861 378 938.5 421 c 132,-1,64
 1016 464 1016 464 1029 500 c 4,65,66
 1043 535 1043 535 1042 861 c 132,-1,67
 1041 1187 1041 1187 1028 1240 c 4,68,69
 1013 1297 1013 1297 984 1304 c 4,70,71
 972 1307 972 1307 964 1316.5 c 132,-1,72
 956 1326 956 1326 956 1336 c 4,73,74
 956 1360 956 1360 926 1408 c 4,75,76
 904 1444 904 1444 899 1475 c 132,-1,77
 894 1506 894 1506 907 1519 c 4,0,1
EndSplineSet
Fore
SplineSet
1024 -256 m 258,0,-1
 1024 345 l 257,1,2
 819 256 819 256 576 256 c 259,3,4
 512 256 512 256 512 320 c 259,5,6
 512 384 512 384 576 384 c 259,7,8
 814 384 814 384 1024 495 c 257,9,-1
 1024 1280 l 258,10,11
 1024 1344 1024 1344 1088 1344 c 259,12,13
 1152 1344 1152 1344 1152 1280 c 258,14,-1
 1152 576 l 257,15,16
 1281 670 1281 670 1398 810 c 256,17,18
 1439 859 1439 859 1488 820 c 256,19,20
 1537 781 1537 781 1498 730 c 256,21,22
 1343 527 1343 527 1152 411 c 257,23,-1
 1152 -256 l 258,24,25
 1152 -320 1152 -320 1088 -320 c 259,26,27
 1024 -320 1024 -320 1024 -256 c 258,0,-1
EndSplineSet
EndChar

StartChar: uni3043
Encoding: 12355 12355 225
Width: 2048
VWidth: 1882
GlyphClass: 2
Flags: W
LayerCount: 2
Fore
SplineSet
1110 1055 m 0,0,1
 1110 1086 1110 1086 1175 1076 c 0,2,3
 1252 1064 1252 1064 1327 1010 c 0,4,5
 1371 978 1371 978 1376 929.5 c 128,-1,6
 1381 881 1381 881 1343 854 c 0,7,8
 1312 832 1312 832 1300 769 c 0,9,10
 1287 703 1287 703 1287 613.5 c 128,-1,11
 1287 524 1287 524 1301 516 c 0,12,13
 1313 509 1313 509 1387.5 580 c 128,-1,14
 1462 651 1462 651 1462 670 c 0,15,16
 1462 676 1462 676 1472 687 c 128,-1,17
 1482 698 1482 698 1497 707 c 0,18,19
 1520 722 1520 722 1533 722.5 c 128,-1,20
 1546 723 1546 723 1576 707 c 0,21,22
 1626 682 1626 682 1646 655.5 c 128,-1,23
 1666 629 1666 629 1666 589 c 0,24,25
 1666 546 1666 546 1645.5 526.5 c 128,-1,26
 1625 507 1625 507 1574 502 c 0,27,28
 1513 497 1513 497 1458.5 455.5 c 128,-1,29
 1404 414 1404 414 1377 352 c 0,30,31
 1279 126 1279 126 1406 19 c 0,32,33
 1435 -5 1435 -5 1461 -11.5 c 128,-1,34
 1487 -18 1487 -18 1558 -18 c 0,35,36
 1603 -18 1603 -18 1634.5 -21.5 c 128,-1,37
 1666 -25 1666 -25 1666 -30 c 0,38,39
 1666 -43 1666 -43 1636 -70 c 0,40,41
 1600 -102 1600 -102 1503.5 -99 c 128,-1,42
 1407 -96 1407 -96 1359 -62 c 0,43,44
 1306 -24 1306 -24 1274 53 c 128,-1,45
 1242 130 1242 130 1242 221 c 0,46,47
 1242 320 1242 320 1218 367 c 0,48,49
 1199 405 1199 405 1196 459 c 128,-1,50
 1193 513 1193 513 1197 734 c 2,51,-1
 1201 936 l 1,52,-1
 1156 983 l 2,53,54
 1137 1003 1137 1003 1123.5 1023.5 c 128,-1,55
 1110 1044 1110 1044 1110 1055 c 0,0,1
EndSplineSet
EndChar

StartChar: uni3044
Encoding: 12356 12356 226
Width: 2048
VWidth: 1882
GlyphClass: 2
Flags: W
LayerCount: 2
Back
SplineSet
967 1035 m 4,0,1
 979 1063 979 1063 991 1075 c 132,-1,2
 1003 1087 1003 1087 1024.5 1087.5 c 132,-1,3
 1046 1088 1046 1088 1075 1076 c 132,-1,4
 1104 1064 1104 1064 1154 1037 c 4,5,6
 1237 993 1237 993 1261 961 c 132,-1,7
 1285 929 1285 929 1275 877 c 4,8,9
 1265 824 1265 824 1239 808.5 c 132,-1,10
 1213 793 1213 793 1146 801 c 4,11,12
 1073 810 1073 810 1035 791 c 132,-1,13
 997 772 997 772 961 709 c 4,14,15
 936 666 936 666 929.5 632 c 132,-1,16
 923 598 923 598 924 511 c 4,17,18
 924 426 924 426 931.5 389.5 c 132,-1,19
 939 353 939 353 965 302 c 4,20,21
 1027 182 1027 182 1149.5 93 c 132,-1,22
 1272 4 1272 4 1432 -37 c 4,23,24
 1475 -48 1475 -48 1507 -60 c 132,-1,25
 1539 -72 1539 -72 1541 -78 c 4,26,27
 1548 -98 1548 -98 1481 -101 c 4,28,29
 1379 -106 1379 -106 1270 -76 c 4,30,31
 1248 -71 1248 -71 1230 -64 c 4,32,33
 1181 -45 1181 -45 1099.5 13 c 132,-1,34
 1018 71 1018 71 971 119 c 4,35,36
 948 143 948 143 914.5 195.5 c 132,-1,37
 881 248 881 248 857 297 c 4,38,39
 814 386 814 386 806.5 423 c 132,-1,40
 799 460 799 460 799 577 c 4,41,42
 799 795 799 795 840 825 c 4,43,44
 854 835 854 835 901.5 913.5 c 132,-1,45
 949 992 949 992 967 1035 c 4,0,1
506 1456 m 4,46,47
 506 1474 506 1474 590 1464 c 4,48,49
 648 1457 648 1457 715 1427 c 132,-1,50
 782 1397 782 1397 827 1359 c 132,-1,51
 872 1321 872 1321 872 1293 c 4,52,53
 872 1263 872 1263 861.5 1242 c 132,-1,54
 851 1221 851 1221 835 1221 c 4,55,56
 818 1221 818 1221 806.5 1211 c 132,-1,57
 795 1201 795 1201 785.5 1167 c 132,-1,58
 776 1133 776 1133 770.5 1083 c 132,-1,59
 765 1033 765 1033 760 937 c 132,-1,60
 755 841 755 841 752 724 c 132,-1,61
 749 607 749 607 746 424 c 6,62,-1
 737 -88 l 5,63,-1
 776 -174 l 6,64,65
 800 -230 800 -230 803.5 -251.5 c 132,-1,66
 807 -273 807 -273 795 -298 c 4,67,68
 778 -335 778 -335 754.5 -339 c 132,-1,69
 731 -343 731 -343 688 -316 c 4,70,71
 584 -252 584 -252 630 -97 c 4,72,73
 646 -43 646 -43 649 71 c 132,-1,74
 652 185 652 185 649 585 c 4,75,76
 646 927 646 927 640.5 1067.5 c 132,-1,77
 635 1208 635 1208 624 1239 c 4,78,79
 616 1262 616 1262 607 1278 c 132,-1,80
 598 1294 598 1294 593 1294 c 4,81,82
 582 1294 582 1294 544 1365.5 c 132,-1,83
 506 1437 506 1437 506 1456 c 4,46,47
EndSplineSet
Fore
SplineSet
1115 971 m 256,0,1
 1173 1000 1173 1000 1202 942 c 256,2,3
 1231 884 1231 884 1173 855 c 256,4,5
 960 748 960 748 960 512 c 259,6,7
 960 300 960 300 1110 150 c 256,8,9
 1260 0 1260 0 1472 0 c 259,10,11
 1536 0 1536 0 1536 -64 c 259,12,13
 1536 -128 1536 -128 1472 -128 c 259,14,15
 1208 -128 1208 -128 1020 60 c 256,16,17
 832 248 832 248 832 512 c 259,18,19
 832 830 832 830 1115 971 c 256,0,1
640 -256 m 262,20,-1
 640 1280 l 262,21,22
 640 1344 640 1344 704 1344 c 263,23,24
 768 1344 768 1344 768 1280 c 262,25,-1
 768 -256 l 262,26,27
 768 -320 768 -320 704 -320 c 263,28,29
 640 -320 640 -320 640 -256 c 262,20,-1
EndSplineSet
EndChar

StartChar: uni3045
Encoding: 12357 12357 227
Width: 2048
VWidth: 1882
GlyphClass: 2
Flags: W
LayerCount: 2
Fore
SplineSet
1175 1036 m 0,0,1
 1175 1093 1175 1093 1285 1034 c 0,2,3
 1327 1012 1327 1012 1375 965 c 128,-1,4
 1423 918 1423 918 1424 900 c 0,5,6
 1424 888 1424 888 1391 827 c 0,7,8
 1370 787 1370 787 1364 748 c 128,-1,9
 1358 709 1358 709 1359 604 c 0,10,11
 1360 444 1360 444 1371.5 362 c 128,-1,12
 1383 280 1383 280 1366 248 c 256,13,14
 1349 216 1349 216 1370 217 c 0,15,16
 1398 218 1398 218 1532 285 c 0,17,18
 1685 361 1685 361 1687 335 c 0,19,20
 1688 309 1688 309 1550 214 c 0,21,22
 1522 194 1522 194 1488 172 c 0,23,24
 1354 85 1354 85 1345 85 c 0,25,26
 1331 85 1331 85 1231 13 c 128,-1,27
 1131 -59 1131 -59 1110 -85 c 0,28,29
 1091 -108 1091 -108 1078.5 -112 c 128,-1,30
 1066 -116 1066 -116 1042 -107 c 0,31,32
 1010 -94 1010 -94 976.5 -52 c 128,-1,33
 943 -10 943 -10 917 50 c 0,34,35
 894 107 894 107 912.5 120.5 c 128,-1,36
 931 134 931 134 1000 109 c 2,37,-1
 1071 84 l 1,38,-1
 1186 131 l 2,39,40
 1305 180 1305 180 1316 195 c 0,41,42
 1323 205 1323 205 1304 220 c 0,43,44
 1275 242 1275 242 1218 361.5 c 128,-1,45
 1161 481 1161 481 1161 520 c 0,46,47
 1161 564 1161 564 1172 565 c 128,-1,48
 1183 566 1183 566 1224 528 c 2,49,-1
 1266 487 l 1,50,-1
 1260 685 l 2,51,52
 1256 823 1256 823 1249 862 c 128,-1,53
 1242 901 1242 901 1215 945 c 0,54,55
 1199 970 1199 970 1187 997 c 128,-1,56
 1175 1024 1175 1024 1175 1036 c 0,0,1
EndSplineSet
EndChar

StartChar: uni3046
Encoding: 12358 12358 228
Width: 2048
VWidth: 1882
GlyphClass: 2
Flags: W
LayerCount: 2
Back
SplineSet
791 1364 m 4,0,1
 794 1374 794 1374 797.5 1377.5 c 132,-1,2
 801 1381 801 1381 812 1380.5 c 132,-1,3
 823 1380 823 1380 837.5 1375.5 c 132,-1,4
 852 1371 852 1371 885 1359 c 4,5,6
 1079 1291 1079 1291 1113 1180 c 4,7,8
 1124 1144 1124 1144 1098 1109.5 c 132,-1,9
 1072 1075 1072 1075 1027 1067 c 4,10,11
 1006 1063 1006 1063 988 1053 c 132,-1,12
 970 1043 970 1043 966 1033 c 4,13,14
 957 1009 957 1009 948 740 c 6,15,-1
 940 470 l 5,16,-1
 990 479 l 6,17,18
 1040 487 1040 487 1259.5 546 c 132,-1,19
 1479 605 1479 605 1507 606 c 4,20,21
 1535 606 1535 606 1518 587 c 4,22,23
 1498 567 1498 567 1445 545 c 4,24,25
 1371 513 1371 513 1223 457.5 c 132,-1,26
 1075 402 1075 402 1047 394 c 4,27,28
 1011 384 1011 384 978 364 c 4,29,30
 954 349 954 349 949.5 319 c 132,-1,31
 945 289 945 289 945 149 c 4,32,33
 945 56 945 56 951 -19 c 132,-1,34
 957 -94 957 -94 968 -140 c 4,35,36
 992 -235 992 -235 999 -303 c 4,37,38
 1004 -347 1004 -347 999 -363 c 132,-1,39
 994 -379 994 -379 973 -394 c 4,40,41
 943 -414 943 -414 916 -403.5 c 132,-1,42
 889 -393 889 -393 861 -349 c 4,43,44
 845 -324 845 -324 840.5 -284 c 132,-1,45
 836 -244 836 -244 839 -133 c 4,46,47
 842 43 842 43 851 171 c 132,-1,48
 860 299 860 299 845 299 c 4,49,50
 838 299 838 299 818 283 c 132,-1,51
 798 267 798 267 777 245 c 4,52,53
 743 211 743 211 723 201.5 c 132,-1,54
 703 192 703 192 665 193 c 4,55,56
 613 195 613 195 583.5 225.5 c 132,-1,57
 554 256 554 256 534 327 c 4,58,59
 522 370 522 370 524 389.5 c 132,-1,60
 526 409 526 409 544 444 c 4,61,62
 570 491 570 491 606 497.5 c 132,-1,63
 642 504 642 504 659 465 c 4,64,65
 672 436 672 436 696.5 429 c 132,-1,66
 721 422 721 422 784 430 c 6,67,-1
 850 438 l 5,68,-1
 854 658 l 6,69,70
 858 842 858 842 844.5 1016 c 132,-1,71
 831 1190 831 1190 806 1272 c 4,72,73
 784 1345 784 1345 791 1364 c 4,0,1
EndSplineSet
Fore
SplineSet
832 -256 m 258,0,-1
 832 301.949367089 l 257,1,-1
 656 258 l 258,2,3
 594 242 594 242 578 304 c 256,4,5
 562 366 562 366 624 382 c 258,6,-1
 832 433.88045977 l 257,7,-1
 832 1280 l 258,8,9
 832 1344 832 1344 896 1344 c 259,10,11
 960 1344 960 1344 960 1280 c 258,12,-1
 960 465.806896552 l 257,13,-1
 1494 599 l 258,14,15
 1556 615 1556 615 1571 553 c 256,16,17
 1587 491 1587 491 1525 475 c 258,18,-1
 960 333.912543153 l 257,19,-1
 960 -256 l 258,20,21
 960 -320 960 -320 896 -320 c 259,22,23
 832 -320 832 -320 832 -256 c 258,0,-1
EndSplineSet
EndChar

StartChar: uni3047
Encoding: 12359 12359 229
Width: 2048
VWidth: 1882
GlyphClass: 2
Flags: W
LayerCount: 2
Fore
SplineSet
1226 1020 m 0,0,1
 1230 1062 1230 1062 1351 1001 c 0,2,3
 1437 958 1437 958 1450 924 c 128,-1,4
 1463 890 1463 890 1414 842 c 0,5,6
 1402 830 1402 830 1395.5 812 c 128,-1,7
 1389 794 1389 794 1390 778 c 0,8,9
 1393 754 1393 754 1410 741.5 c 128,-1,10
 1427 729 1427 729 1483 710 c 0,11,12
 1561 683 1561 683 1620 647 c 128,-1,13
 1679 611 1679 611 1695 582 c 0,14,15
 1716 542 1716 542 1707.5 498.5 c 128,-1,16
 1699 455 1699 455 1663 422 c 0,17,18
 1616 379 1616 379 1604 379 c 0,19,20
 1587 379 1587 379 1402 288.5 c 128,-1,21
 1217 198 1217 198 1189 175 c 0,22,23
 1136 133 1136 133 1076.5 48 c 128,-1,24
 1017 -37 1017 -37 997 -101 c 2,25,-1
 971 -184 l 1,26,-1
 966 -116 l 2,27,28
 959 -17 959 -17 1026.5 89.5 c 128,-1,29
 1094 196 1094 196 1213 277 c 0,30,31
 1286 327 1286 327 1302 345.5 c 128,-1,32
 1318 364 1318 364 1303 383 c 0,33,34
 1282 410 1282 410 1279.5 451.5 c 128,-1,35
 1277 493 1277 493 1293 532 c 0,36,37
 1319 593 1319 593 1308.5 723.5 c 128,-1,38
 1298 854 1298 854 1263 906 c 0,39,40
 1239 943 1239 943 1231 967 c 128,-1,41
 1223 991 1223 991 1226 1020 c 0,0,1
1465 663 m 0,42,43
 1415 686 1415 686 1411 686 c 0,44,45
 1396 686 1396 686 1390.5 648 c 128,-1,46
 1385 610 1385 610 1390 558.5 c 128,-1,47
 1395 507 1395 507 1409 473 c 0,48,49
 1425 435 1425 435 1433 430.5 c 128,-1,50
 1441 426 1441 426 1464 441 c 0,51,52
 1478 450 1478 450 1497.5 470 c 128,-1,53
 1517 490 1517 490 1530 510 c 0,54,55
 1554 544 1554 544 1555 556.5 c 128,-1,56
 1556 569 1556 569 1539 598 c 0,57,58
 1529 615 1529 615 1507.5 634 c 128,-1,59
 1486 653 1486 653 1465 663 c 0,42,43
EndSplineSet
EndChar

StartChar: uni3048
Encoding: 12360 12360 230
Width: 2048
VWidth: 1882
GlyphClass: 2
Flags: W
LayerCount: 2
Back
SplineSet
885 1407 m 132,-1,1
 885 1426 885 1426 940 1426 c 4,2,3
 1051 1426 1051 1426 1128.5 1370.5 c 132,-1,4
 1206 1315 1206 1315 1206 1236 c 4,5,6
 1206 1178 1206 1178 1177 1158 c 4,7,8
 1156 1143 1156 1143 1137.5 1083 c 132,-1,9
 1119 1023 1119 1023 1119 965 c 4,10,11
 1119 939 1119 939 1129 924.5 c 132,-1,12
 1139 910 1139 910 1168 894 c 4,13,14
 1230 860 1230 860 1318.5 771.5 c 132,-1,15
 1407 683 1407 683 1448 614 c 4,16,17
 1480 559 1480 559 1489.5 527 c 132,-1,18
 1499 495 1499 495 1499 438 c 132,-1,19
 1499 381 1499 381 1491 353.5 c 132,-1,20
 1483 326 1483 326 1456 288 c 4,21,22
 1413 229 1413 229 1395.5 218 c 132,-1,23
 1378 207 1378 207 1247.5 195.5 c 132,-1,24
 1117 184 1117 184 1104 176 c 4,25,26
 1087 165 1087 165 1090.5 -17 c 132,-1,27
 1094 -199 1094 -199 1112 -249 c 4,28,29
 1140 -329 1140 -329 1127.5 -355 c 132,-1,30
 1115 -381 1115 -381 1059 -358 c 4,31,32
 1028 -346 1028 -346 1000 -305 c 132,-1,33
 972 -264 972 -264 972 -232 c 4,34,35
 972 -211 972 -211 995 -141.5 c 132,-1,36
 1018 -72 1018 -72 1013 44 c 4,37,38
 1010 131 1010 131 1004.5 145.5 c 132,-1,39
 999 160 999 160 969 158 c 4,40,41
 917 154 917 154 808.5 95.5 c 132,-1,42
 700 37 700 37 667 -6 c 4,43,44
 592 -104 592 -104 592 -178 c 4,45,46
 592 -212 592 -212 577 -209 c 4,47,48
 561 -207 561 -207 553 -169 c 4,49,50
 551 -161 551 -161 550 -153 c 4,51,52
 545 -103 545 -103 564 -47 c 4,53,54
 585 15 585 15 684.5 101.5 c 132,-1,55
 784 188 784 188 898 244 c 6,56,-1
 1021 304 l 5,57,-1
 1013 594 l 6,58,59
 1005 884 1005 884 987 905.5 c 132,-1,60
 969 927 969 927 901 959 c 4,61,62
 830 992 830 992 799 1023.5 c 132,-1,63
 768 1055 768 1055 768 1092 c 4,64,65
 768 1134 768 1134 801.5 1184 c 132,-1,66
 835 1234 835 1234 880 1258 c 4,67,68
 920 1279 920 1279 926 1302 c 132,-1,69
 932 1325 932 1325 907 1358 c 4,70,0
 885 1388 885 1388 885 1407 c 132,-1,1
978 1165.5 m 132,-1,72
 971 1177 971 1177 953 1177 c 4,73,74
 934 1177 934 1177 887.5 1147.5 c 132,-1,75
 841 1118 841 1118 841 1105 c 4,76,77
 841 1091 841 1091 889.5 1055 c 132,-1,78
 938 1019 938 1019 971 1009 c 4,79,80
 997 1001 997 1001 1000 1010 c 132,-1,81
 1003 1019 1003 1019 996 1076 c 4,82,71
 985 1154 985 1154 978 1165.5 c 132,-1,72
1225 755 m 4,83,84
 1184 792 1184 792 1146 817 c 4,85,86
 1117 835 1117 835 1110.5 834.5 c 132,-1,87
 1104 834 1104 834 1097 810 c 4,88,89
 1087 778 1087 778 1085.5 561 c 132,-1,90
 1084 344 1084 344 1094 334 c 4,91,92
 1108 320 1108 320 1198 353 c 132,-1,93
 1288 386 1288 386 1310 413 c 4,94,95
 1354 470 1354 470 1327.5 577.5 c 132,-1,96
 1301 685 1301 685 1225 755 c 4,83,84
EndSplineSet
Fore
SplineSet
710 145 m 256,0,1
 694 208 694 208 756 223 c 256,2,3
 869 251 869 251 960 279 c 257,4,-1
 960 885 l 257,5,6
 888 925 888 925 803 967 c 256,7,8
 746 995 746 995 775 1053 c 256,9,10
 803 1110 803 1110 861 1081 c 256,11,12
 913 1055 913 1055 960 1030 c 257,13,-1
 960 1280 l 258,14,15
 960 1344 960 1344 1024 1344 c 256,16,17
 1088 1344 1088 1344 1088 1280 c 258,18,-1
 1088 956 l 257,19,20
 1472 721 1472 721 1472 512 c 256,21,22
 1472 331 1472 331 1088 189 c 257,23,-1
 1088 -256 l 258,24,25
 1088 -320 1088 -320 1024 -320 c 256,26,27
 960 -320 960 -320 960 -256 c 258,28,-1
 960 146 l 257,29,30
 880 122 880 122 787 99 c 256,31,32
 725 83 725 83 710 145 c 256,0,1
1088 808 m 257,33,-1
 1088 322 l 257,34,35
 1344 418 1344 418 1344 512 c 256,36,37
 1344 642 1344 642 1088 808 c 257,33,-1
EndSplineSet
EndChar

StartChar: uni3049
Encoding: 12361 12361 231
Width: 2048
VWidth: 1882
GlyphClass: 2
Flags: W
LayerCount: 2
Fore
SplineSet
1048 997 m 0,0,1
 1054 1014 1054 1014 1065 1018.5 c 128,-1,2
 1076 1023 1076 1023 1098.5 1013 c 128,-1,3
 1121 1003 1121 1003 1153 980 c 128,-1,4
 1185 957 1185 957 1237 913 c 0,5,6
 1266 890 1266 890 1286 867.5 c 128,-1,7
 1306 845 1306 845 1306 837 c 128,-1,8
 1306 829 1306 829 1293 809 c 128,-1,9
 1280 789 1280 789 1262 769 c 0,10,11
 1238 743 1238 743 1228 720.5 c 128,-1,12
 1218 698 1218 698 1218 667 c 0,13,14
 1218 631 1218 631 1229.5 613 c 128,-1,15
 1241 595 1241 595 1284 564 c 0,16,17
 1327 532 1327 532 1349 495.5 c 128,-1,18
 1371 459 1371 459 1383.5 398 c 128,-1,19
 1396 337 1396 337 1406 219 c 0,20,21
 1416 93 1416 93 1424 59.5 c 128,-1,22
 1432 26 1432 26 1461 -4 c 0,23,24
 1487 -31 1487 -31 1507 -39 c 128,-1,25
 1527 -47 1527 -47 1569 -47 c 0,26,27
 1596 -46 1596 -46 1626.5 -40 c 128,-1,28
 1657 -34 1657 -34 1672 -25 c 0,29,30
 1731 9 1731 9 1742.5 -11 c 128,-1,31
 1754 -31 1754 -31 1705 -79 c 0,32,33
 1700 -84 1700 -84 1694 -90 c 0,34,35
 1620 -154 1620 -154 1539.5 -151.5 c 128,-1,36
 1459 -149 1459 -149 1390 -80 c 0,37,38
 1353 -43 1353 -43 1336.5 -6.5 c 128,-1,39
 1320 30 1320 30 1313.5 88.5 c 128,-1,40
 1307 147 1307 147 1307 261 c 0,41,42
 1306 373 1306 373 1301 408.5 c 128,-1,43
 1296 444 1296 444 1276 470 c 0,44,45
 1246 508 1246 508 1231.5 508 c 128,-1,46
 1217 508 1217 508 1220 310 c 0,47,48
 1223 188 1223 188 1219 145.5 c 128,-1,49
 1215 103 1215 103 1201 89 c 0,50,51
 1155 45 1155 45 1088 160 c 0,52,53
 1054 219 1054 219 1000 241 c 0,54,55
 936 267 936 267 916 293 c 128,-1,56
 896 319 896 319 896 378 c 0,57,58
 896 422 896 422 905 445.5 c 128,-1,59
 914 469 914 469 943 503 c 0,60,61
 962 525 962 525 995 549 c 128,-1,62
 1028 573 1028 573 1054 584 c 2,63,-1
 1119 611 l 1,64,-1
 1113 731 l 2,65,66
 1110 801 1110 801 1101 839.5 c 128,-1,67
 1092 878 1092 878 1073 912 c 0,68,69
 1058 938 1058 938 1051 962 c 128,-1,70
 1044 986 1044 986 1048 997 c 0,0,1
1113 445 m 0,71,72
 1111 473 1111 473 1105.5 494 c 128,-1,73
 1100 515 1100 515 1094 517 c 0,74,75
 1074 523 1074 523 1036.5 486 c 128,-1,76
 999 449 999 449 999 424 c 0,77,78
 999 396 999 396 1032 376.5 c 128,-1,79
 1065 357 1065 357 1094 368 c 0,80,81
 1107 373 1107 373 1111 389 c 128,-1,82
 1115 405 1115 405 1113 445 c 0,71,72
EndSplineSet
EndChar

StartChar: uni304A
Encoding: 12362 12362 232
Width: 2048
VWidth: 1882
GlyphClass: 2
Flags: W
LayerCount: 2
Back
SplineSet
707 1349 m 4,0,1
 709 1356 709 1356 717 1361.5 c 132,-1,2
 725 1367 725 1367 732 1367 c 4,3,4
 755 1367 755 1367 808 1330 c 132,-1,5
 861 1293 861 1293 905 1248 c 132,-1,6
 949 1203 949 1203 949 1183 c 4,7,8
 949 1161 949 1161 927 1119.5 c 132,-1,9
 905 1078 905 1078 884 1062 c 4,10,11
 861 1042 861 1042 862 974 c 4,12,13
 862 927 862 927 871 911 c 132,-1,14
 880 895 880 895 921 870 c 260,15,16
 962 845 962 845 1010 781 c 132,-1,17
 1058 717 1058 717 1081 656 c 4,18,19
 1094 623 1094 623 1110 437 c 4,20,21
 1119 327 1119 327 1129.5 274.5 c 132,-1,22
 1140 222 1140 222 1161 181 c 4,23,24
 1192 119 1192 119 1221.5 99.5 c 132,-1,25
 1251 80 1251 80 1312 80 c 4,26,27
 1392 80 1392 80 1481.5 134.5 c 132,-1,28
 1571 189 1571 189 1639 279 c 4,29,30
 1649 292 1649 292 1659.5 302 c 132,-1,31
 1670 312 1670 312 1676.5 315.5 c 132,-1,32
 1683 319 1683 319 1686 315 c 4,33,34
 1695 301 1695 301 1685 241.5 c 132,-1,35
 1675 182 1675 182 1664 182 c 4,36,37
 1659 182 1659 182 1646.5 166 c 132,-1,38
 1634 150 1634 150 1622 127 c 4,39,40
 1591 66 1591 66 1535.5 19 c 132,-1,41
 1480 -28 1480 -28 1413.5 -51 c 132,-1,42
 1347 -74 1347 -74 1279 -78 c 132,-1,43
 1211 -82 1211 -82 1148 -60 c 132,-1,44
 1085 -38 1085 -38 1042 8 c 4,45,46
 1015 37 1015 37 980 73 c 6,47,-1
 944 109 l 5,48,-1
 955 371 l 6,49,50
 962 554 962 554 959 602 c 132,-1,51
 956 650 956 650 936 690 c 4,52,53
 912 738 912 738 887 762.5 c 132,-1,54
 862 787 862 787 849 775 c 4,55,56
 838 763 838 763 837.5 606.5 c 132,-1,57
 837 450 837 450 844.5 263 c 132,-1,58
 852 76 852 76 865.5 -88 c 132,-1,59
 879 -252 879 -252 891 -276 c 4,60,61
 906 -302 906 -302 896 -344.5 c 132,-1,62
 886 -387 886 -387 861 -410 c 4,63,64
 843 -426 843 -426 830.5 -426.5 c 132,-1,65
 818 -427 818 -427 784 -412 c 4,66,67
 750 -398 750 -398 740.5 -382.5 c 132,-1,68
 731 -367 731 -367 724 -313 c 4,69,70
 715 -235 715 -235 737 -154 c 4,71,72
 750 -108 750 -108 756.5 3.5 c 132,-1,73
 763 115 763 115 767 369 c 4,74,75
 774 744 774 744 767 786 c 5,76,77
 758 810 758 810 745 811 c 4,78,79
 734 811 734 811 710 802 c 132,-1,80
 686 793 686 793 665 781 c 4,81,82
 618 753 618 753 584 682 c 132,-1,83
 550 611 550 611 568 577 c 4,84,85
 577 560 577 560 574 548 c 132,-1,86
 571 536 571 536 554 519 c 4,87,88
 520 485 520 485 478.5 490 c 132,-1,89
 437 495 437 495 397 536 c 4,90,91
 364 570 364 570 359 587 c 132,-1,92
 354 604 354 604 363 647 c 4,93,94
 372 697 372 697 404 739.5 c 132,-1,95
 436 782 436 782 465 783 c 4,96,97
 474 783 474 783 498 796 c 132,-1,98
 522 809 522 809 546.5 827 c 132,-1,99
 571 845 571 845 611 865 c 132,-1,100
 651 885 651 885 682.5 894 c 132,-1,101
 714 903 714 903 739 915.5 c 132,-1,102
 764 928 764 928 768 936 c 4,103,104
 774 952 774 952 760.5 1043 c 132,-1,105
 747 1134 747 1134 723 1236 c 4,106,107
 700 1331 700 1331 707 1349 c 4,0,1
EndSplineSet
Fore
SplineSet
704 -256 m 258,0,-1
 704 800 l 257,1,2
 598 800 598 800 523 725 c 256,3,4
 480 682 480 682 461 625 c 256,5,6
 441 563 441 563 380 584 c 256,7,8
 320 605 320 605 340 665 c 256,9,10
 369 753 369 753 432 816 c 256,11,12
 544 928 544 928 704 928 c 257,13,-1
 704 1280 l 258,14,15
 704 1344 704 1344 768 1344 c 259,16,17
 832 1344 832 1344 832 1280 c 258,18,-1
 832 908 l 257,19,20
 912 881 912 881 976 816 c 256,21,22
 1088 704 1088 704 1088 416 c 259,23,24
 1088 182 1088 182 1163 107 c 256,25,26
 1238 32 1238 32 1344 32 c 259,27,28
 1450 32 1450 32 1525 107 c 256,29,30
 1568 150 1568 150 1587 207 c 256,31,32
 1607 269 1607 269 1668 248 c 256,33,34
 1728 227 1728 227 1708 167 c 256,35,36
 1679 79 1679 79 1616 16 c 256,37,38
 1504 -96 1504 -96 1344 -96 c 259,39,40
 1184 -96 1184 -96 1072 16 c 256,41,42
 960 128 960 128 960 416 c 259,43,44
 960 650 960 650 885 725 c 256,45,46
 860 750 860 750 832 766 c 257,47,-1
 832 -256 l 258,48,49
 832 -320 832 -320 768 -320 c 259,50,51
 704 -320 704 -320 704 -256 c 258,0,-1
EndSplineSet
EndChar

StartChar: uni304B
Encoding: 12363 12363 233
Width: 2048
VWidth: 1882
GlyphClass: 2
Flags: W
LayerCount: 2
Back
SplineSet
1025 268 m 4,0,1
 1068 280 1068 280 1082.5 267 c 132,-1,2
 1097 254 1097 254 1076 222 c 4,3,4
 1068 209 1068 209 1061.5 182 c 132,-1,5
 1055 155 1055 155 1055 131 c 4,6,7
 1054 88 1054 88 1046.5 79.5 c 132,-1,8
 1039 71 1039 71 999 68 c 4,9,10
 939 63 939 63 898 105 c 132,-1,11
 857 147 857 147 857 212 c 6,12,-1
 857 273 l 5,13,-1
 919 264 l 6,14,15
 944 261 944 261 975.5 262 c 132,-1,16
 1007 263 1007 263 1025 268 c 4,0,1
1293 1473 m 4,17,18
 1296 1488 1296 1488 1355 1483.5 c 132,-1,19
 1414 1479 1414 1479 1442 1460 c 4,20,21
 1537 1397 1537 1397 1570 1337.5 c 132,-1,22
 1603 1278 1603 1278 1568 1233 c 4,23,24
 1553 1212 1553 1212 1492.5 1187 c 132,-1,25
 1432 1162 1432 1162 1398 1162 c 4,26,27
 1387 1162 1387 1162 1361 1147 c 132,-1,28
 1335 1132 1335 1132 1310 1111 c 4,29,30
 1249 1060 1249 1060 1206.5 1035 c 132,-1,31
 1164 1010 1164 1010 1164 1000.5 c 132,-1,32
 1164 991 1164 991 1255 932 c 4,33,34
 1346 872 1346 872 1416 802.5 c 132,-1,35
 1486 733 1486 733 1486 702 c 4,36,37
 1486 688 1486 688 1477 671 c 132,-1,38
 1468 654 1468 654 1456 643 c 4,39,40
 1434 623 1434 623 1395 625 c 132,-1,41
 1356 627 1356 627 1274 652 c 4,42,43
 1206 673 1206 673 1125.5 660 c 132,-1,44
 1045 647 1045 647 1022 611 c 4,45,46
 994 568 994 568 1022 530 c 132,-1,47
 1050 492 1050 492 1142 449 c 4,48,49
 1223 411 1223 411 1268.5 388.5 c 132,-1,50
 1314 366 1314 366 1354.5 341.5 c 132,-1,51
 1395 317 1395 317 1412.5 301.5 c 132,-1,52
 1430 286 1430 286 1443 263.5 c 132,-1,53
 1456 241 1456 241 1458.5 221.5 c 132,-1,54
 1461 202 1461 202 1461 169 c 4,55,56
 1460 62 1460 62 1386 -38.5 c 132,-1,57
 1312 -139 1312 -139 1193 -196 c 4,58,59
 1143 -220 1143 -220 1105.5 -227 c 132,-1,60
 1068 -234 1068 -234 992 -234 c 4,61,62
 924 -233 924 -233 892.5 -228 c 132,-1,63
 861 -223 861 -223 848 -210 c 4,64,65
 832 -195 832 -195 845 -189 c 4,66,67
 859 -183 859 -183 936 -171 c 4,68,69
 1058 -153 1058 -153 1119.5 -115 c 132,-1,70
 1181 -77 1181 -77 1247 20 c 4,71,72
 1341 157 1341 157 1158 269 c 4,73,74
 1093 308 1093 308 1022 371.5 c 132,-1,75
 951 435 951 435 932 470 c 4,76,77
 916 501 916 501 917 558 c 132,-1,78
 918 615 918 615 935 646 c 4,79,80
 953 679 953 679 1013 725 c 132,-1,81
 1073 771 1073 771 1130 797 c 4,82,83
 1157 808 1157 808 1175 820.5 c 132,-1,84
 1193 833 1193 833 1193 839 c 4,85,86
 1193 857 1193 857 1148.5 885.5 c 132,-1,87
 1104 914 1104 914 1076 914 c 4,88,89
 1062 914 1062 914 1021.5 895 c 132,-1,90
 981 876 981 876 939 850 c 4,91,92
 828 781 828 781 703 724 c 132,-1,93
 578 667 578 667 523 659 c 4,94,95
 456 650 456 650 462 668 c 4,96,97
 470 693 470 693 604 756 c 4,98,99
 730 817 730 817 823.5 882.5 c 132,-1,100
 917 948 917 948 1045 1067 c 4,101,102
 1185 1195 1185 1195 1236.5 1264.5 c 132,-1,103
 1288 1334 1288 1334 1289 1395 c 4,104,105
 1291 1462 1291 1462 1293 1473 c 4,17,18
EndSplineSet
Fore
SplineSet
672 -288 m 259,0,1
 672 -224 672 -224 736 -224 c 259,2,3
 1216 -224 1216 -224 1216 96 c 259,4,5
 1216 296.615384615 1216 296.615384615 1056 337 c 280,6,7
 800 402 800 402 800 576 c 259,8,9
 800 832 800 832 1216 832 c 259,10,11
 1280 832 1280 832 1280 768 c 259,12,13
 1280 704 1280 704 1216 704 c 259,14,15
 928 704 928 704 928 576 c 259,16,17
 928 503.769230769 928 503.769230769 1088 463 c 280,18,19
 1344 398 1344 398 1344 96 c 259,20,21
 1344 -352 1344 -352 736 -352 c 259,22,23
 672 -352 672 -352 672 -288 c 259,0,1
350.862304688 703.067382812 m 256,24,25
 337.451171875 760.081054688 337.451171875 760.081054688 398.774414062 779.85546875 c 256,26,27
 897.8671875 936.499023438 897.8671875 936.499023438 1220 1343 c 256,28,29
 1260.11425781 1393.62011719 1260.11425781 1393.62011719 1312 1343 c 256,30,31
 1353 1303 1353 1303 1312 1251 c 256,32,33
 1013.71875 829.48046875 1013.71875 829.48046875 427.650390625 655.155273438 c 256,34,35
 366.649414062 637.458984375 366.649414062 637.458984375 350.862304688 703.067382812 c 256,24,25
858.509765625 10.98046875 m 258,36,-1
 768 101.490234375 l 258,37,38
 723 147 723 147 768 192 c 256,39,40
 813.254882812 237.254882812 813.254882812 237.254882812 858.509765625 192 c 282,41,-1
 949.01953125 101.490234375 l 258,42,43
 994 56 994 56 949.01953125 10.98046875 c 256,44,45
 904 -34 904 -34 858.509765625 10.98046875 c 258,36,-1
EndSplineSet
EndChar

